<mxfile host="app.diagrams.net" modified="2024-06-22T13:38:36.112Z" agent="Mozilla/5.0 (Windows NT 10.0; Win64; x64) AppleWebKit/537.36 (KHTML, like Gecko) Chrome/126.0.0.0 Safari/537.36" etag="R6XJJO53piFg7r1KtKrO" version="24.5.5" type="google">
  <diagram name="Page-1" id="yVn1MR5h5hPBNOk1Trlv">
    <mxGraphModel grid="1" page="1" gridSize="10" guides="1" tooltips="1" connect="1" arrows="1" fold="1" pageScale="1" pageWidth="850" pageHeight="1100" math="0" shadow="0">
      <root>
        <mxCell id="0" />
        <mxCell id="1" parent="0" />
        <mxCell id="aBuUrAB-tPdE4JArL_gd-6" value="&amp;lt;&amp;lt;Entity&amp;gt;&amp;gt;&lt;div style=&quot;font-size: 12px;&quot;&gt;Tài khoản&lt;/div&gt;" style="swimlane;fontStyle=1;align=center;verticalAlign=top;childLayout=stackLayout;horizontal=1;startSize=40;horizontalStack=0;resizeParent=1;resizeParentMax=0;resizeLast=0;collapsible=1;marginBottom=0;whiteSpace=wrap;html=1;fontSize=12;" vertex="1" parent="1">
          <mxGeometry x="75" y="80" width="270" height="410" as="geometry" />
        </mxCell>
        <mxCell id="aBuUrAB-tPdE4JArL_gd-7" value="- Họ và tên: string&lt;div style=&quot;line-height: 24px;&quot;&gt;- Số điện thoại: string&lt;/div&gt;&lt;div style=&quot;line-height: 24px;&quot;&gt;- Địa chỉ: string&lt;/div&gt;&lt;div style=&quot;line-height: 24px;&quot;&gt;- Quê quán: string&lt;/div&gt;&lt;div style=&quot;line-height: 24px;&quot;&gt;- Vai trò: string&lt;/div&gt;&lt;div style=&quot;line-height: 24px;&quot;&gt;- Tên đăng nhập: string&lt;/div&gt;&lt;div style=&quot;line-height: 24px;&quot;&gt;- Mật khẩu: string&lt;/div&gt;&lt;div style=&quot;line-height: 24px;&quot;&gt;- Trạng thái: string&lt;/div&gt;" style="text;strokeColor=none;fillColor=none;align=left;verticalAlign=middle;spacingLeft=4;spacingRight=4;overflow=hidden;rotatable=0;points=[[0,0.5],[1,0.5]];portConstraint=eastwest;whiteSpace=wrap;html=1;spacingTop=2;horizontal=1;fontSize=12;" vertex="1" parent="aBuUrAB-tPdE4JArL_gd-6">
          <mxGeometry y="40" width="270" height="200" as="geometry" />
        </mxCell>
        <mxCell id="aBuUrAB-tPdE4JArL_gd-8" value="" style="line;strokeWidth=1;fillColor=none;align=left;verticalAlign=middle;spacingTop=-1;spacingLeft=3;spacingRight=3;rotatable=0;labelPosition=right;points=[];portConstraint=eastwest;strokeColor=inherit;fontSize=12;" vertex="1" parent="aBuUrAB-tPdE4JArL_gd-6">
          <mxGeometry y="240" width="270" height="8" as="geometry" />
        </mxCell>
        <mxCell id="aBuUrAB-tPdE4JArL_gd-9" value="+ Lấy danh sách tài khoản()&lt;div style=&quot;line-height: 200%; font-size: 12px;&quot;&gt;+ Lấy thông tin chi tiết tài khoản(Tên đăng nhập)&lt;/div&gt;&lt;div style=&quot;line-height: 200%; font-size: 12px;&quot;&gt;+ Tìm kiếm tài khoản(&lt;span style=&quot;text-align: justify; background-color: initial;&quot;&gt;Thông tin tìm kiếm&lt;/span&gt;&lt;span style=&quot;background-color: initial;&quot;&gt;)&lt;/span&gt;&lt;/div&gt;&lt;div style=&quot;line-height: 200%; font-size: 12px;&quot;&gt;+ Lưu thông tin tài khoản(Tài khoản)&lt;/div&gt;&lt;div style=&quot;line-height: 200%; font-size: 12px;&quot;&gt;+ Cập nhật thông tin tài khoản(Tài khoản)&lt;/div&gt;&lt;div style=&quot;line-height: 200%; font-size: 12px;&quot;&gt;+ Xóa tài khoản(Tên đăng nhập)&lt;/div&gt;+ Kiểm tra thông tin tài khoản(Tài khoản)" style="text;strokeColor=none;fillColor=none;align=left;verticalAlign=top;spacingLeft=4;spacingRight=4;overflow=hidden;rotatable=0;points=[[0,0.5],[1,0.5]];portConstraint=eastwest;whiteSpace=wrap;html=1;fontSize=12;" vertex="1" parent="aBuUrAB-tPdE4JArL_gd-6">
          <mxGeometry y="248" width="270" height="162" as="geometry" />
        </mxCell>
        <mxCell id="aBuUrAB-tPdE4JArL_gd-14" value="&amp;lt;&amp;lt;Entity&amp;gt;&amp;gt;&lt;div style=&quot;font-size: 12px;&quot;&gt;Lô hàng&lt;/div&gt;" style="swimlane;fontStyle=1;align=center;verticalAlign=top;childLayout=stackLayout;horizontal=1;startSize=40;horizontalStack=0;resizeParent=1;resizeParentMax=0;resizeLast=0;collapsible=1;marginBottom=0;whiteSpace=wrap;html=1;fontSize=12;" vertex="1" parent="1">
          <mxGeometry x="1900" y="80" width="310" height="350" as="geometry" />
        </mxCell>
        <mxCell id="aBuUrAB-tPdE4JArL_gd-15" value="- Mã lô hàng: string&lt;div style=&quot;line-height: 24px;&quot;&gt;- Danh sách hàng hóa: List&amp;lt;Mã hàng hóa, đơn vị, số lượng, giá nhập, nhà cung cấp&amp;gt;&lt;div style=&quot;line-height: 24px;&quot;&gt;- Giá mua lô hàng: int&lt;/div&gt;&lt;div style=&quot;line-height: 24px;&quot;&gt;- Tên nhà cung cấp: string&lt;/div&gt;&lt;div style=&quot;line-height: 24px;&quot;&gt;- Ngày nhập: date&lt;/div&gt;&lt;/div&gt;" style="text;strokeColor=none;fillColor=none;align=left;verticalAlign=top;spacingLeft=4;spacingRight=4;overflow=hidden;rotatable=0;points=[[0,0.5],[1,0.5]];portConstraint=eastwest;whiteSpace=wrap;html=1;fontSize=12;" vertex="1" parent="aBuUrAB-tPdE4JArL_gd-14">
          <mxGeometry y="40" width="310" height="140" as="geometry" />
        </mxCell>
        <mxCell id="aBuUrAB-tPdE4JArL_gd-16" value="" style="line;strokeWidth=1;fillColor=none;align=left;verticalAlign=middle;spacingTop=-1;spacingLeft=3;spacingRight=3;rotatable=0;labelPosition=right;points=[];portConstraint=eastwest;strokeColor=inherit;fontSize=12;" vertex="1" parent="aBuUrAB-tPdE4JArL_gd-14">
          <mxGeometry y="180" width="310" height="8" as="geometry" />
        </mxCell>
        <mxCell id="aBuUrAB-tPdE4JArL_gd-17" value="&lt;div style=&quot;text-align: justify; line-height: 200%; font-size: 12px;&quot;&gt;&lt;span style=&quot;background-color: initial; font-size: 12px;&quot;&gt;+ Lấy danh sách lô hàng()&lt;/span&gt;&lt;/div&gt;&lt;div style=&quot;text-align: justify; line-height: 200%; font-size: 12px;&quot;&gt;+ Lấy thông tin chi tiết lô hàng(Mã lô hàng)&lt;/div&gt;&lt;div style=&quot;text-align: justify; line-height: 200%; font-size: 12px;&quot;&gt;+ Tìm kiếm lô hàng(Thông tin tìm kiếm)&lt;/div&gt;&lt;div style=&quot;text-align: justify; line-height: 200%; font-size: 12px;&quot;&gt;+ Lưu thông tin lô hàng(Lô hàng)&lt;/div&gt;&lt;div style=&quot;text-align: justify; line-height: 200%; font-size: 12px;&quot;&gt;+ Cập nhật thông tin lô hàng(Lô hàng)&lt;/div&gt;&lt;div style=&quot;text-align: justify; line-height: 200%; font-size: 12px;&quot;&gt;+ Xóa thông tin lô hàng(Mã lô hàng)&lt;/div&gt;" style="text;strokeColor=none;fillColor=none;align=left;verticalAlign=top;spacingLeft=4;spacingRight=4;overflow=hidden;rotatable=0;points=[[0,0.5],[1,0.5]];portConstraint=eastwest;whiteSpace=wrap;html=1;fontSize=12;" vertex="1" parent="aBuUrAB-tPdE4JArL_gd-14">
          <mxGeometry y="188" width="310" height="162" as="geometry" />
        </mxCell>
        <mxCell id="aBuUrAB-tPdE4JArL_gd-18" value="&amp;lt;&amp;lt;Entity&amp;gt;&amp;gt;&lt;div style=&quot;font-size: 12px;&quot;&gt;Nhà cung cấp&lt;/div&gt;" style="swimlane;fontStyle=1;align=center;verticalAlign=top;childLayout=stackLayout;horizontal=1;startSize=40;horizontalStack=0;resizeParent=1;resizeParentMax=0;resizeLast=0;collapsible=1;marginBottom=0;whiteSpace=wrap;html=1;fontSize=12;" vertex="1" parent="1">
          <mxGeometry x="850" y="73" width="310" height="400" as="geometry" />
        </mxCell>
        <mxCell id="aBuUrAB-tPdE4JArL_gd-19" value="- Mã nhà cung cấp: string&lt;div style=&quot;line-height: 200%;&quot;&gt;- Tên nhà cung cấp: string&lt;div style=&quot;line-height: 200%;&quot;&gt;- Địa chỉ: string&lt;/div&gt;&lt;/div&gt;&lt;div style=&quot;line-height: 200%;&quot;&gt;- Số điện thoại: string&lt;/div&gt;&lt;div style=&quot;line-height: 200%;&quot;&gt;- Mã số thuế: string&lt;/div&gt;&lt;div style=&quot;line-height: 200%;&quot;&gt;- Email: string&lt;/div&gt;&lt;div style=&quot;line-height: 200%;&quot;&gt;- Website: string&lt;/div&gt;&lt;div style=&quot;line-height: 200%;&quot;&gt;- Ghi chú: string&lt;/div&gt;" style="text;strokeColor=none;fillColor=none;align=left;verticalAlign=top;spacingLeft=4;spacingRight=4;overflow=hidden;rotatable=0;points=[[0,0.5],[1,0.5]];portConstraint=eastwest;whiteSpace=wrap;html=1;fontSize=12;" vertex="1" parent="aBuUrAB-tPdE4JArL_gd-18">
          <mxGeometry y="40" width="310" height="190" as="geometry" />
        </mxCell>
        <mxCell id="aBuUrAB-tPdE4JArL_gd-20" value="" style="line;strokeWidth=1;fillColor=none;align=left;verticalAlign=middle;spacingTop=-1;spacingLeft=3;spacingRight=3;rotatable=0;labelPosition=right;points=[];portConstraint=eastwest;strokeColor=inherit;fontSize=12;" vertex="1" parent="aBuUrAB-tPdE4JArL_gd-18">
          <mxGeometry y="230" width="310" height="8" as="geometry" />
        </mxCell>
        <mxCell id="aBuUrAB-tPdE4JArL_gd-21" value="&lt;div style=&quot;text-align: justify; line-height: 200%; font-size: 12px;&quot;&gt;&lt;span style=&quot;background-color: initial; font-size: 12px;&quot;&gt;+ Lấy danh sách nhà cung cấp()&lt;/span&gt;&lt;/div&gt;&lt;div style=&quot;text-align: justify; line-height: 200%; font-size: 12px;&quot;&gt;+ Lấy thông tin chi tiết nhà cung cấp(Mã nhà cung cấp)&lt;/div&gt;&lt;div style=&quot;text-align: justify; line-height: 200%; font-size: 12px;&quot;&gt;+ Tìm kiếm nhà cung cấp(Thông tin tìm kiếm)&lt;/div&gt;&lt;div style=&quot;text-align: justify; line-height: 200%; font-size: 12px;&quot;&gt;+ Lưu thông tin nhà cung cấp(Nhà cung cấp)&lt;/div&gt;&lt;div style=&quot;text-align: justify; line-height: 200%; font-size: 12px;&quot;&gt;+ Cập nhật thông tin nhà cung cấp(Nhà cung cấp)&lt;/div&gt;&lt;div style=&quot;text-align: justify; line-height: 200%; font-size: 12px;&quot;&gt;+ Xóa thông tin nhà cung cấp(Mã nhà cung cấp)&lt;/div&gt;" style="text;strokeColor=none;fillColor=none;align=left;verticalAlign=top;spacingLeft=4;spacingRight=4;overflow=hidden;rotatable=0;points=[[0,0.5],[1,0.5]];portConstraint=eastwest;whiteSpace=wrap;html=1;fontSize=12;" vertex="1" parent="aBuUrAB-tPdE4JArL_gd-18">
          <mxGeometry y="238" width="310" height="162" as="geometry" />
        </mxCell>
        <mxCell id="aBuUrAB-tPdE4JArL_gd-22" value="&amp;lt;&amp;lt;Entity&amp;gt;&amp;gt;&lt;div style=&quot;font-size: 12px;&quot;&gt;Phiếu xuất hủy&lt;/div&gt;" style="swimlane;fontStyle=1;align=center;verticalAlign=top;childLayout=stackLayout;horizontal=1;startSize=40;horizontalStack=0;resizeParent=1;resizeParentMax=0;resizeLast=0;collapsible=1;marginBottom=0;whiteSpace=wrap;html=1;fontSize=12;" vertex="1" parent="1">
          <mxGeometry x="955" y="800" width="320" height="350" as="geometry" />
        </mxCell>
        <mxCell id="aBuUrAB-tPdE4JArL_gd-23" value="- Mã phiếu xuất hủy: string&lt;div style=&quot;line-height: 200%;&quot;&gt;- Tên phiếu xuất hủy: string&lt;/div&gt;&lt;div style=&quot;line-height: 200%;&quot;&gt;- Ngày hủy: date&lt;/div&gt;&lt;div style=&quot;line-height: 200%;&quot;&gt;- Danh sách hàng hóa bị hủy: List&amp;lt;Mã hàng hóa, mã lô hàng, số lượng&amp;gt;&lt;/div&gt;&lt;div style=&quot;line-height: 200%;&quot;&gt;&lt;span style=&quot;background-color: initial;&quot;&gt;- Ghi chú: string&lt;/span&gt;&lt;/div&gt;" style="text;strokeColor=none;fillColor=none;align=left;verticalAlign=top;spacingLeft=4;spacingRight=4;overflow=hidden;rotatable=0;points=[[0,0.5],[1,0.5]];portConstraint=eastwest;whiteSpace=wrap;html=1;fontSize=12;" vertex="1" parent="aBuUrAB-tPdE4JArL_gd-22">
          <mxGeometry y="40" width="320" height="140" as="geometry" />
        </mxCell>
        <mxCell id="aBuUrAB-tPdE4JArL_gd-24" value="" style="line;strokeWidth=1;fillColor=none;align=left;verticalAlign=middle;spacingTop=-1;spacingLeft=3;spacingRight=3;rotatable=0;labelPosition=right;points=[];portConstraint=eastwest;strokeColor=inherit;fontSize=12;" vertex="1" parent="aBuUrAB-tPdE4JArL_gd-22">
          <mxGeometry y="180" width="320" height="8" as="geometry" />
        </mxCell>
        <mxCell id="aBuUrAB-tPdE4JArL_gd-25" value="&lt;div style=&quot;text-align: justify; line-height: 200%; font-size: 12px;&quot;&gt;&lt;span style=&quot;background-color: initial; font-size: 12px;&quot;&gt;+ Lấy danh sách phiếu xuất hủy()&lt;/span&gt;&lt;/div&gt;&lt;div style=&quot;text-align: justify; line-height: 200%; font-size: 12px;&quot;&gt;+ Lấy thông tin chi tiết phiếu xuất hủy(Mã phiếu xuất hủy)&lt;/div&gt;&lt;div style=&quot;text-align: justify; line-height: 200%; font-size: 12px;&quot;&gt;+ Tìm kiếm phiếu xuất hủy(Thông tin tìm kiếm)&lt;/div&gt;&lt;div style=&quot;text-align: justify; line-height: 200%; font-size: 12px;&quot;&gt;+ Lưu thông tin phiếu xuất hủy(Phiếu xuất hủy)&lt;/div&gt;&lt;div style=&quot;text-align: justify; line-height: 200%; font-size: 12px;&quot;&gt;+ Cập nhật thông tin phiếu xuất hủy(Phiếu xuất hủy)&lt;/div&gt;&lt;div style=&quot;text-align: justify; line-height: 200%; font-size: 12px;&quot;&gt;+ Xóa thông tin phiếu xuất hủy(Mã phiếu xuất hủy)&lt;/div&gt;" style="text;strokeColor=none;fillColor=none;align=left;verticalAlign=top;spacingLeft=4;spacingRight=4;overflow=hidden;rotatable=0;points=[[0,0.5],[1,0.5]];portConstraint=eastwest;whiteSpace=wrap;html=1;fontSize=12;" vertex="1" parent="aBuUrAB-tPdE4JArL_gd-22">
          <mxGeometry y="188" width="320" height="162" as="geometry" />
        </mxCell>
        <mxCell id="aBuUrAB-tPdE4JArL_gd-30" value="&amp;lt;&amp;lt;Entity&amp;gt;&amp;gt;&lt;div&gt;Khách hàng&lt;/div&gt;" style="swimlane;fontStyle=1;align=center;verticalAlign=top;childLayout=stackLayout;horizontal=1;startSize=40;horizontalStack=0;resizeParent=1;resizeParentMax=0;resizeLast=0;collapsible=1;marginBottom=0;whiteSpace=wrap;html=1;fontSize=12;" vertex="1" parent="1">
          <mxGeometry x="2705" y="80" width="320" height="310" as="geometry" />
        </mxCell>
        <mxCell id="aBuUrAB-tPdE4JArL_gd-31" value="- Mã khách hàng: string&lt;div style=&quot;line-height: 24px;&quot;&gt;- Họ và tên: string&lt;/div&gt;&lt;div style=&quot;line-height: 24px;&quot;&gt;- Số điện thoại: string&lt;/div&gt;&lt;div style=&quot;line-height: 24px;&quot;&gt;- Ghi chú: string&lt;/div&gt;" style="text;strokeColor=none;fillColor=none;align=left;verticalAlign=top;spacingLeft=4;spacingRight=4;overflow=hidden;rotatable=0;points=[[0,0.5],[1,0.5]];portConstraint=eastwest;whiteSpace=wrap;html=1;fontSize=12;" vertex="1" parent="aBuUrAB-tPdE4JArL_gd-30">
          <mxGeometry y="40" width="320" height="100" as="geometry" />
        </mxCell>
        <mxCell id="aBuUrAB-tPdE4JArL_gd-32" value="" style="line;strokeWidth=1;fillColor=none;align=left;verticalAlign=middle;spacingTop=-1;spacingLeft=3;spacingRight=3;rotatable=0;labelPosition=right;points=[];portConstraint=eastwest;strokeColor=inherit;fontSize=12;" vertex="1" parent="aBuUrAB-tPdE4JArL_gd-30">
          <mxGeometry y="140" width="320" height="8" as="geometry" />
        </mxCell>
        <mxCell id="aBuUrAB-tPdE4JArL_gd-33" value="&lt;div style=&quot;text-align: justify; line-height: 200%; font-size: 12px;&quot;&gt;&lt;div style=&quot;line-height: 24px;&quot;&gt;&lt;span style=&quot;background-color: initial;&quot;&gt;+ Lấy danh sách khách hàng()&lt;/span&gt;&lt;/div&gt;&lt;div style=&quot;line-height: 24px;&quot;&gt;+ Lấy thông tin chi tiết khách hàng(Mã khách hàng)&lt;/div&gt;&lt;div style=&quot;line-height: 24px;&quot;&gt;+ Tìm kiếm khách hàng(Thông tin tìm kiếm)&lt;/div&gt;&lt;div style=&quot;line-height: 24px;&quot;&gt;+ Lưu thông tin khách hàng(Khách hàng)&lt;/div&gt;&lt;div style=&quot;line-height: 24px;&quot;&gt;+ Cập nhật thông tin khách hàng(Khách hàng)&lt;/div&gt;&lt;div style=&quot;line-height: 24px;&quot;&gt;+ Xóa thông tin khách hàng(Mã khách hàng)&lt;/div&gt;&lt;/div&gt;" style="text;strokeColor=none;fillColor=none;align=left;verticalAlign=top;spacingLeft=4;spacingRight=4;overflow=hidden;rotatable=0;points=[[0,0.5],[1,0.5]];portConstraint=eastwest;whiteSpace=wrap;html=1;fontSize=12;" vertex="1" parent="aBuUrAB-tPdE4JArL_gd-30">
          <mxGeometry y="148" width="320" height="162" as="geometry" />
        </mxCell>
        <mxCell id="Pjqkww6uHoSa5I9ibUBh-1" value="&amp;lt;&amp;lt;Entity&amp;gt;&amp;gt;&lt;div&gt;Hàng hóa&lt;/div&gt;" style="swimlane;fontStyle=1;align=center;verticalAlign=top;childLayout=stackLayout;horizontal=1;startSize=40;horizontalStack=0;resizeParent=1;resizeParentMax=0;resizeLast=0;collapsible=1;marginBottom=0;whiteSpace=wrap;html=1;fontSize=12;" vertex="1" parent="1">
          <mxGeometry x="1890" y="800" width="320" height="438" as="geometry" />
        </mxCell>
        <mxCell id="Pjqkww6uHoSa5I9ibUBh-2" value="- Mã hàng hóa: string&lt;div style=&quot;line-height: 200%;&quot;&gt;&lt;div style=&quot;line-height: 200%;&quot;&gt;- Mã lô hàng: string&lt;br&gt;&lt;div style=&quot;line-height: 200%;&quot;&gt;- Tên hàng hóa: string&lt;/div&gt;&lt;div style=&quot;line-height: 200%;&quot;&gt;- Đơn vị: string&lt;/div&gt;&lt;div style=&quot;line-height: 200%;&quot;&gt;- Số lượng: int&lt;/div&gt;&lt;div style=&quot;line-height: 200%;&quot;&gt;- Giá mua: int&lt;br&gt;- Giá bán: int&lt;/div&gt;&lt;div style=&quot;line-height: 200%;&quot;&gt;- Ngày sản xuất: date&lt;/div&gt;&lt;div style=&quot;line-height: 200%;&quot;&gt;- Hạn sử dụng: date&lt;/div&gt;&lt;div style=&quot;line-height: 200%;&quot;&gt;- Nhà cung cấp: String&lt;/div&gt;&lt;div style=&quot;line-height: 200%;&quot;&gt;- Ghi chú: string&lt;/div&gt;&lt;/div&gt;&lt;/div&gt;" style="text;strokeColor=none;fillColor=none;align=left;verticalAlign=top;spacingLeft=4;spacingRight=4;overflow=hidden;rotatable=0;points=[[0,0.5],[1,0.5]];portConstraint=eastwest;whiteSpace=wrap;html=1;fontSize=12;" vertex="1" parent="Pjqkww6uHoSa5I9ibUBh-1">
          <mxGeometry y="40" width="320" height="260" as="geometry" />
        </mxCell>
        <mxCell id="Pjqkww6uHoSa5I9ibUBh-3" value="" style="line;strokeWidth=1;fillColor=none;align=left;verticalAlign=middle;spacingTop=-1;spacingLeft=3;spacingRight=3;rotatable=0;labelPosition=right;points=[];portConstraint=eastwest;strokeColor=inherit;fontSize=12;" vertex="1" parent="Pjqkww6uHoSa5I9ibUBh-1">
          <mxGeometry y="300" width="320" height="8" as="geometry" />
        </mxCell>
        <mxCell id="Pjqkww6uHoSa5I9ibUBh-4" value="&lt;div style=&quot;text-align: justify; line-height: 200%; font-size: 12px;&quot;&gt;&lt;div style=&quot;line-height: 24px;&quot;&gt;&lt;span style=&quot;background-color: initial;&quot;&gt;+ Lấy danh sách hàng hóa()&lt;/span&gt;&lt;/div&gt;&lt;div style=&quot;line-height: 24px;&quot;&gt;+ Lấy thông tin chi tiết hàng hóa(Mã hàng hóa)&lt;/div&gt;&lt;div style=&quot;line-height: 24px;&quot;&gt;+ Tìm kiếm hàng hóa(Thông tin tìm kiếm)&lt;/div&gt;&lt;div style=&quot;line-height: 24px;&quot;&gt;+ Lưu thông tin hàng hóa(Hàng hóa)&lt;/div&gt;&lt;div style=&quot;line-height: 24px;&quot;&gt;+ Cập nhật thông tin hàng hóa(Hàng hóa)&lt;/div&gt;&lt;div style=&quot;line-height: 24px;&quot;&gt;+ Xóa thông tin hàng hóa(Mã hàng hóa)&lt;/div&gt;&lt;/div&gt;" style="text;strokeColor=none;fillColor=none;align=left;verticalAlign=top;spacingLeft=4;spacingRight=4;overflow=hidden;rotatable=0;points=[[0,0.5],[1,0.5]];portConstraint=eastwest;whiteSpace=wrap;html=1;fontSize=12;" vertex="1" parent="Pjqkww6uHoSa5I9ibUBh-1">
          <mxGeometry y="308" width="320" height="130" as="geometry" />
        </mxCell>
        <mxCell id="Pjqkww6uHoSa5I9ibUBh-5" value="&amp;lt;&amp;lt;Entity&amp;gt;&amp;gt;&lt;div&gt;Hóa đơn&lt;/div&gt;" style="swimlane;fontStyle=1;align=center;verticalAlign=top;childLayout=stackLayout;horizontal=1;startSize=40;horizontalStack=0;resizeParent=1;resizeParentMax=0;resizeLast=0;collapsible=1;marginBottom=0;whiteSpace=wrap;html=1;fontSize=12;" vertex="1" parent="1">
          <mxGeometry x="2720" y="800" width="250" height="260" as="geometry" />
        </mxCell>
        <mxCell id="Pjqkww6uHoSa5I9ibUBh-6" value="- Mã hóa đơn: string&lt;div style=&quot;line-height: 200%;&quot;&gt;- Mã khách hàng: string&lt;/div&gt;&lt;div style=&quot;line-height: 200%;&quot;&gt;- Danh sách sản phẩm: List&amp;lt;Mã hàng hóa, Mã lô hàng, giá bán, số lượng, đơn vị&amp;gt;&lt;/div&gt;&lt;div style=&quot;line-height: 200%;&quot;&gt;- Thời gian xuất hóa đơn: datetime&lt;/div&gt;&lt;div style=&quot;line-height: 200%;&quot;&gt;- Tổng tiền: int&lt;/div&gt;&lt;div style=&quot;line-height: 200%;&quot;&gt;- Địa chỉ cửa hàng: string&lt;/div&gt;" style="text;strokeColor=none;fillColor=none;align=left;verticalAlign=top;spacingLeft=4;spacingRight=4;overflow=hidden;rotatable=0;points=[[0,0.5],[1,0.5]];portConstraint=eastwest;whiteSpace=wrap;html=1;fontSize=12;" vertex="1" parent="Pjqkww6uHoSa5I9ibUBh-5">
          <mxGeometry y="40" width="250" height="140" as="geometry" />
        </mxCell>
        <mxCell id="Pjqkww6uHoSa5I9ibUBh-7" value="" style="line;strokeWidth=1;fillColor=none;align=left;verticalAlign=middle;spacingTop=-1;spacingLeft=3;spacingRight=3;rotatable=0;labelPosition=right;points=[];portConstraint=eastwest;strokeColor=inherit;fontSize=12;" vertex="1" parent="Pjqkww6uHoSa5I9ibUBh-5">
          <mxGeometry y="180" width="250" height="8" as="geometry" />
        </mxCell>
        <mxCell id="Pjqkww6uHoSa5I9ibUBh-8" value="&lt;div style=&quot;text-align: justify; line-height: 200%; font-size: 12px;&quot;&gt;+ Lưu hóa đơn(hóa đơn)&lt;/div&gt;&lt;div style=&quot;text-align: justify; line-height: 200%; font-size: 12px;&quot;&gt;+ Lấy danh sách hóa đơn(hóa đơn)&lt;/div&gt;&lt;div style=&quot;text-align: justify; line-height: 200%; font-size: 12px;&quot;&gt;+ Xem chi tiết hóa đơn&lt;/div&gt;" style="text;strokeColor=none;fillColor=none;align=left;verticalAlign=middle;spacingLeft=4;spacingRight=4;overflow=hidden;rotatable=0;points=[[0,0.5],[1,0.5]];portConstraint=eastwest;whiteSpace=wrap;html=1;fontSize=12;" vertex="1" parent="Pjqkww6uHoSa5I9ibUBh-5">
          <mxGeometry y="188" width="250" height="72" as="geometry" />
        </mxCell>
        <mxCell id="Pjqkww6uHoSa5I9ibUBh-9" value="&amp;lt;&amp;lt;Entity&amp;gt;&amp;gt;&lt;div style=&quot;font-size: 12px;&quot;&gt;Bảng chấm công&lt;/div&gt;" style="swimlane;fontStyle=1;align=center;verticalAlign=top;childLayout=stackLayout;horizontal=1;startSize=40;horizontalStack=0;resizeParent=1;resizeParentMax=0;resizeLast=0;collapsible=1;marginBottom=0;whiteSpace=wrap;html=1;fontSize=12;" vertex="1" parent="1">
          <mxGeometry x="-370" y="830" width="250" height="150" as="geometry" />
        </mxCell>
        <mxCell id="Pjqkww6uHoSa5I9ibUBh-10" value="- Tên đăng nhập: string&lt;div style=&quot;line-height: 200%;&quot;&gt;- Thời gian checkin: DateTime&lt;/div&gt;&lt;div style=&quot;line-height: 200%;&quot;&gt;- Thời gian checkout: DateTime&lt;/div&gt;&lt;div style=&quot;line-height: 200%;&quot;&gt;&lt;br&gt;&lt;/div&gt;" style="text;strokeColor=none;fillColor=none;align=left;verticalAlign=top;spacingLeft=4;spacingRight=4;overflow=hidden;rotatable=0;points=[[0,0.5],[1,0.5]];portConstraint=eastwest;whiteSpace=wrap;html=1;spacingTop=2;horizontal=1;fontSize=12;" vertex="1" parent="Pjqkww6uHoSa5I9ibUBh-9">
          <mxGeometry y="40" width="250" height="70" as="geometry" />
        </mxCell>
        <mxCell id="Pjqkww6uHoSa5I9ibUBh-11" value="" style="line;strokeWidth=1;fillColor=none;align=left;verticalAlign=middle;spacingTop=-1;spacingLeft=3;spacingRight=3;rotatable=0;labelPosition=right;points=[];portConstraint=eastwest;strokeColor=inherit;fontSize=12;" vertex="1" parent="Pjqkww6uHoSa5I9ibUBh-9">
          <mxGeometry y="110" width="250" height="8" as="geometry" />
        </mxCell>
        <mxCell id="Pjqkww6uHoSa5I9ibUBh-12" value="+ Lưu lại bảng chấm công(Bảng chấm công)" style="text;strokeColor=none;fillColor=none;align=left;verticalAlign=top;spacingLeft=4;spacingRight=4;overflow=hidden;rotatable=0;points=[[0,0.5],[1,0.5]];portConstraint=eastwest;whiteSpace=wrap;html=1;fontSize=12;" vertex="1" parent="Pjqkww6uHoSa5I9ibUBh-9">
          <mxGeometry y="118" width="250" height="32" as="geometry" />
        </mxCell>
        <mxCell id="p5YieNyIpPeS9HpQ7IXg-1" value="&amp;lt;&amp;lt;Entity&amp;gt;&amp;gt;&lt;div style=&quot;font-size: 12px;&quot;&gt;Thưởng phạt&lt;/div&gt;" style="swimlane;fontStyle=1;align=center;verticalAlign=top;childLayout=stackLayout;horizontal=1;startSize=40;horizontalStack=0;resizeParent=1;resizeParentMax=0;resizeLast=0;collapsible=1;marginBottom=0;whiteSpace=wrap;html=1;fontSize=12;" vertex="1" parent="1">
          <mxGeometry x="320" y="810" width="250" height="290" as="geometry" />
        </mxCell>
        <mxCell id="p5YieNyIpPeS9HpQ7IXg-2" value="- Tên đăng nhập: string&lt;div style=&quot;line-height: 200%;&quot;&gt;- Thời gian: DateTime&lt;/div&gt;&lt;div style=&quot;line-height: 200%;&quot;&gt;- Tiền thưởng, phạt: int&lt;/div&gt;&lt;div style=&quot;line-height: 200%;&quot;&gt;- Lý do: string&lt;/div&gt;&lt;div style=&quot;line-height: 200%;&quot;&gt;- Trạng thái: string&lt;/div&gt;&lt;div style=&quot;line-height: 200%;&quot;&gt;&lt;br&gt;&lt;/div&gt;" style="text;strokeColor=none;fillColor=none;align=left;verticalAlign=top;spacingLeft=4;spacingRight=4;overflow=hidden;rotatable=0;points=[[0,0.5],[1,0.5]];portConstraint=eastwest;whiteSpace=wrap;html=1;spacingTop=2;horizontal=1;fontSize=12;" vertex="1" parent="p5YieNyIpPeS9HpQ7IXg-1">
          <mxGeometry y="40" width="250" height="120" as="geometry" />
        </mxCell>
        <mxCell id="p5YieNyIpPeS9HpQ7IXg-3" value="" style="line;strokeWidth=1;fillColor=none;align=left;verticalAlign=middle;spacingTop=-1;spacingLeft=3;spacingRight=3;rotatable=0;labelPosition=right;points=[];portConstraint=eastwest;strokeColor=inherit;fontSize=12;" vertex="1" parent="p5YieNyIpPeS9HpQ7IXg-1">
          <mxGeometry y="160" width="250" height="8" as="geometry" />
        </mxCell>
        <mxCell id="p5YieNyIpPeS9HpQ7IXg-4" value="&lt;div style=&quot;line-height: 200%;&quot;&gt;+ Xem danh sách thưởng, phạt&lt;/div&gt;+ Lưu lại thưởng, phạt(Thưởng phạt)&lt;div style=&quot;line-height: 200%;&quot;&gt;+ Chỉnh sửa thưởng, phạt(Thưởng phạt)&lt;/div&gt;&lt;div style=&quot;line-height: 200%;&quot;&gt;+ Xóa thưởng, phạt(Thưởng phạt)&lt;/div&gt;&lt;div style=&quot;line-height: 200%;&quot;&gt;+ Kiểm tra thông tin for,(Thưởng phạt)&lt;/div&gt;" style="text;strokeColor=none;fillColor=none;align=left;verticalAlign=middle;spacingLeft=4;spacingRight=4;overflow=hidden;rotatable=0;points=[[0,0.5],[1,0.5]];portConstraint=eastwest;whiteSpace=wrap;html=1;fontSize=12;" vertex="1" parent="p5YieNyIpPeS9HpQ7IXg-1">
          <mxGeometry y="168" width="250" height="122" as="geometry" />
        </mxCell>
        <mxCell id="p5YieNyIpPeS9HpQ7IXg-13" value="&lt;b&gt;&amp;lt;&amp;lt;Control&amp;gt;&amp;gt;&lt;/b&gt;&lt;div&gt;&lt;b&gt;Quản lý tài khoản&lt;/b&gt;&lt;/div&gt;" style="swimlane;fontStyle=0;childLayout=stackLayout;horizontal=1;startSize=40;fillColor=none;horizontalStack=0;resizeParent=1;resizeParentMax=0;resizeLast=0;collapsible=1;marginBottom=0;whiteSpace=wrap;html=1;" vertex="1" parent="1">
          <mxGeometry x="-290" y="-320" width="270" height="204" as="geometry">
            <mxRectangle x="-250" y="100" width="140" height="40" as="alternateBounds" />
          </mxGeometry>
        </mxCell>
        <mxCell id="p5YieNyIpPeS9HpQ7IXg-14" value="&lt;div&gt;+ Lấy danh sách tài khoản()&lt;div style=&quot;line-height: 24px;&quot;&gt;+ Lấy thông tin chi tiết tài khoản(Tên đăng nhập)&lt;/div&gt;&lt;div style=&quot;line-height: 24px;&quot;&gt;+ Tìm kiếm tài khoản(&lt;span style=&quot;text-align: justify; background-color: initial;&quot;&gt;Thông tin tìm kiếm&lt;/span&gt;&lt;span style=&quot;background-color: initial;&quot;&gt;)&lt;/span&gt;&lt;/div&gt;&lt;div style=&quot;line-height: 24px;&quot;&gt;+ Lưu thông tin tài khoản(Tài khoản)&lt;/div&gt;&lt;div style=&quot;line-height: 24px;&quot;&gt;+ Cập nhật thông tin tài khoản(Tài khoản)&lt;/div&gt;&lt;div style=&quot;line-height: 24px;&quot;&gt;+ Xóa tài khoản(Tên đăng nhập)&lt;/div&gt;+ Kiểm tra thông tin trong form(Tài khoản)&lt;br&gt;&lt;/div&gt;" style="text;strokeColor=none;fillColor=none;align=left;verticalAlign=top;spacingLeft=4;spacingRight=4;overflow=hidden;rotatable=0;points=[[0,0.5],[1,0.5]];portConstraint=eastwest;whiteSpace=wrap;html=1;" vertex="1" parent="p5YieNyIpPeS9HpQ7IXg-13">
          <mxGeometry y="40" width="270" height="164" as="geometry" />
        </mxCell>
        <mxCell id="p5YieNyIpPeS9HpQ7IXg-17" value="&lt;b&gt;&amp;lt;&amp;lt;Boundary&amp;gt;&amp;gt;&lt;/b&gt;&lt;div&gt;&lt;b&gt;Quản lý tài khoản&lt;/b&gt;&lt;/div&gt;" style="swimlane;fontStyle=0;childLayout=stackLayout;horizontal=1;startSize=40;fillColor=none;horizontalStack=0;resizeParent=1;resizeParentMax=0;resizeLast=0;collapsible=1;marginBottom=0;whiteSpace=wrap;html=1;" vertex="1" parent="1">
          <mxGeometry x="-710" y="-480" width="270" height="70" as="geometry">
            <mxRectangle x="-250" y="100" width="140" height="40" as="alternateBounds" />
          </mxGeometry>
        </mxCell>
        <mxCell id="p5YieNyIpPeS9HpQ7IXg-18" value="&lt;div&gt;- Danh sách tài khoản: List&amp;lt;Tài khoản&amp;gt;&lt;/div&gt;" style="text;strokeColor=none;fillColor=none;align=left;verticalAlign=top;spacingLeft=4;spacingRight=4;overflow=hidden;rotatable=0;points=[[0,0.5],[1,0.5]];portConstraint=eastwest;whiteSpace=wrap;html=1;" vertex="1" parent="p5YieNyIpPeS9HpQ7IXg-17">
          <mxGeometry y="40" width="270" height="30" as="geometry" />
        </mxCell>
        <mxCell id="p5YieNyIpPeS9HpQ7IXg-19" value="&lt;b&gt;&amp;lt;&amp;lt;Boundary&amp;gt;&amp;gt;&lt;/b&gt;&lt;div&gt;&lt;b&gt;Thông tin chi tiết tài khoản&lt;/b&gt;&lt;/div&gt;" style="swimlane;fontStyle=0;childLayout=stackLayout;horizontal=1;startSize=40;fillColor=none;horizontalStack=0;resizeParent=1;resizeParentMax=0;resizeLast=0;collapsible=1;marginBottom=0;whiteSpace=wrap;html=1;" vertex="1" parent="1">
          <mxGeometry x="-550" y="-780" width="200" height="230" as="geometry">
            <mxRectangle x="-250" y="100" width="140" height="40" as="alternateBounds" />
          </mxGeometry>
        </mxCell>
        <mxCell id="p5YieNyIpPeS9HpQ7IXg-20" value="- Họ và tên: string&lt;div style=&quot;line-height: 24px;&quot;&gt;- Số điện thoại: string&lt;/div&gt;&lt;div style=&quot;line-height: 24px;&quot;&gt;- Địa chỉ: string&lt;/div&gt;&lt;div style=&quot;line-height: 24px;&quot;&gt;- Quê quán: string&lt;/div&gt;&lt;div style=&quot;line-height: 24px;&quot;&gt;- Vai trò: string&lt;/div&gt;&lt;div style=&quot;line-height: 24px;&quot;&gt;- Tên đăng nhập: string&lt;/div&gt;&lt;div style=&quot;line-height: 24px;&quot;&gt;- Mật khẩu: string&lt;/div&gt;&lt;div style=&quot;line-height: 24px;&quot;&gt;- Trạng thái: string&lt;/div&gt;" style="text;strokeColor=none;fillColor=none;align=left;verticalAlign=top;spacingLeft=4;spacingRight=4;overflow=hidden;rotatable=0;points=[[0,0.5],[1,0.5]];portConstraint=eastwest;whiteSpace=wrap;html=1;" vertex="1" parent="p5YieNyIpPeS9HpQ7IXg-19">
          <mxGeometry y="40" width="200" height="190" as="geometry" />
        </mxCell>
        <mxCell id="p5YieNyIpPeS9HpQ7IXg-21" value="&amp;lt;&amp;lt;Boundary&amp;gt;&amp;gt;&lt;div style=&quot;font-size: 12px;&quot;&gt;Form thêm mới tài khoản&lt;/div&gt;" style="swimlane;fontStyle=1;align=center;verticalAlign=top;childLayout=stackLayout;horizontal=1;startSize=40;horizontalStack=0;resizeParent=1;resizeParentMax=0;resizeLast=0;collapsible=1;marginBottom=0;whiteSpace=wrap;html=1;fontSize=12;" vertex="1" parent="1">
          <mxGeometry x="-250" y="-830" width="240" height="280" as="geometry" />
        </mxCell>
        <mxCell id="p5YieNyIpPeS9HpQ7IXg-22" value="- Họ và tên: string&lt;div style=&quot;line-height: 24px;&quot;&gt;- Số điện thoại: string&lt;/div&gt;&lt;div style=&quot;line-height: 24px;&quot;&gt;- Địa chỉ: string&lt;/div&gt;&lt;div style=&quot;line-height: 24px;&quot;&gt;- Quê quán: string&lt;/div&gt;&lt;div style=&quot;line-height: 24px;&quot;&gt;- Vai trò: string&lt;/div&gt;&lt;div style=&quot;line-height: 24px;&quot;&gt;- Tên đăng nhập: string&lt;/div&gt;&lt;div style=&quot;line-height: 24px;&quot;&gt;- Mật khẩu: string&lt;/div&gt;&lt;div style=&quot;line-height: 24px;&quot;&gt;- Trạng thái: string&lt;/div&gt;" style="text;strokeColor=none;fillColor=none;align=left;verticalAlign=middle;spacingLeft=4;spacingRight=4;overflow=hidden;rotatable=0;points=[[0,0.5],[1,0.5]];portConstraint=eastwest;whiteSpace=wrap;html=1;spacingTop=2;horizontal=1;fontSize=12;" vertex="1" parent="p5YieNyIpPeS9HpQ7IXg-21">
          <mxGeometry y="40" width="240" height="200" as="geometry" />
        </mxCell>
        <mxCell id="p5YieNyIpPeS9HpQ7IXg-23" value="" style="line;strokeWidth=1;fillColor=none;align=left;verticalAlign=middle;spacingTop=-1;spacingLeft=3;spacingRight=3;rotatable=0;labelPosition=right;points=[];portConstraint=eastwest;strokeColor=inherit;fontSize=12;" vertex="1" parent="p5YieNyIpPeS9HpQ7IXg-21">
          <mxGeometry y="240" width="240" height="8" as="geometry" />
        </mxCell>
        <mxCell id="p5YieNyIpPeS9HpQ7IXg-24" value="+ Submit()" style="text;strokeColor=none;fillColor=none;align=left;verticalAlign=top;spacingLeft=4;spacingRight=4;overflow=hidden;rotatable=0;points=[[0,0.5],[1,0.5]];portConstraint=eastwest;whiteSpace=wrap;html=1;fontSize=12;" vertex="1" parent="p5YieNyIpPeS9HpQ7IXg-21">
          <mxGeometry y="248" width="240" height="32" as="geometry" />
        </mxCell>
        <mxCell id="p5YieNyIpPeS9HpQ7IXg-25" value="&amp;lt;&amp;lt;Boundary&amp;gt;&amp;gt;&lt;div style=&quot;font-size: 12px;&quot;&gt;Form chỉnh sửa tài khoản&lt;/div&gt;" style="swimlane;fontStyle=1;align=center;verticalAlign=top;childLayout=stackLayout;horizontal=1;startSize=40;horizontalStack=0;resizeParent=1;resizeParentMax=0;resizeLast=0;collapsible=1;marginBottom=0;whiteSpace=wrap;html=1;fontSize=12;" vertex="1" parent="1">
          <mxGeometry x="90" y="-830" width="240" height="280" as="geometry" />
        </mxCell>
        <mxCell id="p5YieNyIpPeS9HpQ7IXg-26" value="- Họ và tên: string&lt;div style=&quot;line-height: 24px;&quot;&gt;- Số điện thoại: string&lt;/div&gt;&lt;div style=&quot;line-height: 24px;&quot;&gt;- Địa chỉ: string&lt;/div&gt;&lt;div style=&quot;line-height: 24px;&quot;&gt;- Quê quán: string&lt;/div&gt;&lt;div style=&quot;line-height: 24px;&quot;&gt;- Vai trò: string&lt;/div&gt;&lt;div style=&quot;line-height: 24px;&quot;&gt;- Tên đăng nhập: string&lt;/div&gt;&lt;div style=&quot;line-height: 24px;&quot;&gt;- Mật khẩu: string&lt;/div&gt;&lt;div style=&quot;line-height: 24px;&quot;&gt;- Trạng thái: string&lt;/div&gt;" style="text;strokeColor=none;fillColor=none;align=left;verticalAlign=middle;spacingLeft=4;spacingRight=4;overflow=hidden;rotatable=0;points=[[0,0.5],[1,0.5]];portConstraint=eastwest;whiteSpace=wrap;html=1;spacingTop=2;horizontal=1;fontSize=12;" vertex="1" parent="p5YieNyIpPeS9HpQ7IXg-25">
          <mxGeometry y="40" width="240" height="200" as="geometry" />
        </mxCell>
        <mxCell id="p5YieNyIpPeS9HpQ7IXg-27" value="" style="line;strokeWidth=1;fillColor=none;align=left;verticalAlign=middle;spacingTop=-1;spacingLeft=3;spacingRight=3;rotatable=0;labelPosition=right;points=[];portConstraint=eastwest;strokeColor=inherit;fontSize=12;" vertex="1" parent="p5YieNyIpPeS9HpQ7IXg-25">
          <mxGeometry y="240" width="240" height="8" as="geometry" />
        </mxCell>
        <mxCell id="p5YieNyIpPeS9HpQ7IXg-28" value="+ Submit()" style="text;strokeColor=none;fillColor=none;align=left;verticalAlign=top;spacingLeft=4;spacingRight=4;overflow=hidden;rotatable=0;points=[[0,0.5],[1,0.5]];portConstraint=eastwest;whiteSpace=wrap;html=1;fontSize=12;" vertex="1" parent="p5YieNyIpPeS9HpQ7IXg-25">
          <mxGeometry y="248" width="240" height="32" as="geometry" />
        </mxCell>
        <mxCell id="p5YieNyIpPeS9HpQ7IXg-29" value="" style="endArrow=classic;html=1;rounded=0;exitX=0.479;exitY=1.003;exitDx=0;exitDy=0;entryX=0.5;entryY=0;entryDx=0;entryDy=0;exitPerimeter=0;" edge="1" parent="1" source="p5YieNyIpPeS9HpQ7IXg-14" target="aBuUrAB-tPdE4JArL_gd-6">
          <mxGeometry width="50" height="50" relative="1" as="geometry">
            <mxPoint x="240" y="80" as="sourcePoint" />
            <mxPoint x="290" y="30" as="targetPoint" />
          </mxGeometry>
        </mxCell>
        <mxCell id="p5YieNyIpPeS9HpQ7IXg-30" value="" style="endArrow=classic;html=1;rounded=0;exitX=0.433;exitY=1.096;exitDx=0;exitDy=0;entryX=0.5;entryY=0;entryDx=0;entryDy=0;exitPerimeter=0;" edge="1" parent="1" source="p5YieNyIpPeS9HpQ7IXg-18" target="p5YieNyIpPeS9HpQ7IXg-13">
          <mxGeometry width="50" height="50" relative="1" as="geometry">
            <mxPoint x="-151" y="-106" as="sourcePoint" />
            <mxPoint x="380" y="100" as="targetPoint" />
          </mxGeometry>
        </mxCell>
        <mxCell id="p5YieNyIpPeS9HpQ7IXg-31" value="" style="endArrow=classic;html=1;rounded=0;exitX=0.477;exitY=1.003;exitDx=0;exitDy=0;exitPerimeter=0;entryX=0.5;entryY=0;entryDx=0;entryDy=0;" edge="1" parent="1" source="p5YieNyIpPeS9HpQ7IXg-20" target="p5YieNyIpPeS9HpQ7IXg-13">
          <mxGeometry width="50" height="50" relative="1" as="geometry">
            <mxPoint x="-583" y="-397" as="sourcePoint" />
            <mxPoint x="-150" y="-310" as="targetPoint" />
          </mxGeometry>
        </mxCell>
        <mxCell id="p5YieNyIpPeS9HpQ7IXg-32" value="" style="endArrow=classic;html=1;rounded=0;exitX=0.533;exitY=0.984;exitDx=0;exitDy=0;exitPerimeter=0;" edge="1" parent="1" source="p5YieNyIpPeS9HpQ7IXg-24">
          <mxGeometry width="50" height="50" relative="1" as="geometry">
            <mxPoint x="-445" y="-539" as="sourcePoint" />
            <mxPoint x="-160" y="-320" as="targetPoint" />
          </mxGeometry>
        </mxCell>
        <mxCell id="p5YieNyIpPeS9HpQ7IXg-33" value="&lt;b&gt;&amp;lt;&amp;lt;Boundary&amp;gt;&amp;gt;&lt;/b&gt;&lt;div&gt;&lt;b&gt;Form xác nhận xóa tài khoản&lt;/b&gt;&lt;/div&gt;" style="swimlane;fontStyle=0;childLayout=stackLayout;horizontal=1;startSize=40;fillColor=none;horizontalStack=0;resizeParent=1;resizeParentMax=0;resizeLast=0;collapsible=1;marginBottom=0;whiteSpace=wrap;html=1;" vertex="1" parent="1">
          <mxGeometry x="100" y="-460" width="270" height="70" as="geometry">
            <mxRectangle x="-250" y="100" width="140" height="40" as="alternateBounds" />
          </mxGeometry>
        </mxCell>
        <mxCell id="p5YieNyIpPeS9HpQ7IXg-34" value="&lt;div&gt;+ Submit()&lt;/div&gt;" style="text;strokeColor=none;fillColor=none;align=left;verticalAlign=top;spacingLeft=4;spacingRight=4;overflow=hidden;rotatable=0;points=[[0,0.5],[1,0.5]];portConstraint=eastwest;whiteSpace=wrap;html=1;" vertex="1" parent="p5YieNyIpPeS9HpQ7IXg-33">
          <mxGeometry y="40" width="270" height="30" as="geometry" />
        </mxCell>
        <mxCell id="p5YieNyIpPeS9HpQ7IXg-35" value="" style="endArrow=classic;html=1;rounded=0;exitX=0.471;exitY=1.01;exitDx=0;exitDy=0;exitPerimeter=0;entryX=0.5;entryY=0;entryDx=0;entryDy=0;" edge="1" parent="1" source="p5YieNyIpPeS9HpQ7IXg-28" target="p5YieNyIpPeS9HpQ7IXg-13">
          <mxGeometry width="50" height="50" relative="1" as="geometry">
            <mxPoint x="-112" y="-541" as="sourcePoint" />
            <mxPoint x="-150" y="-310" as="targetPoint" />
          </mxGeometry>
        </mxCell>
        <mxCell id="p5YieNyIpPeS9HpQ7IXg-36" value="" style="endArrow=classic;html=1;rounded=0;exitX=0.549;exitY=1.025;exitDx=0;exitDy=0;exitPerimeter=0;entryX=0.5;entryY=0;entryDx=0;entryDy=0;" edge="1" parent="1" source="p5YieNyIpPeS9HpQ7IXg-34" target="p5YieNyIpPeS9HpQ7IXg-13">
          <mxGeometry width="50" height="50" relative="1" as="geometry">
            <mxPoint x="227" y="-537" as="sourcePoint" />
            <mxPoint x="-145" y="-310" as="targetPoint" />
          </mxGeometry>
        </mxCell>
        <mxCell id="p5YieNyIpPeS9HpQ7IXg-103" value="&lt;b&gt;&amp;lt;&amp;lt;Control&amp;gt;&amp;gt;&lt;/b&gt;&lt;div&gt;&lt;b&gt;Quản lý lô hàng&lt;/b&gt;&lt;/div&gt;" style="swimlane;fontStyle=0;childLayout=stackLayout;horizontal=1;startSize=40;fillColor=none;horizontalStack=0;resizeParent=1;resizeParentMax=0;resizeLast=0;collapsible=1;marginBottom=0;whiteSpace=wrap;html=1;" vertex="1" parent="1">
          <mxGeometry x="1860" y="-324" width="340" height="220" as="geometry">
            <mxRectangle x="-250" y="100" width="140" height="40" as="alternateBounds" />
          </mxGeometry>
        </mxCell>
        <mxCell id="p5YieNyIpPeS9HpQ7IXg-104" value="&lt;div style=&quot;text-align: justify; line-height: 24px;&quot;&gt;&lt;div style=&quot;line-height: 24px;&quot;&gt;&lt;span style=&quot;background-color: initial;&quot;&gt;+ Lấy danh sách lô hàng()&lt;/span&gt;&lt;/div&gt;&lt;div style=&quot;line-height: 24px;&quot;&gt;+ Lấy thông tin chi tiết lô hàng(Mã lô hàng)&lt;/div&gt;&lt;div style=&quot;line-height: 24px;&quot;&gt;+ Tìm kiếm lô hàng(Thông tin tìm kiếm)&lt;/div&gt;&lt;div style=&quot;line-height: 24px;&quot;&gt;+ Lưu thông tin lô hàng(Lô hàng)&lt;/div&gt;&lt;div style=&quot;line-height: 24px;&quot;&gt;+ Cập nhật thông tin lô hàng(Lô hàng)&lt;/div&gt;&lt;div style=&quot;line-height: 24px;&quot;&gt;+ Xóa thông tin lô hàng(Mã lô hàng)&lt;/div&gt;&lt;div style=&quot;line-height: 24px;&quot;&gt;&amp;nbsp;+&amp;nbsp;&lt;span style=&quot;text-align: left; background-color: initial;&quot;&gt;Kiểm tra thông tin trong form(Lô hàng)&lt;/span&gt;&lt;/div&gt;&lt;/div&gt;" style="text;strokeColor=none;fillColor=none;align=left;verticalAlign=top;spacingLeft=4;spacingRight=4;overflow=hidden;rotatable=0;points=[[0,0.5],[1,0.5]];portConstraint=eastwest;whiteSpace=wrap;html=1;" vertex="1" parent="p5YieNyIpPeS9HpQ7IXg-103">
          <mxGeometry y="40" width="340" height="180" as="geometry" />
        </mxCell>
        <mxCell id="p5YieNyIpPeS9HpQ7IXg-105" value="&lt;b&gt;&amp;lt;&amp;lt;Boundary&amp;gt;&amp;gt;&lt;/b&gt;&lt;div&gt;&lt;b&gt;Quản lý lô hàng&lt;/b&gt;&lt;br&gt;&lt;/div&gt;" style="swimlane;fontStyle=0;childLayout=stackLayout;horizontal=1;startSize=40;fillColor=none;horizontalStack=0;resizeParent=1;resizeParentMax=0;resizeLast=0;collapsible=1;marginBottom=0;whiteSpace=wrap;html=1;" vertex="1" parent="1">
          <mxGeometry x="1510" y="-484" width="300" height="70" as="geometry">
            <mxRectangle x="-250" y="100" width="140" height="40" as="alternateBounds" />
          </mxGeometry>
        </mxCell>
        <mxCell id="p5YieNyIpPeS9HpQ7IXg-106" value="&lt;div&gt;- Danh sách lô hàng: List&amp;lt;Lô hàng&amp;gt;&lt;/div&gt;" style="text;strokeColor=none;fillColor=none;align=left;verticalAlign=top;spacingLeft=4;spacingRight=4;overflow=hidden;rotatable=0;points=[[0,0.5],[1,0.5]];portConstraint=eastwest;whiteSpace=wrap;html=1;" vertex="1" parent="p5YieNyIpPeS9HpQ7IXg-105">
          <mxGeometry y="40" width="300" height="30" as="geometry" />
        </mxCell>
        <mxCell id="p5YieNyIpPeS9HpQ7IXg-107" value="&lt;b&gt;&amp;lt;&amp;lt;Boundary&amp;gt;&amp;gt;&lt;/b&gt;&lt;div&gt;&lt;b&gt;Thông tin chi tiết lô hàng&lt;/b&gt;&lt;/div&gt;" style="swimlane;fontStyle=0;childLayout=stackLayout;horizontal=1;startSize=40;fillColor=none;horizontalStack=0;resizeParent=1;resizeParentMax=0;resizeLast=0;collapsible=1;marginBottom=0;whiteSpace=wrap;html=1;" vertex="1" parent="1">
          <mxGeometry x="1600" y="-822" width="220" height="210" as="geometry">
            <mxRectangle x="-250" y="100" width="140" height="40" as="alternateBounds" />
          </mxGeometry>
        </mxCell>
        <mxCell id="p5YieNyIpPeS9HpQ7IXg-108" value="- Mã lô hàng: string&lt;div style=&quot;line-height: 24px;&quot;&gt;- Danh sách hàng hóa: List&amp;lt;Mã hàng hóa, đơn vị, số lượng, giá nhập, nhà cung cấp&amp;gt;&lt;div style=&quot;line-height: 24px;&quot;&gt;- Giá mua lô hàng: int&lt;/div&gt;&lt;div style=&quot;line-height: 24px;&quot;&gt;- Tên nhà cung cấp: string&lt;/div&gt;&lt;div style=&quot;line-height: 24px;&quot;&gt;- Ngày nhập: date&lt;/div&gt;&lt;/div&gt;" style="text;strokeColor=none;fillColor=none;align=left;verticalAlign=top;spacingLeft=4;spacingRight=4;overflow=hidden;rotatable=0;points=[[0,0.5],[1,0.5]];portConstraint=eastwest;whiteSpace=wrap;html=1;" vertex="1" parent="p5YieNyIpPeS9HpQ7IXg-107">
          <mxGeometry y="40" width="220" height="170" as="geometry" />
        </mxCell>
        <mxCell id="p5YieNyIpPeS9HpQ7IXg-109" value="&amp;lt;&amp;lt;Boundary&amp;gt;&amp;gt;&lt;div style=&quot;font-size: 12px;&quot;&gt;Form thêm mới lô hàng&lt;/div&gt;" style="swimlane;fontStyle=1;align=center;verticalAlign=top;childLayout=stackLayout;horizontal=1;startSize=40;horizontalStack=0;resizeParent=1;resizeParentMax=0;resizeLast=0;collapsible=1;marginBottom=0;whiteSpace=wrap;html=1;fontSize=12;" vertex="1" parent="1">
          <mxGeometry x="1880" y="-817" width="240" height="230" as="geometry" />
        </mxCell>
        <mxCell id="p5YieNyIpPeS9HpQ7IXg-110" value="- Mã lô hàng: string&lt;div style=&quot;line-height: 24px;&quot;&gt;- Danh sách hàng hóa: List&amp;lt;Mã hàng hóa, đơn vị, số lượng, giá nhập, nhà cung cấp&amp;gt;&lt;div style=&quot;line-height: 24px;&quot;&gt;- Giá mua lô hàng: int&lt;/div&gt;&lt;div style=&quot;line-height: 24px;&quot;&gt;- Tên nhà cung cấp: string&lt;/div&gt;&lt;div style=&quot;line-height: 24px;&quot;&gt;- Ngày nhập: date&lt;/div&gt;&lt;/div&gt;" style="text;strokeColor=none;fillColor=none;align=left;verticalAlign=middle;spacingLeft=4;spacingRight=4;overflow=hidden;rotatable=0;points=[[0,0.5],[1,0.5]];portConstraint=eastwest;whiteSpace=wrap;html=1;spacingTop=2;horizontal=1;fontSize=12;" vertex="1" parent="p5YieNyIpPeS9HpQ7IXg-109">
          <mxGeometry y="40" width="240" height="150" as="geometry" />
        </mxCell>
        <mxCell id="p5YieNyIpPeS9HpQ7IXg-111" value="" style="line;strokeWidth=1;fillColor=none;align=left;verticalAlign=middle;spacingTop=-1;spacingLeft=3;spacingRight=3;rotatable=0;labelPosition=right;points=[];portConstraint=eastwest;strokeColor=inherit;fontSize=12;" vertex="1" parent="p5YieNyIpPeS9HpQ7IXg-109">
          <mxGeometry y="190" width="240" height="8" as="geometry" />
        </mxCell>
        <mxCell id="p5YieNyIpPeS9HpQ7IXg-112" value="+ Submit()" style="text;strokeColor=none;fillColor=none;align=left;verticalAlign=top;spacingLeft=4;spacingRight=4;overflow=hidden;rotatable=0;points=[[0,0.5],[1,0.5]];portConstraint=eastwest;whiteSpace=wrap;html=1;fontSize=12;" vertex="1" parent="p5YieNyIpPeS9HpQ7IXg-109">
          <mxGeometry y="198" width="240" height="32" as="geometry" />
        </mxCell>
        <mxCell id="p5YieNyIpPeS9HpQ7IXg-113" value="&amp;lt;&amp;lt;Boundary&amp;gt;&amp;gt;&lt;div style=&quot;font-size: 12px;&quot;&gt;Form chỉnh sửa lô hàng&lt;/div&gt;" style="swimlane;fontStyle=1;align=center;verticalAlign=top;childLayout=stackLayout;horizontal=1;startSize=40;horizontalStack=0;resizeParent=1;resizeParentMax=0;resizeLast=0;collapsible=1;marginBottom=0;whiteSpace=wrap;html=1;fontSize=12;" vertex="1" parent="1">
          <mxGeometry x="2170" y="-807" width="240" height="220" as="geometry" />
        </mxCell>
        <mxCell id="p5YieNyIpPeS9HpQ7IXg-114" value="- Mã lô hàng: string&lt;div style=&quot;line-height: 24px;&quot;&gt;- Danh sách hàng hóa: List&amp;lt;Mã hàng hóa, đơn vị, số lượng, giá nhập, nhà cung cấp&amp;gt;&lt;div style=&quot;line-height: 24px;&quot;&gt;- Giá mua lô hàng: int&lt;/div&gt;&lt;div style=&quot;line-height: 24px;&quot;&gt;- Tên nhà cung cấp: string&lt;/div&gt;&lt;div style=&quot;line-height: 24px;&quot;&gt;- Ngày nhập: date&lt;/div&gt;&lt;/div&gt;" style="text;strokeColor=none;fillColor=none;align=left;verticalAlign=middle;spacingLeft=4;spacingRight=4;overflow=hidden;rotatable=0;points=[[0,0.5],[1,0.5]];portConstraint=eastwest;whiteSpace=wrap;html=1;spacingTop=2;horizontal=1;fontSize=12;" vertex="1" parent="p5YieNyIpPeS9HpQ7IXg-113">
          <mxGeometry y="40" width="240" height="140" as="geometry" />
        </mxCell>
        <mxCell id="p5YieNyIpPeS9HpQ7IXg-115" value="" style="line;strokeWidth=1;fillColor=none;align=left;verticalAlign=middle;spacingTop=-1;spacingLeft=3;spacingRight=3;rotatable=0;labelPosition=right;points=[];portConstraint=eastwest;strokeColor=inherit;fontSize=12;" vertex="1" parent="p5YieNyIpPeS9HpQ7IXg-113">
          <mxGeometry y="180" width="240" height="8" as="geometry" />
        </mxCell>
        <mxCell id="p5YieNyIpPeS9HpQ7IXg-116" value="+ Submit()" style="text;strokeColor=none;fillColor=none;align=left;verticalAlign=top;spacingLeft=4;spacingRight=4;overflow=hidden;rotatable=0;points=[[0,0.5],[1,0.5]];portConstraint=eastwest;whiteSpace=wrap;html=1;fontSize=12;" vertex="1" parent="p5YieNyIpPeS9HpQ7IXg-113">
          <mxGeometry y="188" width="240" height="32" as="geometry" />
        </mxCell>
        <mxCell id="p5YieNyIpPeS9HpQ7IXg-117" value="" style="endArrow=classic;html=1;rounded=0;exitX=0.452;exitY=0.991;exitDx=0;exitDy=0;entryX=0.5;entryY=0;entryDx=0;entryDy=0;exitPerimeter=0;" edge="1" parent="1" source="p5YieNyIpPeS9HpQ7IXg-106" target="p5YieNyIpPeS9HpQ7IXg-103">
          <mxGeometry width="50" height="50" relative="1" as="geometry">
            <mxPoint x="1999" y="-110" as="sourcePoint" />
            <mxPoint x="2530" y="96" as="targetPoint" />
          </mxGeometry>
        </mxCell>
        <mxCell id="p5YieNyIpPeS9HpQ7IXg-118" value="" style="endArrow=classic;html=1;rounded=0;exitX=0.477;exitY=1.003;exitDx=0;exitDy=0;exitPerimeter=0;entryX=0.5;entryY=0;entryDx=0;entryDy=0;" edge="1" parent="1" source="p5YieNyIpPeS9HpQ7IXg-108" target="p5YieNyIpPeS9HpQ7IXg-103">
          <mxGeometry width="50" height="50" relative="1" as="geometry">
            <mxPoint x="1567" y="-401" as="sourcePoint" />
            <mxPoint x="2000" y="-314" as="targetPoint" />
          </mxGeometry>
        </mxCell>
        <mxCell id="p5YieNyIpPeS9HpQ7IXg-119" value="" style="endArrow=classic;html=1;rounded=0;exitX=0.533;exitY=0.984;exitDx=0;exitDy=0;exitPerimeter=0;entryX=0.5;entryY=0;entryDx=0;entryDy=0;" edge="1" parent="1" source="p5YieNyIpPeS9HpQ7IXg-112" target="p5YieNyIpPeS9HpQ7IXg-103">
          <mxGeometry width="50" height="50" relative="1" as="geometry">
            <mxPoint x="1705" y="-543" as="sourcePoint" />
            <mxPoint x="1990" y="-324" as="targetPoint" />
          </mxGeometry>
        </mxCell>
        <mxCell id="p5YieNyIpPeS9HpQ7IXg-120" value="&lt;b&gt;&amp;lt;&amp;lt;Boundary&amp;gt;&amp;gt;&lt;/b&gt;&lt;div&gt;&lt;b&gt;Form xác nhận xóa lô hàng&lt;/b&gt;&lt;/div&gt;" style="swimlane;fontStyle=0;childLayout=stackLayout;horizontal=1;startSize=40;fillColor=none;horizontalStack=0;resizeParent=1;resizeParentMax=0;resizeLast=0;collapsible=1;marginBottom=0;whiteSpace=wrap;html=1;" vertex="1" parent="1">
          <mxGeometry x="2220" y="-464" width="270" height="70" as="geometry">
            <mxRectangle x="-250" y="100" width="140" height="40" as="alternateBounds" />
          </mxGeometry>
        </mxCell>
        <mxCell id="p5YieNyIpPeS9HpQ7IXg-121" value="&lt;div&gt;+ Submit()&lt;/div&gt;" style="text;strokeColor=none;fillColor=none;align=left;verticalAlign=top;spacingLeft=4;spacingRight=4;overflow=hidden;rotatable=0;points=[[0,0.5],[1,0.5]];portConstraint=eastwest;whiteSpace=wrap;html=1;" vertex="1" parent="p5YieNyIpPeS9HpQ7IXg-120">
          <mxGeometry y="40" width="270" height="30" as="geometry" />
        </mxCell>
        <mxCell id="p5YieNyIpPeS9HpQ7IXg-122" value="" style="endArrow=classic;html=1;rounded=0;exitX=0.471;exitY=1.01;exitDx=0;exitDy=0;exitPerimeter=0;entryX=0.5;entryY=0;entryDx=0;entryDy=0;" edge="1" parent="1" source="p5YieNyIpPeS9HpQ7IXg-116" target="p5YieNyIpPeS9HpQ7IXg-103">
          <mxGeometry width="50" height="50" relative="1" as="geometry">
            <mxPoint x="2038" y="-545" as="sourcePoint" />
            <mxPoint x="2000" y="-314" as="targetPoint" />
          </mxGeometry>
        </mxCell>
        <mxCell id="p5YieNyIpPeS9HpQ7IXg-123" value="" style="endArrow=classic;html=1;rounded=0;exitX=0.549;exitY=1.025;exitDx=0;exitDy=0;exitPerimeter=0;entryX=0.5;entryY=0;entryDx=0;entryDy=0;" edge="1" parent="1" source="p5YieNyIpPeS9HpQ7IXg-121" target="p5YieNyIpPeS9HpQ7IXg-103">
          <mxGeometry width="50" height="50" relative="1" as="geometry">
            <mxPoint x="2377" y="-541" as="sourcePoint" />
            <mxPoint x="2005" y="-314" as="targetPoint" />
          </mxGeometry>
        </mxCell>
        <mxCell id="p5YieNyIpPeS9HpQ7IXg-125" value="" style="endArrow=classic;html=1;rounded=0;exitX=0.484;exitY=0.994;exitDx=0;exitDy=0;exitPerimeter=0;entryX=0.5;entryY=0;entryDx=0;entryDy=0;" edge="1" parent="1" source="p5YieNyIpPeS9HpQ7IXg-104" target="aBuUrAB-tPdE4JArL_gd-14">
          <mxGeometry width="50" height="50" relative="1" as="geometry">
            <mxPoint x="2378" y="-383" as="sourcePoint" />
            <mxPoint x="2040" y="-314" as="targetPoint" />
          </mxGeometry>
        </mxCell>
        <mxCell id="p5YieNyIpPeS9HpQ7IXg-126" value="&lt;b&gt;&amp;lt;&amp;lt;Control&amp;gt;&amp;gt;&lt;/b&gt;&lt;div&gt;&lt;b&gt;Quản lý nhà cũng cấp&lt;/b&gt;&lt;/div&gt;" style="swimlane;fontStyle=0;childLayout=stackLayout;horizontal=1;startSize=40;fillColor=none;horizontalStack=0;resizeParent=1;resizeParentMax=0;resizeLast=0;collapsible=1;marginBottom=0;whiteSpace=wrap;html=1;" vertex="1" parent="1">
          <mxGeometry x="870" y="-324" width="340" height="220" as="geometry">
            <mxRectangle x="-250" y="100" width="140" height="40" as="alternateBounds" />
          </mxGeometry>
        </mxCell>
        <mxCell id="p5YieNyIpPeS9HpQ7IXg-127" value="&lt;div style=&quot;text-align: justify; line-height: 24px;&quot;&gt;&lt;div style=&quot;line-height: 24px;&quot;&gt;&lt;div style=&quot;line-height: 24px;&quot;&gt;&lt;span style=&quot;background-color: initial;&quot;&gt;+ Lấy danh sách nhà cung cấp()&lt;/span&gt;&lt;/div&gt;&lt;div style=&quot;line-height: 24px;&quot;&gt;+ Lấy thông tin chi tiết nhà cung cấp(Mã nhà cung cấp)&lt;/div&gt;&lt;div style=&quot;line-height: 24px;&quot;&gt;+ Tìm kiếm nhà cung cấp(Thông tin tìm kiếm)&lt;/div&gt;&lt;div style=&quot;line-height: 24px;&quot;&gt;+ Lưu thông tin nhà cung cấp(Nhà cung cấp)&lt;/div&gt;&lt;div style=&quot;line-height: 24px;&quot;&gt;+ Cập nhật thông tin nhà cung cấp(Nhà cung cấp)&lt;/div&gt;&lt;div style=&quot;line-height: 24px;&quot;&gt;+ Xóa thông tin nhà cung cấp(Mã nhà cung cấp)&lt;/div&gt;&lt;div style=&quot;line-height: 24px;&quot;&gt;+&amp;nbsp;&lt;span style=&quot;text-align: left; background-color: initial;&quot;&gt;Kiểm tra thông tin trong form(nhà cung cấp)&lt;/span&gt;&lt;/div&gt;&lt;/div&gt;&lt;/div&gt;" style="text;strokeColor=none;fillColor=none;align=left;verticalAlign=top;spacingLeft=4;spacingRight=4;overflow=hidden;rotatable=0;points=[[0,0.5],[1,0.5]];portConstraint=eastwest;whiteSpace=wrap;html=1;" vertex="1" parent="p5YieNyIpPeS9HpQ7IXg-126">
          <mxGeometry y="40" width="340" height="180" as="geometry" />
        </mxCell>
        <mxCell id="p5YieNyIpPeS9HpQ7IXg-128" value="&lt;b&gt;&amp;lt;&amp;lt;Boundary&amp;gt;&amp;gt;&lt;/b&gt;&lt;div&gt;&lt;b&gt;Quản lý&amp;nbsp;&lt;/b&gt;&lt;b style=&quot;background-color: initial;&quot;&gt;nhà cũng cấp&lt;/b&gt;&lt;br&gt;&lt;/div&gt;" style="swimlane;fontStyle=0;childLayout=stackLayout;horizontal=1;startSize=40;fillColor=none;horizontalStack=0;resizeParent=1;resizeParentMax=0;resizeLast=0;collapsible=1;marginBottom=0;whiteSpace=wrap;html=1;" vertex="1" parent="1">
          <mxGeometry x="520" y="-484" width="300" height="70" as="geometry">
            <mxRectangle x="-250" y="100" width="140" height="40" as="alternateBounds" />
          </mxGeometry>
        </mxCell>
        <mxCell id="p5YieNyIpPeS9HpQ7IXg-129" value="- Danh sách nhà cung cấp: List&amp;lt;Nhà cung cấp&amp;gt;" style="text;strokeColor=none;fillColor=none;align=left;verticalAlign=top;spacingLeft=4;spacingRight=4;overflow=hidden;rotatable=0;points=[[0,0.5],[1,0.5]];portConstraint=eastwest;whiteSpace=wrap;html=1;" vertex="1" parent="p5YieNyIpPeS9HpQ7IXg-128">
          <mxGeometry y="40" width="300" height="30" as="geometry" />
        </mxCell>
        <mxCell id="p5YieNyIpPeS9HpQ7IXg-130" value="&lt;b&gt;&amp;lt;&amp;lt;Boundary&amp;gt;&amp;gt;&lt;/b&gt;&lt;div&gt;&lt;b&gt;Thông tin chi tiết&amp;nbsp;&lt;/b&gt;&lt;b style=&quot;background-color: initial;&quot;&gt;nhà cũng cấp&lt;/b&gt;&lt;/div&gt;" style="swimlane;fontStyle=0;childLayout=stackLayout;horizontal=1;startSize=40;fillColor=none;horizontalStack=0;resizeParent=1;resizeParentMax=0;resizeLast=0;collapsible=1;marginBottom=0;whiteSpace=wrap;html=1;" vertex="1" parent="1">
          <mxGeometry x="620" y="-767" width="220" height="230" as="geometry">
            <mxRectangle x="-250" y="100" width="140" height="40" as="alternateBounds" />
          </mxGeometry>
        </mxCell>
        <mxCell id="p5YieNyIpPeS9HpQ7IXg-131" value="- Mã nhà cung cấp: string&lt;div style=&quot;line-height: 24px;&quot;&gt;- Tên nhà cung cấp: string&lt;div style=&quot;line-height: 24px;&quot;&gt;- Địa chỉ: string&lt;/div&gt;&lt;/div&gt;&lt;div style=&quot;line-height: 24px;&quot;&gt;- Số điện thoại: string&lt;/div&gt;&lt;div style=&quot;line-height: 24px;&quot;&gt;- Mã số thuế: string&lt;/div&gt;&lt;div style=&quot;line-height: 24px;&quot;&gt;- Email: string&lt;/div&gt;&lt;div style=&quot;line-height: 24px;&quot;&gt;- Website: string&lt;/div&gt;&lt;div style=&quot;line-height: 24px;&quot;&gt;- Ghi chú: string&lt;/div&gt;" style="text;strokeColor=none;fillColor=none;align=left;verticalAlign=top;spacingLeft=4;spacingRight=4;overflow=hidden;rotatable=0;points=[[0,0.5],[1,0.5]];portConstraint=eastwest;whiteSpace=wrap;html=1;" vertex="1" parent="p5YieNyIpPeS9HpQ7IXg-130">
          <mxGeometry y="40" width="220" height="190" as="geometry" />
        </mxCell>
        <mxCell id="p5YieNyIpPeS9HpQ7IXg-132" value="&amp;lt;&amp;lt;Boundary&amp;gt;&amp;gt;&lt;div style=&quot;font-size: 12px;&quot;&gt;Form thêm mới&amp;nbsp;&lt;b style=&quot;background-color: initial;&quot;&gt;nhà cũng cấp&lt;/b&gt;&lt;/div&gt;" style="swimlane;fontStyle=1;align=center;verticalAlign=top;childLayout=stackLayout;horizontal=1;startSize=40;horizontalStack=0;resizeParent=1;resizeParentMax=0;resizeLast=0;collapsible=1;marginBottom=0;whiteSpace=wrap;html=1;fontSize=12;" vertex="1" parent="1">
          <mxGeometry x="890" y="-817" width="240" height="270" as="geometry" />
        </mxCell>
        <mxCell id="p5YieNyIpPeS9HpQ7IXg-133" value="- Mã nhà cung cấp: string&lt;div style=&quot;line-height: 24px;&quot;&gt;- Tên nhà cung cấp: string&lt;div style=&quot;line-height: 24px;&quot;&gt;- Địa chỉ: string&lt;/div&gt;&lt;/div&gt;&lt;div style=&quot;line-height: 24px;&quot;&gt;- Số điện thoại: string&lt;/div&gt;&lt;div style=&quot;line-height: 24px;&quot;&gt;- Mã số thuế: string&lt;/div&gt;&lt;div style=&quot;line-height: 24px;&quot;&gt;- Email: string&lt;/div&gt;&lt;div style=&quot;line-height: 24px;&quot;&gt;- Website: string&lt;/div&gt;&lt;div style=&quot;line-height: 24px;&quot;&gt;- Ghi chú: string&lt;/div&gt;" style="text;strokeColor=none;fillColor=none;align=left;verticalAlign=middle;spacingLeft=4;spacingRight=4;overflow=hidden;rotatable=0;points=[[0,0.5],[1,0.5]];portConstraint=eastwest;whiteSpace=wrap;html=1;spacingTop=2;horizontal=1;fontSize=12;" vertex="1" parent="p5YieNyIpPeS9HpQ7IXg-132">
          <mxGeometry y="40" width="240" height="190" as="geometry" />
        </mxCell>
        <mxCell id="p5YieNyIpPeS9HpQ7IXg-134" value="" style="line;strokeWidth=1;fillColor=none;align=left;verticalAlign=middle;spacingTop=-1;spacingLeft=3;spacingRight=3;rotatable=0;labelPosition=right;points=[];portConstraint=eastwest;strokeColor=inherit;fontSize=12;" vertex="1" parent="p5YieNyIpPeS9HpQ7IXg-132">
          <mxGeometry y="230" width="240" height="8" as="geometry" />
        </mxCell>
        <mxCell id="p5YieNyIpPeS9HpQ7IXg-135" value="+ Submit()" style="text;strokeColor=none;fillColor=none;align=left;verticalAlign=top;spacingLeft=4;spacingRight=4;overflow=hidden;rotatable=0;points=[[0,0.5],[1,0.5]];portConstraint=eastwest;whiteSpace=wrap;html=1;fontSize=12;" vertex="1" parent="p5YieNyIpPeS9HpQ7IXg-132">
          <mxGeometry y="238" width="240" height="32" as="geometry" />
        </mxCell>
        <mxCell id="p5YieNyIpPeS9HpQ7IXg-136" value="&amp;lt;&amp;lt;Boundary&amp;gt;&amp;gt;&lt;div style=&quot;font-size: 12px;&quot;&gt;Form chỉnh sửa&amp;nbsp;&lt;b style=&quot;background-color: initial;&quot;&gt;nhà cũng cấp&lt;/b&gt;&lt;/div&gt;" style="swimlane;fontStyle=1;align=center;verticalAlign=top;childLayout=stackLayout;horizontal=1;startSize=40;horizontalStack=0;resizeParent=1;resizeParentMax=0;resizeLast=0;collapsible=1;marginBottom=0;whiteSpace=wrap;html=1;fontSize=12;" vertex="1" parent="1">
          <mxGeometry x="1180" y="-817" width="240" height="270" as="geometry" />
        </mxCell>
        <mxCell id="p5YieNyIpPeS9HpQ7IXg-137" value="- Mã nhà cung cấp: string&lt;div style=&quot;line-height: 24px;&quot;&gt;- Tên nhà cung cấp: string&lt;div style=&quot;line-height: 24px;&quot;&gt;- Địa chỉ: string&lt;/div&gt;&lt;/div&gt;&lt;div style=&quot;line-height: 24px;&quot;&gt;- Số điện thoại: string&lt;/div&gt;&lt;div style=&quot;line-height: 24px;&quot;&gt;- Mã số thuế: string&lt;/div&gt;&lt;div style=&quot;line-height: 24px;&quot;&gt;- Email: string&lt;/div&gt;&lt;div style=&quot;line-height: 24px;&quot;&gt;- Website: string&lt;/div&gt;&lt;div style=&quot;line-height: 24px;&quot;&gt;- Ghi chú: string&lt;/div&gt;" style="text;strokeColor=none;fillColor=none;align=left;verticalAlign=middle;spacingLeft=4;spacingRight=4;overflow=hidden;rotatable=0;points=[[0,0.5],[1,0.5]];portConstraint=eastwest;whiteSpace=wrap;html=1;spacingTop=2;horizontal=1;fontSize=12;" vertex="1" parent="p5YieNyIpPeS9HpQ7IXg-136">
          <mxGeometry y="40" width="240" height="190" as="geometry" />
        </mxCell>
        <mxCell id="p5YieNyIpPeS9HpQ7IXg-138" value="" style="line;strokeWidth=1;fillColor=none;align=left;verticalAlign=middle;spacingTop=-1;spacingLeft=3;spacingRight=3;rotatable=0;labelPosition=right;points=[];portConstraint=eastwest;strokeColor=inherit;fontSize=12;" vertex="1" parent="p5YieNyIpPeS9HpQ7IXg-136">
          <mxGeometry y="230" width="240" height="8" as="geometry" />
        </mxCell>
        <mxCell id="p5YieNyIpPeS9HpQ7IXg-139" value="+ Submit()" style="text;strokeColor=none;fillColor=none;align=left;verticalAlign=top;spacingLeft=4;spacingRight=4;overflow=hidden;rotatable=0;points=[[0,0.5],[1,0.5]];portConstraint=eastwest;whiteSpace=wrap;html=1;fontSize=12;" vertex="1" parent="p5YieNyIpPeS9HpQ7IXg-136">
          <mxGeometry y="238" width="240" height="32" as="geometry" />
        </mxCell>
        <mxCell id="p5YieNyIpPeS9HpQ7IXg-140" value="" style="endArrow=classic;html=1;rounded=0;exitX=0.452;exitY=0.991;exitDx=0;exitDy=0;entryX=0.5;entryY=0;entryDx=0;entryDy=0;exitPerimeter=0;" edge="1" parent="1" source="p5YieNyIpPeS9HpQ7IXg-129" target="p5YieNyIpPeS9HpQ7IXg-126">
          <mxGeometry width="50" height="50" relative="1" as="geometry">
            <mxPoint x="1009" y="-110" as="sourcePoint" />
            <mxPoint x="1540" y="96" as="targetPoint" />
          </mxGeometry>
        </mxCell>
        <mxCell id="p5YieNyIpPeS9HpQ7IXg-141" value="" style="endArrow=classic;html=1;rounded=0;exitX=0.477;exitY=1.003;exitDx=0;exitDy=0;exitPerimeter=0;entryX=0.5;entryY=0;entryDx=0;entryDy=0;" edge="1" parent="1" source="p5YieNyIpPeS9HpQ7IXg-131" target="p5YieNyIpPeS9HpQ7IXg-126">
          <mxGeometry width="50" height="50" relative="1" as="geometry">
            <mxPoint x="577" y="-401" as="sourcePoint" />
            <mxPoint x="1010" y="-314" as="targetPoint" />
          </mxGeometry>
        </mxCell>
        <mxCell id="p5YieNyIpPeS9HpQ7IXg-142" value="" style="endArrow=classic;html=1;rounded=0;exitX=0.533;exitY=0.984;exitDx=0;exitDy=0;exitPerimeter=0;entryX=0.5;entryY=0;entryDx=0;entryDy=0;" edge="1" parent="1" source="p5YieNyIpPeS9HpQ7IXg-135" target="p5YieNyIpPeS9HpQ7IXg-126">
          <mxGeometry width="50" height="50" relative="1" as="geometry">
            <mxPoint x="715" y="-543" as="sourcePoint" />
            <mxPoint x="1000" y="-324" as="targetPoint" />
          </mxGeometry>
        </mxCell>
        <mxCell id="p5YieNyIpPeS9HpQ7IXg-143" value="&lt;b&gt;&amp;lt;&amp;lt;Boundary&amp;gt;&amp;gt;&lt;/b&gt;&lt;div&gt;&lt;b&gt;Form xác nhận xóa&amp;nbsp;&lt;/b&gt;&lt;b style=&quot;background-color: initial;&quot;&gt;nhà cũng cấp&lt;/b&gt;&lt;/div&gt;" style="swimlane;fontStyle=0;childLayout=stackLayout;horizontal=1;startSize=40;fillColor=none;horizontalStack=0;resizeParent=1;resizeParentMax=0;resizeLast=0;collapsible=1;marginBottom=0;whiteSpace=wrap;html=1;" vertex="1" parent="1">
          <mxGeometry x="1230" y="-464" width="270" height="70" as="geometry">
            <mxRectangle x="-250" y="100" width="140" height="40" as="alternateBounds" />
          </mxGeometry>
        </mxCell>
        <mxCell id="p5YieNyIpPeS9HpQ7IXg-144" value="&lt;div&gt;+ Submit()&lt;/div&gt;" style="text;strokeColor=none;fillColor=none;align=left;verticalAlign=top;spacingLeft=4;spacingRight=4;overflow=hidden;rotatable=0;points=[[0,0.5],[1,0.5]];portConstraint=eastwest;whiteSpace=wrap;html=1;" vertex="1" parent="p5YieNyIpPeS9HpQ7IXg-143">
          <mxGeometry y="40" width="270" height="30" as="geometry" />
        </mxCell>
        <mxCell id="p5YieNyIpPeS9HpQ7IXg-145" value="" style="endArrow=classic;html=1;rounded=0;exitX=0.471;exitY=1.01;exitDx=0;exitDy=0;exitPerimeter=0;entryX=0.5;entryY=0;entryDx=0;entryDy=0;" edge="1" parent="1" source="p5YieNyIpPeS9HpQ7IXg-139" target="p5YieNyIpPeS9HpQ7IXg-126">
          <mxGeometry width="50" height="50" relative="1" as="geometry">
            <mxPoint x="1048" y="-545" as="sourcePoint" />
            <mxPoint x="1010" y="-314" as="targetPoint" />
          </mxGeometry>
        </mxCell>
        <mxCell id="p5YieNyIpPeS9HpQ7IXg-146" value="" style="endArrow=classic;html=1;rounded=0;exitX=0.549;exitY=1.025;exitDx=0;exitDy=0;exitPerimeter=0;entryX=0.5;entryY=0;entryDx=0;entryDy=0;" edge="1" parent="1" source="p5YieNyIpPeS9HpQ7IXg-144" target="p5YieNyIpPeS9HpQ7IXg-126">
          <mxGeometry width="50" height="50" relative="1" as="geometry">
            <mxPoint x="1387" y="-541" as="sourcePoint" />
            <mxPoint x="1015" y="-314" as="targetPoint" />
          </mxGeometry>
        </mxCell>
        <mxCell id="p5YieNyIpPeS9HpQ7IXg-147" value="" style="endArrow=classic;html=1;rounded=0;exitX=0.461;exitY=1.009;exitDx=0;exitDy=0;exitPerimeter=0;entryX=0.5;entryY=0;entryDx=0;entryDy=0;" edge="1" parent="1" source="p5YieNyIpPeS9HpQ7IXg-127" target="aBuUrAB-tPdE4JArL_gd-18">
          <mxGeometry width="50" height="50" relative="1" as="geometry">
            <mxPoint x="1388" y="-383" as="sourcePoint" />
            <mxPoint x="1050" y="-314" as="targetPoint" />
          </mxGeometry>
        </mxCell>
        <mxCell id="p5YieNyIpPeS9HpQ7IXg-149" value="&lt;span style=&quot;font-weight: 700;&quot;&gt;&amp;lt;&amp;lt;Entity&amp;gt;&amp;gt;&lt;/span&gt;&lt;div style=&quot;font-weight: 700;&quot;&gt;Khách hàng&lt;/div&gt;" style="swimlane;fontStyle=0;childLayout=stackLayout;horizontal=1;startSize=40;fillColor=none;horizontalStack=0;resizeParent=1;resizeParentMax=0;resizeLast=0;collapsible=1;marginBottom=0;whiteSpace=wrap;html=1;" vertex="1" parent="1">
          <mxGeometry x="3010" y="-347" width="290" height="220" as="geometry">
            <mxRectangle x="-250" y="100" width="140" height="40" as="alternateBounds" />
          </mxGeometry>
        </mxCell>
        <mxCell id="p5YieNyIpPeS9HpQ7IXg-150" value="&lt;div style=&quot;text-align: justify; line-height: 24px;&quot;&gt;&lt;div style=&quot;line-height: 24px;&quot;&gt;&lt;div style=&quot;line-height: 24px;&quot;&gt;&lt;div style=&quot;line-height: 24px;&quot;&gt;&lt;div style=&quot;line-height: 24px;&quot;&gt;&lt;span style=&quot;background-color: initial;&quot;&gt;+ Lấy danh sách khách hàng()&lt;/span&gt;&lt;/div&gt;&lt;div style=&quot;line-height: 24px;&quot;&gt;+ Lấy thông tin chi tiết khách hàng(Mã khách hàng)&lt;/div&gt;&lt;div style=&quot;line-height: 24px;&quot;&gt;+ Tìm kiếm khách hàng(Thông tin tìm kiếm)&lt;/div&gt;&lt;div style=&quot;line-height: 24px;&quot;&gt;+ Lưu thông tin khách hàng(Khách hàng)&lt;/div&gt;&lt;div style=&quot;line-height: 24px;&quot;&gt;+ Cập nhật thông tin khách hàng(Khách hàng)&lt;/div&gt;&lt;div style=&quot;line-height: 24px;&quot;&gt;+ Xóa thông tin khách hàng(Mã khách hàng)&lt;/div&gt;&lt;/div&gt;&lt;div style=&quot;line-height: 24px;&quot;&gt;+ Kiểm tra thông tin form(Khách hàng)&lt;/div&gt;&lt;/div&gt;&lt;/div&gt;&lt;/div&gt;" style="text;strokeColor=none;fillColor=none;align=left;verticalAlign=top;spacingLeft=4;spacingRight=4;overflow=hidden;rotatable=0;points=[[0,0.5],[1,0.5]];portConstraint=eastwest;whiteSpace=wrap;html=1;" vertex="1" parent="p5YieNyIpPeS9HpQ7IXg-149">
          <mxGeometry y="40" width="290" height="180" as="geometry" />
        </mxCell>
        <mxCell id="p5YieNyIpPeS9HpQ7IXg-163" value="" style="endArrow=classic;html=1;rounded=0;exitX=0.452;exitY=0.991;exitDx=0;exitDy=0;entryX=0.5;entryY=0;entryDx=0;entryDy=0;exitPerimeter=0;" edge="1" parent="1" target="p5YieNyIpPeS9HpQ7IXg-149">
          <mxGeometry width="50" height="50" relative="1" as="geometry">
            <mxPoint x="2763.96" y="-437.27" as="sourcePoint" />
            <mxPoint x="3680" y="73" as="targetPoint" />
          </mxGeometry>
        </mxCell>
        <mxCell id="p5YieNyIpPeS9HpQ7IXg-164" value="" style="endArrow=classic;html=1;rounded=0;exitX=0.477;exitY=1.003;exitDx=0;exitDy=0;exitPerimeter=0;entryX=0.5;entryY=0;entryDx=0;entryDy=0;" edge="1" parent="1" target="p5YieNyIpPeS9HpQ7IXg-149">
          <mxGeometry width="50" height="50" relative="1" as="geometry">
            <mxPoint x="2845.8599999999997" y="-559.4300000000001" as="sourcePoint" />
            <mxPoint x="3150" y="-337" as="targetPoint" />
          </mxGeometry>
        </mxCell>
        <mxCell id="p5YieNyIpPeS9HpQ7IXg-165" value="" style="endArrow=classic;html=1;rounded=0;exitX=0.533;exitY=0.984;exitDx=0;exitDy=0;exitPerimeter=0;entryX=0.5;entryY=0;entryDx=0;entryDy=0;" edge="1" parent="1" target="p5YieNyIpPeS9HpQ7IXg-149">
          <mxGeometry width="50" height="50" relative="1" as="geometry">
            <mxPoint x="3141.9299999999994" y="-570.512" as="sourcePoint" />
            <mxPoint x="3140" y="-347" as="targetPoint" />
          </mxGeometry>
        </mxCell>
        <mxCell id="p5YieNyIpPeS9HpQ7IXg-168" value="" style="endArrow=classic;html=1;rounded=0;exitX=0.471;exitY=1.01;exitDx=0;exitDy=0;exitPerimeter=0;entryX=0.5;entryY=0;entryDx=0;entryDy=0;" edge="1" parent="1" target="p5YieNyIpPeS9HpQ7IXg-149">
          <mxGeometry width="50" height="50" relative="1" as="geometry">
            <mxPoint x="3414.199999999999" y="-569.6799999999998" as="sourcePoint" />
            <mxPoint x="3150" y="-337" as="targetPoint" />
          </mxGeometry>
        </mxCell>
        <mxCell id="p5YieNyIpPeS9HpQ7IXg-169" value="" style="endArrow=classic;html=1;rounded=0;exitX=0.549;exitY=1.025;exitDx=0;exitDy=0;exitPerimeter=0;entryX=0.5;entryY=0;entryDx=0;entryDy=0;" edge="1" parent="1" target="p5YieNyIpPeS9HpQ7IXg-149">
          <mxGeometry width="50" height="50" relative="1" as="geometry">
            <mxPoint x="3490.7799999999997" y="-416.25" as="sourcePoint" />
            <mxPoint x="3155" y="-337" as="targetPoint" />
          </mxGeometry>
        </mxCell>
        <mxCell id="p5YieNyIpPeS9HpQ7IXg-171" value="" style="endArrow=classic;html=1;rounded=0;exitX=0.474;exitY=1.008;exitDx=0;exitDy=0;exitPerimeter=0;entryX=0.475;entryY=0.004;entryDx=0;entryDy=0;entryPerimeter=0;" edge="1" parent="1" source="p5YieNyIpPeS9HpQ7IXg-150" target="aBuUrAB-tPdE4JArL_gd-30">
          <mxGeometry width="50" height="50" relative="1" as="geometry">
            <mxPoint x="3481" y="-396" as="sourcePoint" />
            <mxPoint x="3135" y="-327" as="targetPoint" />
          </mxGeometry>
        </mxCell>
        <mxCell id="p5YieNyIpPeS9HpQ7IXg-172" value="&lt;b&gt;&amp;lt;&amp;lt;Control&amp;gt;&amp;gt;&lt;/b&gt;&lt;div&gt;&lt;b&gt;Quản lý phiếu xuất hủy&lt;/b&gt;&lt;/div&gt;" style="swimlane;fontStyle=0;childLayout=stackLayout;horizontal=1;startSize=40;fillColor=none;horizontalStack=0;resizeParent=1;resizeParentMax=0;resizeLast=0;collapsible=1;marginBottom=0;whiteSpace=wrap;html=1;" vertex="1" parent="1">
          <mxGeometry x="1120" y="1400" width="320" height="230" as="geometry">
            <mxRectangle x="-250" y="100" width="140" height="40" as="alternateBounds" />
          </mxGeometry>
        </mxCell>
        <mxCell id="p5YieNyIpPeS9HpQ7IXg-173" value="&lt;div style=&quot;text-align: justify; line-height: 24px;&quot;&gt;&lt;div style=&quot;line-height: 24px;&quot;&gt;&lt;div style=&quot;line-height: 24px;&quot;&gt;&lt;span style=&quot;background-color: initial;&quot;&gt;+ Lấy danh sách phiếu xuất hủy()&lt;/span&gt;&lt;/div&gt;&lt;div style=&quot;line-height: 24px;&quot;&gt;+ Lấy thông tin chi tiết phiếu xuất hủy(Mã phiếu xuất hủy)&lt;/div&gt;&lt;div style=&quot;line-height: 24px;&quot;&gt;+ Tìm kiếm phiếu xuất hủy(Thông tin tìm kiếm)&lt;/div&gt;&lt;div style=&quot;line-height: 24px;&quot;&gt;+ Lưu thông tin phiếu xuất hủy(Phiếu xuất hủy)&lt;/div&gt;&lt;div style=&quot;line-height: 24px;&quot;&gt;+ Cập nhật thông tin phiếu xuất hủy(Phiếu xuất hủy)&lt;/div&gt;&lt;div style=&quot;line-height: 24px;&quot;&gt;&lt;span style=&quot;background-color: initial;&quot;&gt;+ Xóa thông tin phiếu xuất hủy(Mã phiếu xuất hủy)&lt;/span&gt;&lt;/div&gt;&lt;div style=&quot;line-height: 24px;&quot;&gt;&lt;span style=&quot;background-color: initial;&quot;&gt;+&amp;nbsp;&lt;/span&gt;&lt;span style=&quot;background-color: initial; text-align: left;&quot;&gt;Kiểm tra thông tin trong form(Phiếu xuất hủy)&lt;/span&gt;&lt;br&gt;&lt;/div&gt;&lt;/div&gt;&lt;/div&gt;" style="text;strokeColor=none;fillColor=none;align=left;verticalAlign=top;spacingLeft=4;spacingRight=4;overflow=hidden;rotatable=0;points=[[0,0.5],[1,0.5]];portConstraint=eastwest;whiteSpace=wrap;html=1;" vertex="1" parent="p5YieNyIpPeS9HpQ7IXg-172">
          <mxGeometry y="40" width="320" height="190" as="geometry" />
        </mxCell>
        <mxCell id="p5YieNyIpPeS9HpQ7IXg-174" value="&lt;b&gt;&amp;lt;&amp;lt;Boundary&amp;gt;&amp;gt;&lt;/b&gt;&lt;div&gt;&lt;b&gt;Quản lý&amp;nbsp;&lt;/b&gt;&lt;b style=&quot;background-color: initial;&quot;&gt;phiếu xuất hủy&lt;/b&gt;&lt;br&gt;&lt;/div&gt;" style="swimlane;fontStyle=0;childLayout=stackLayout;horizontal=1;startSize=40;fillColor=none;horizontalStack=0;resizeParent=1;resizeParentMax=0;resizeLast=0;collapsible=1;marginBottom=0;whiteSpace=wrap;html=1;" vertex="1" parent="1">
          <mxGeometry x="775" y="1770" width="280" height="70" as="geometry">
            <mxRectangle x="-250" y="100" width="140" height="40" as="alternateBounds" />
          </mxGeometry>
        </mxCell>
        <mxCell id="p5YieNyIpPeS9HpQ7IXg-175" value="- Danh sách phiếu xuất hủy: List&amp;lt;Phiếu xuất hủy&amp;gt;" style="text;strokeColor=none;fillColor=none;align=left;verticalAlign=top;spacingLeft=4;spacingRight=4;overflow=hidden;rotatable=0;points=[[0,0.5],[1,0.5]];portConstraint=eastwest;whiteSpace=wrap;html=1;" vertex="1" parent="p5YieNyIpPeS9HpQ7IXg-174">
          <mxGeometry y="40" width="280" height="30" as="geometry" />
        </mxCell>
        <mxCell id="p5YieNyIpPeS9HpQ7IXg-176" value="&lt;b&gt;&amp;lt;&amp;lt;Boundary&amp;gt;&amp;gt;&lt;/b&gt;&lt;div&gt;&lt;b&gt;Thông tin chi tiết&amp;nbsp;&lt;/b&gt;&lt;b style=&quot;background-color: initial;&quot;&gt;phiếu xuất hủy&lt;/b&gt;&lt;/div&gt;" style="swimlane;fontStyle=0;childLayout=stackLayout;horizontal=1;startSize=40;fillColor=none;horizontalStack=0;resizeParent=1;resizeParentMax=0;resizeLast=0;collapsible=1;marginBottom=0;whiteSpace=wrap;html=1;" vertex="1" parent="1">
          <mxGeometry x="935" y="1900" width="200" height="210" as="geometry">
            <mxRectangle x="-250" y="100" width="140" height="40" as="alternateBounds" />
          </mxGeometry>
        </mxCell>
        <mxCell id="p5YieNyIpPeS9HpQ7IXg-177" value="- Mã phiếu xuất hủy: string&lt;div style=&quot;line-height: 24px;&quot;&gt;- Tên phiếu xuất hủy: string&lt;/div&gt;&lt;div style=&quot;line-height: 24px;&quot;&gt;- Ngày hủy: date&lt;/div&gt;&lt;div style=&quot;line-height: 24px;&quot;&gt;- Danh sách hàng hóa bị hủy: List&amp;lt;Mã hàng hóa, mã lô hàng, số lượng&amp;gt;&lt;/div&gt;&lt;div style=&quot;line-height: 24px;&quot;&gt;&lt;span style=&quot;background-color: initial;&quot;&gt;- Ghi chú: string&lt;/span&gt;&lt;/div&gt;" style="text;strokeColor=none;fillColor=none;align=left;verticalAlign=top;spacingLeft=4;spacingRight=4;overflow=hidden;rotatable=0;points=[[0,0.5],[1,0.5]];portConstraint=eastwest;whiteSpace=wrap;html=1;" vertex="1" parent="p5YieNyIpPeS9HpQ7IXg-176">
          <mxGeometry y="40" width="200" height="170" as="geometry" />
        </mxCell>
        <mxCell id="p5YieNyIpPeS9HpQ7IXg-178" value="&amp;lt;&amp;lt;Boundary&amp;gt;&amp;gt;&lt;div style=&quot;font-size: 12px;&quot;&gt;Form thêm mới&amp;nbsp;&lt;b style=&quot;background-color: initial;&quot;&gt;phiếu xuất hủy&lt;/b&gt;&lt;/div&gt;" style="swimlane;fontStyle=1;align=center;verticalAlign=top;childLayout=stackLayout;horizontal=1;startSize=40;horizontalStack=0;resizeParent=1;resizeParentMax=0;resizeLast=0;collapsible=1;marginBottom=0;whiteSpace=wrap;html=1;fontSize=12;" vertex="1" parent="1">
          <mxGeometry x="1175" y="1910" width="200" height="230" as="geometry" />
        </mxCell>
        <mxCell id="p5YieNyIpPeS9HpQ7IXg-179" value="&lt;div style=&quot;line-height: 24px;&quot;&gt;- Mã phiếu xuất hủy: string&lt;div style=&quot;line-height: 24px;&quot;&gt;- Tên phiếu xuất hủy: string&lt;/div&gt;&lt;div style=&quot;line-height: 24px;&quot;&gt;- Ngày hủy: date&lt;/div&gt;&lt;div style=&quot;line-height: 24px;&quot;&gt;- Danh sách hàng hóa bị hủy: List&amp;lt;Mã hàng hóa, mã lô hàng, số lượng&amp;gt;&lt;/div&gt;&lt;div style=&quot;line-height: 24px;&quot;&gt;&lt;span style=&quot;background-color: initial;&quot;&gt;- Ghi chú: string&lt;/span&gt;&lt;/div&gt;&lt;/div&gt;" style="text;strokeColor=none;fillColor=none;align=left;verticalAlign=middle;spacingLeft=4;spacingRight=4;overflow=hidden;rotatable=0;points=[[0,0.5],[1,0.5]];portConstraint=eastwest;whiteSpace=wrap;html=1;spacingTop=2;horizontal=1;fontSize=12;" vertex="1" parent="p5YieNyIpPeS9HpQ7IXg-178">
          <mxGeometry y="40" width="200" height="150" as="geometry" />
        </mxCell>
        <mxCell id="p5YieNyIpPeS9HpQ7IXg-180" value="" style="line;strokeWidth=1;fillColor=none;align=left;verticalAlign=middle;spacingTop=-1;spacingLeft=3;spacingRight=3;rotatable=0;labelPosition=right;points=[];portConstraint=eastwest;strokeColor=inherit;fontSize=12;" vertex="1" parent="p5YieNyIpPeS9HpQ7IXg-178">
          <mxGeometry y="190" width="200" height="8" as="geometry" />
        </mxCell>
        <mxCell id="p5YieNyIpPeS9HpQ7IXg-181" value="+ Submit()" style="text;strokeColor=none;fillColor=none;align=left;verticalAlign=top;spacingLeft=4;spacingRight=4;overflow=hidden;rotatable=0;points=[[0,0.5],[1,0.5]];portConstraint=eastwest;whiteSpace=wrap;html=1;fontSize=12;" vertex="1" parent="p5YieNyIpPeS9HpQ7IXg-178">
          <mxGeometry y="198" width="200" height="32" as="geometry" />
        </mxCell>
        <mxCell id="p5YieNyIpPeS9HpQ7IXg-182" value="&amp;lt;&amp;lt;Boundary&amp;gt;&amp;gt;&lt;div style=&quot;font-size: 12px;&quot;&gt;Form chỉnh sửa&amp;nbsp;&lt;b style=&quot;background-color: initial;&quot;&gt;phiếu xuất hủy&lt;/b&gt;&lt;/div&gt;" style="swimlane;fontStyle=1;align=center;verticalAlign=top;childLayout=stackLayout;horizontal=1;startSize=40;horizontalStack=0;resizeParent=1;resizeParentMax=0;resizeLast=0;collapsible=1;marginBottom=0;whiteSpace=wrap;html=1;fontSize=12;" vertex="1" parent="1">
          <mxGeometry x="1445" y="1910" width="200" height="240" as="geometry" />
        </mxCell>
        <mxCell id="p5YieNyIpPeS9HpQ7IXg-183" value="- Mã phiếu xuất hủy: string&lt;div style=&quot;line-height: 24px;&quot;&gt;- Tên phiếu xuất hủy: string&lt;/div&gt;&lt;div style=&quot;line-height: 24px;&quot;&gt;- Ngày hủy: date&lt;/div&gt;&lt;div style=&quot;line-height: 24px;&quot;&gt;- Danh sách hàng hóa bị hủy: List&amp;lt;Mã hàng hóa, mã lô hàng, số lượng&amp;gt;&lt;/div&gt;&lt;div style=&quot;line-height: 24px;&quot;&gt;&lt;span style=&quot;background-color: initial;&quot;&gt;- Ghi chú: string&lt;/span&gt;&lt;/div&gt;" style="text;strokeColor=none;fillColor=none;align=left;verticalAlign=middle;spacingLeft=4;spacingRight=4;overflow=hidden;rotatable=0;points=[[0,0.5],[1,0.5]];portConstraint=eastwest;whiteSpace=wrap;html=1;spacingTop=2;horizontal=1;fontSize=12;" vertex="1" parent="p5YieNyIpPeS9HpQ7IXg-182">
          <mxGeometry y="40" width="200" height="160" as="geometry" />
        </mxCell>
        <mxCell id="p5YieNyIpPeS9HpQ7IXg-184" value="" style="line;strokeWidth=1;fillColor=none;align=left;verticalAlign=middle;spacingTop=-1;spacingLeft=3;spacingRight=3;rotatable=0;labelPosition=right;points=[];portConstraint=eastwest;strokeColor=inherit;fontSize=12;" vertex="1" parent="p5YieNyIpPeS9HpQ7IXg-182">
          <mxGeometry y="200" width="200" height="8" as="geometry" />
        </mxCell>
        <mxCell id="p5YieNyIpPeS9HpQ7IXg-185" value="+ Submit()" style="text;strokeColor=none;fillColor=none;align=left;verticalAlign=top;spacingLeft=4;spacingRight=4;overflow=hidden;rotatable=0;points=[[0,0.5],[1,0.5]];portConstraint=eastwest;whiteSpace=wrap;html=1;fontSize=12;" vertex="1" parent="p5YieNyIpPeS9HpQ7IXg-182">
          <mxGeometry y="208" width="200" height="32" as="geometry" />
        </mxCell>
        <mxCell id="p5YieNyIpPeS9HpQ7IXg-186" value="" style="endArrow=classic;html=1;rounded=0;exitX=0.5;exitY=0;exitDx=0;exitDy=0;entryX=0.453;entryY=1;entryDx=0;entryDy=0;entryPerimeter=0;" edge="1" parent="1" source="p5YieNyIpPeS9HpQ7IXg-174" target="p5YieNyIpPeS9HpQ7IXg-173">
          <mxGeometry width="50" height="50" relative="1" as="geometry">
            <mxPoint x="1534" y="2427" as="sourcePoint" />
            <mxPoint x="2065" y="2633" as="targetPoint" />
          </mxGeometry>
        </mxCell>
        <mxCell id="p5YieNyIpPeS9HpQ7IXg-187" value="" style="endArrow=classic;html=1;rounded=0;exitX=0.5;exitY=0;exitDx=0;exitDy=0;entryX=0.467;entryY=0.994;entryDx=0;entryDy=0;entryPerimeter=0;" edge="1" parent="1" source="p5YieNyIpPeS9HpQ7IXg-176" target="p5YieNyIpPeS9HpQ7IXg-173">
          <mxGeometry width="50" height="50" relative="1" as="geometry">
            <mxPoint x="1102" y="2136" as="sourcePoint" />
            <mxPoint x="1535" y="2223" as="targetPoint" />
          </mxGeometry>
        </mxCell>
        <mxCell id="p5YieNyIpPeS9HpQ7IXg-188" value="" style="endArrow=classic;html=1;rounded=0;exitX=0.5;exitY=0;exitDx=0;exitDy=0;entryX=0.467;entryY=1.001;entryDx=0;entryDy=0;entryPerimeter=0;" edge="1" parent="1" source="p5YieNyIpPeS9HpQ7IXg-178" target="p5YieNyIpPeS9HpQ7IXg-173">
          <mxGeometry width="50" height="50" relative="1" as="geometry">
            <mxPoint x="1240" y="1994" as="sourcePoint" />
            <mxPoint x="1275" y="1635" as="targetPoint" />
          </mxGeometry>
        </mxCell>
        <mxCell id="p5YieNyIpPeS9HpQ7IXg-189" value="&lt;b&gt;&amp;lt;&amp;lt;Boundary&amp;gt;&amp;gt;&lt;/b&gt;&lt;div&gt;&lt;b&gt;Form xác nhận xóa&amp;nbsp;&lt;/b&gt;&lt;b style=&quot;background-color: initial;&quot;&gt;phiếu xuất hủy&lt;/b&gt;&lt;/div&gt;" style="swimlane;fontStyle=0;childLayout=stackLayout;horizontal=1;startSize=40;fillColor=none;horizontalStack=0;resizeParent=1;resizeParentMax=0;resizeLast=0;collapsible=1;marginBottom=0;whiteSpace=wrap;html=1;" vertex="1" parent="1">
          <mxGeometry x="1505" y="1770" width="220" height="70" as="geometry">
            <mxRectangle x="-250" y="100" width="140" height="40" as="alternateBounds" />
          </mxGeometry>
        </mxCell>
        <mxCell id="p5YieNyIpPeS9HpQ7IXg-190" value="&lt;div&gt;+ Submit()&lt;/div&gt;" style="text;strokeColor=none;fillColor=none;align=left;verticalAlign=top;spacingLeft=4;spacingRight=4;overflow=hidden;rotatable=0;points=[[0,0.5],[1,0.5]];portConstraint=eastwest;whiteSpace=wrap;html=1;" vertex="1" parent="p5YieNyIpPeS9HpQ7IXg-189">
          <mxGeometry y="40" width="220" height="30" as="geometry" />
        </mxCell>
        <mxCell id="p5YieNyIpPeS9HpQ7IXg-191" value="" style="endArrow=classic;html=1;rounded=0;exitX=0.5;exitY=0;exitDx=0;exitDy=0;entryX=0.463;entryY=1;entryDx=0;entryDy=0;entryPerimeter=0;" edge="1" parent="1" source="p5YieNyIpPeS9HpQ7IXg-182" target="p5YieNyIpPeS9HpQ7IXg-173">
          <mxGeometry width="50" height="50" relative="1" as="geometry">
            <mxPoint x="1573" y="1992" as="sourcePoint" />
            <mxPoint x="1275" y="1635" as="targetPoint" />
          </mxGeometry>
        </mxCell>
        <mxCell id="p5YieNyIpPeS9HpQ7IXg-192" value="" style="endArrow=classic;html=1;rounded=0;exitX=0.5;exitY=0;exitDx=0;exitDy=0;entryX=0.467;entryY=1.004;entryDx=0;entryDy=0;entryPerimeter=0;" edge="1" parent="1" source="p5YieNyIpPeS9HpQ7IXg-189" target="p5YieNyIpPeS9HpQ7IXg-173">
          <mxGeometry width="50" height="50" relative="1" as="geometry">
            <mxPoint x="1912" y="1996" as="sourcePoint" />
            <mxPoint x="1265" y="1625" as="targetPoint" />
          </mxGeometry>
        </mxCell>
        <mxCell id="p5YieNyIpPeS9HpQ7IXg-193" value="" style="endArrow=classic;html=1;rounded=0;exitX=0.5;exitY=0;exitDx=0;exitDy=0;entryX=0.519;entryY=1;entryDx=0;entryDy=0;entryPerimeter=0;" edge="1" parent="1" source="p5YieNyIpPeS9HpQ7IXg-172" target="aBuUrAB-tPdE4JArL_gd-25">
          <mxGeometry width="50" height="50" relative="1" as="geometry">
            <mxPoint x="1224" y="1890" as="sourcePoint" />
            <mxPoint x="690" y="1590" as="targetPoint" />
          </mxGeometry>
        </mxCell>
        <mxCell id="dvYaSBP2tjCflmMUl2TN-23" value="&lt;b&gt;&amp;lt;&amp;lt;Control&amp;gt;&amp;gt;&lt;/b&gt;&lt;div&gt;&lt;b&gt;Quản lý hóa đơn&lt;/b&gt;&lt;/div&gt;" style="swimlane;fontStyle=2;childLayout=stackLayout;horizontal=1;startSize=40;fillColor=none;horizontalStack=0;resizeParent=1;resizeParentMax=0;resizeLast=0;collapsible=1;marginBottom=0;whiteSpace=wrap;html=1;" vertex="1" parent="1">
          <mxGeometry x="3020" y="1110" width="260" height="120" as="geometry">
            <mxRectangle x="-250" y="100" width="140" height="40" as="alternateBounds" />
          </mxGeometry>
        </mxCell>
        <mxCell id="dvYaSBP2tjCflmMUl2TN-24" value="&lt;div style=&quot;text-align: justify; line-height: 24px;&quot;&gt;&lt;div style=&quot;line-height: 24px;&quot;&gt;&lt;div style=&quot;line-height: 24px;&quot;&gt;&lt;div style=&quot;font-style: normal; line-height: 24px;&quot;&gt;&lt;div style=&quot;line-height: 24px;&quot;&gt;+ Lưu hóa đơn(hóa đơn)&lt;/div&gt;&lt;div style=&quot;line-height: 24px;&quot;&gt;+ Lấy danh sách hóa đơn(hóa đơn)&lt;/div&gt;&lt;div style=&quot;line-height: 24px;&quot;&gt;+ Xem chi tiết hóa đơn&lt;/div&gt;&lt;/div&gt;&lt;/div&gt;&lt;/div&gt;&lt;/div&gt;" style="text;strokeColor=none;fillColor=none;align=left;verticalAlign=top;spacingLeft=4;spacingRight=4;overflow=hidden;rotatable=0;points=[[0,0.5],[1,0.5]];portConstraint=eastwest;whiteSpace=wrap;html=1;fontStyle=2" vertex="1" parent="dvYaSBP2tjCflmMUl2TN-23">
          <mxGeometry y="40" width="260" height="80" as="geometry" />
        </mxCell>
        <mxCell id="dvYaSBP2tjCflmMUl2TN-29" value="&amp;lt;&amp;lt;Boundary&amp;gt;&amp;gt;&lt;div style=&quot;font-size: 12px;&quot;&gt;Form tạo hóa đơn&lt;/div&gt;" style="swimlane;fontStyle=1;align=center;verticalAlign=middle;childLayout=stackLayout;horizontal=1;startSize=40;horizontalStack=0;resizeParent=1;resizeParentMax=0;resizeLast=0;collapsible=1;marginBottom=0;whiteSpace=wrap;html=1;fontSize=12;" vertex="1" parent="1">
          <mxGeometry x="2715" y="1400" width="260" height="250" as="geometry" />
        </mxCell>
        <mxCell id="dvYaSBP2tjCflmMUl2TN-30" value="- Mã hóa đơn: string&lt;div style=&quot;line-height: 24px;&quot;&gt;- Mã khách hàng: string&lt;/div&gt;&lt;div style=&quot;line-height: 24px;&quot;&gt;- Danh sách sản phẩm: List&amp;lt;Mã hàng hóa, Mã lô hàng, giá bán, số lượng, đơn vị&amp;gt;&lt;/div&gt;&lt;div style=&quot;line-height: 24px;&quot;&gt;- Thời gian xuất hóa đơn: datetime&lt;/div&gt;&lt;div style=&quot;line-height: 24px;&quot;&gt;- Tổng tiền: int&lt;/div&gt;&lt;div style=&quot;line-height: 24px;&quot;&gt;- Địa chỉ cửa hàng: string&lt;/div&gt;" style="text;strokeColor=none;fillColor=none;align=left;verticalAlign=middle;spacingLeft=4;spacingRight=4;overflow=hidden;rotatable=0;points=[[0,0.5],[1,0.5]];portConstraint=eastwest;whiteSpace=wrap;html=1;spacingTop=2;horizontal=1;fontSize=12;" vertex="1" parent="dvYaSBP2tjCflmMUl2TN-29">
          <mxGeometry y="40" width="260" height="170" as="geometry" />
        </mxCell>
        <mxCell id="dvYaSBP2tjCflmMUl2TN-31" value="" style="line;strokeWidth=1;fillColor=none;align=left;verticalAlign=middle;spacingTop=-1;spacingLeft=3;spacingRight=3;rotatable=0;labelPosition=right;points=[];portConstraint=eastwest;strokeColor=inherit;fontSize=12;" vertex="1" parent="dvYaSBP2tjCflmMUl2TN-29">
          <mxGeometry y="210" width="260" height="8" as="geometry" />
        </mxCell>
        <mxCell id="dvYaSBP2tjCflmMUl2TN-32" value="+ Submit()" style="text;strokeColor=none;fillColor=none;align=left;verticalAlign=middle;spacingLeft=4;spacingRight=4;overflow=hidden;rotatable=0;points=[[0,0.5],[1,0.5]];portConstraint=eastwest;whiteSpace=wrap;html=1;fontSize=12;" vertex="1" parent="dvYaSBP2tjCflmMUl2TN-29">
          <mxGeometry y="218" width="260" height="32" as="geometry" />
        </mxCell>
        <mxCell id="dvYaSBP2tjCflmMUl2TN-39" value="" style="endArrow=classic;html=1;rounded=0;exitX=0.5;exitY=0;exitDx=0;exitDy=0;entryX=0.46;entryY=1.009;entryDx=0;entryDy=0;entryPerimeter=0;" edge="1" parent="1" source="dvYaSBP2tjCflmMUl2TN-29" target="dvYaSBP2tjCflmMUl2TN-24">
          <mxGeometry width="50" height="50" relative="1" as="geometry">
            <mxPoint x="3140" y="1704" as="sourcePoint" />
            <mxPoint x="3165" y="1330" as="targetPoint" />
          </mxGeometry>
        </mxCell>
        <mxCell id="dvYaSBP2tjCflmMUl2TN-44" value="" style="endArrow=classic;html=1;rounded=0;exitX=0.5;exitY=0;exitDx=0;exitDy=0;" edge="1" parent="1" source="dvYaSBP2tjCflmMUl2TN-23" target="Pjqkww6uHoSa5I9ibUBh-8">
          <mxGeometry width="50" height="50" relative="1" as="geometry">
            <mxPoint x="3480" y="1480" as="sourcePoint" />
            <mxPoint x="3803" y="1330" as="targetPoint" />
          </mxGeometry>
        </mxCell>
        <mxCell id="dvYaSBP2tjCflmMUl2TN-46" value="" style="endArrow=classic;html=1;rounded=0;exitX=0.5;exitY=0;exitDx=0;exitDy=0;entryX=1.009;entryY=0.653;entryDx=0;entryDy=0;entryPerimeter=0;" edge="1" parent="1" source="dvYaSBP2tjCflmMUl2TN-23" target="Pjqkww6uHoSa5I9ibUBh-2">
          <mxGeometry width="50" height="50" relative="1" as="geometry">
            <mxPoint x="3800" y="1010" as="sourcePoint" />
            <mxPoint x="2934" y="920" as="targetPoint" />
          </mxGeometry>
        </mxCell>
        <mxCell id="dvYaSBP2tjCflmMUl2TN-48" value="&lt;b&gt;&amp;lt;&amp;lt;Control&amp;gt;&amp;gt;&lt;/b&gt;&lt;div&gt;&lt;b&gt;Quản lý hàng hóa&lt;/b&gt;&lt;/div&gt;" style="swimlane;fontStyle=0;childLayout=stackLayout;horizontal=1;startSize=40;fillColor=none;horizontalStack=0;resizeParent=1;resizeParentMax=0;resizeLast=0;collapsible=1;marginBottom=0;whiteSpace=wrap;html=1;" vertex="1" parent="1">
          <mxGeometry x="2275" y="1390" width="320" height="220" as="geometry">
            <mxRectangle x="-250" y="100" width="140" height="40" as="alternateBounds" />
          </mxGeometry>
        </mxCell>
        <mxCell id="dvYaSBP2tjCflmMUl2TN-49" value="&lt;div style=&quot;text-align: justify; line-height: 24px;&quot;&gt;&lt;div style=&quot;line-height: 24px;&quot;&gt;&lt;div style=&quot;line-height: 24px;&quot;&gt;&lt;div style=&quot;line-height: 24px;&quot;&gt;&lt;div style=&quot;line-height: 24px;&quot;&gt;&lt;div style=&quot;line-height: 24px;&quot;&gt;&lt;span style=&quot;background-color: initial;&quot;&gt;+ Lấy danh sách hàng hóa()&lt;/span&gt;&lt;/div&gt;&lt;div style=&quot;line-height: 24px;&quot;&gt;+ Lấy thông tin chi tiết hàng hóa(Mã hàng hóa)&lt;/div&gt;&lt;div style=&quot;line-height: 24px;&quot;&gt;+ Tìm kiếm hàng hóa(Thông tin tìm kiếm)&lt;/div&gt;&lt;div style=&quot;line-height: 24px;&quot;&gt;+ Lưu thông tin hàng hóa(Hàng hóa)&lt;/div&gt;&lt;div style=&quot;line-height: 24px;&quot;&gt;+ Cập nhật thông tin hàng hóa(Hàng hóa)&lt;/div&gt;&lt;div style=&quot;line-height: 24px;&quot;&gt;&lt;span style=&quot;background-color: initial;&quot;&gt;+ Xóa thông tin hàng hóa(Mã hàng hóa)&lt;/span&gt;&lt;/div&gt;&lt;div style=&quot;line-height: 24px;&quot;&gt;&lt;span style=&quot;background-color: initial;&quot;&gt;+&amp;nbsp;&lt;/span&gt;&lt;span style=&quot;background-color: initial; text-align: left;&quot;&gt;Kiểm tra thông tin trong form(Hàng hóa)&lt;/span&gt;&lt;/div&gt;&lt;/div&gt;&lt;/div&gt;&lt;/div&gt;&lt;/div&gt;&lt;/div&gt;" style="text;strokeColor=none;fillColor=none;align=left;verticalAlign=top;spacingLeft=4;spacingRight=4;overflow=hidden;rotatable=0;points=[[0,0.5],[1,0.5]];portConstraint=eastwest;whiteSpace=wrap;html=1;" vertex="1" parent="dvYaSBP2tjCflmMUl2TN-48">
          <mxGeometry y="40" width="320" height="180" as="geometry" />
        </mxCell>
        <mxCell id="dvYaSBP2tjCflmMUl2TN-50" value="&lt;b&gt;&amp;lt;&amp;lt;Boundary&amp;gt;&amp;gt;&lt;/b&gt;&lt;div&gt;&lt;b&gt;Quản lý hàng hóa&lt;/b&gt;&lt;br&gt;&lt;/div&gt;" style="swimlane;fontStyle=0;childLayout=stackLayout;horizontal=1;startSize=40;fillColor=none;horizontalStack=0;resizeParent=1;resizeParentMax=0;resizeLast=0;collapsible=1;marginBottom=0;whiteSpace=wrap;html=1;" vertex="1" parent="1">
          <mxGeometry x="1930" y="1760" width="250" height="70" as="geometry">
            <mxRectangle x="-250" y="100" width="140" height="40" as="alternateBounds" />
          </mxGeometry>
        </mxCell>
        <mxCell id="dvYaSBP2tjCflmMUl2TN-51" value="- Danh sách hàng hóa: List&amp;lt;Hàng hóa&amp;gt;" style="text;strokeColor=none;fillColor=none;align=left;verticalAlign=top;spacingLeft=4;spacingRight=4;overflow=hidden;rotatable=0;points=[[0,0.5],[1,0.5]];portConstraint=eastwest;whiteSpace=wrap;html=1;" vertex="1" parent="dvYaSBP2tjCflmMUl2TN-50">
          <mxGeometry y="40" width="250" height="30" as="geometry" />
        </mxCell>
        <mxCell id="dvYaSBP2tjCflmMUl2TN-52" value="&lt;b&gt;&amp;lt;&amp;lt;Boundary&amp;gt;&amp;gt;&lt;/b&gt;&lt;div&gt;&lt;b&gt;Thông tin chi tiết hàng hóa&lt;/b&gt;&lt;/div&gt;" style="swimlane;fontStyle=0;childLayout=stackLayout;horizontal=1;startSize=40;fillColor=none;horizontalStack=0;resizeParent=1;resizeParentMax=0;resizeLast=0;collapsible=1;marginBottom=0;whiteSpace=wrap;html=1;" vertex="1" parent="1">
          <mxGeometry x="2090" y="1890" width="200" height="300" as="geometry">
            <mxRectangle x="-250" y="100" width="140" height="40" as="alternateBounds" />
          </mxGeometry>
        </mxCell>
        <mxCell id="dvYaSBP2tjCflmMUl2TN-53" value="- Mã hàng hóa: string&lt;div style=&quot;line-height: 24px;&quot;&gt;&lt;div style=&quot;line-height: 24px;&quot;&gt;- Mã lô hàng: string&lt;br&gt;&lt;div style=&quot;line-height: 24px;&quot;&gt;- Tên hàng hóa: string&lt;/div&gt;&lt;div style=&quot;line-height: 24px;&quot;&gt;- Đơn vị: string&lt;/div&gt;&lt;div style=&quot;line-height: 24px;&quot;&gt;- Số lượng: int&lt;/div&gt;&lt;div style=&quot;line-height: 24px;&quot;&gt;- Giá mua: int&lt;br&gt;- Giá bán: int&lt;/div&gt;&lt;div style=&quot;line-height: 24px;&quot;&gt;- Ngày sản xuất: date&lt;/div&gt;&lt;div style=&quot;line-height: 24px;&quot;&gt;- Hạn sử dụng: date&lt;/div&gt;&lt;div style=&quot;line-height: 24px;&quot;&gt;- Nhà cung cấp: String&lt;/div&gt;&lt;div style=&quot;line-height: 24px;&quot;&gt;- Ghi chú: string&lt;/div&gt;&lt;/div&gt;&lt;/div&gt;" style="text;strokeColor=none;fillColor=none;align=left;verticalAlign=top;spacingLeft=4;spacingRight=4;overflow=hidden;rotatable=0;points=[[0,0.5],[1,0.5]];portConstraint=eastwest;whiteSpace=wrap;html=1;" vertex="1" parent="dvYaSBP2tjCflmMUl2TN-52">
          <mxGeometry y="40" width="200" height="260" as="geometry" />
        </mxCell>
        <mxCell id="dvYaSBP2tjCflmMUl2TN-54" value="&amp;lt;&amp;lt;Boundary&amp;gt;&amp;gt;&lt;div style=&quot;font-size: 12px;&quot;&gt;Form thêm mới hàng hóa&lt;/div&gt;" style="swimlane;fontStyle=1;align=center;verticalAlign=top;childLayout=stackLayout;horizontal=1;startSize=40;horizontalStack=0;resizeParent=1;resizeParentMax=0;resizeLast=0;collapsible=1;marginBottom=0;whiteSpace=wrap;html=1;fontSize=12;" vertex="1" parent="1">
          <mxGeometry x="2330" y="1900" width="210" height="340" as="geometry" />
        </mxCell>
        <mxCell id="dvYaSBP2tjCflmMUl2TN-55" value="- Mã hàng hóa: string&lt;div style=&quot;line-height: 24px;&quot;&gt;&lt;div style=&quot;line-height: 24px;&quot;&gt;- Mã lô hàng: string&lt;br&gt;&lt;div style=&quot;line-height: 24px;&quot;&gt;- Tên hàng hóa: string&lt;/div&gt;&lt;div style=&quot;line-height: 24px;&quot;&gt;- Đơn vị: string&lt;/div&gt;&lt;div style=&quot;line-height: 24px;&quot;&gt;- Số lượng: int&lt;/div&gt;&lt;div style=&quot;line-height: 24px;&quot;&gt;- Giá mua: int&lt;br&gt;- Giá bán: int&lt;/div&gt;&lt;div style=&quot;line-height: 24px;&quot;&gt;- Ngày sản xuất: date&lt;/div&gt;&lt;div style=&quot;line-height: 24px;&quot;&gt;- Hạn sử dụng: date&lt;/div&gt;&lt;div style=&quot;line-height: 24px;&quot;&gt;- Nhà cung cấp: String&lt;/div&gt;&lt;div style=&quot;line-height: 24px;&quot;&gt;- Ghi chú: string&lt;/div&gt;&lt;/div&gt;&lt;/div&gt;" style="text;strokeColor=none;fillColor=none;align=left;verticalAlign=middle;spacingLeft=4;spacingRight=4;overflow=hidden;rotatable=0;points=[[0,0.5],[1,0.5]];portConstraint=eastwest;whiteSpace=wrap;html=1;spacingTop=2;horizontal=1;fontSize=12;" vertex="1" parent="dvYaSBP2tjCflmMUl2TN-54">
          <mxGeometry y="40" width="210" height="260" as="geometry" />
        </mxCell>
        <mxCell id="dvYaSBP2tjCflmMUl2TN-56" value="" style="line;strokeWidth=1;fillColor=none;align=left;verticalAlign=middle;spacingTop=-1;spacingLeft=3;spacingRight=3;rotatable=0;labelPosition=right;points=[];portConstraint=eastwest;strokeColor=inherit;fontSize=12;" vertex="1" parent="dvYaSBP2tjCflmMUl2TN-54">
          <mxGeometry y="300" width="210" height="8" as="geometry" />
        </mxCell>
        <mxCell id="dvYaSBP2tjCflmMUl2TN-57" value="+ Submit()" style="text;strokeColor=none;fillColor=none;align=left;verticalAlign=top;spacingLeft=4;spacingRight=4;overflow=hidden;rotatable=0;points=[[0,0.5],[1,0.5]];portConstraint=eastwest;whiteSpace=wrap;html=1;fontSize=12;" vertex="1" parent="dvYaSBP2tjCflmMUl2TN-54">
          <mxGeometry y="308" width="210" height="32" as="geometry" />
        </mxCell>
        <mxCell id="dvYaSBP2tjCflmMUl2TN-58" value="&amp;lt;&amp;lt;Boundary&amp;gt;&amp;gt;&lt;div style=&quot;font-size: 12px;&quot;&gt;Form chỉnh sửa hàng hóa&lt;/div&gt;" style="swimlane;fontStyle=1;align=center;verticalAlign=top;childLayout=stackLayout;horizontal=1;startSize=40;horizontalStack=0;resizeParent=1;resizeParentMax=0;resizeLast=0;collapsible=1;marginBottom=0;whiteSpace=wrap;html=1;fontSize=12;" vertex="1" parent="1">
          <mxGeometry x="2600" y="1900" width="200" height="340" as="geometry" />
        </mxCell>
        <mxCell id="dvYaSBP2tjCflmMUl2TN-59" value="- Mã hàng hóa: string&lt;div style=&quot;line-height: 24px;&quot;&gt;&lt;div style=&quot;line-height: 24px;&quot;&gt;- Mã lô hàng: string&lt;br&gt;&lt;div style=&quot;line-height: 24px;&quot;&gt;- Tên hàng hóa: string&lt;/div&gt;&lt;div style=&quot;line-height: 24px;&quot;&gt;- Đơn vị: string&lt;/div&gt;&lt;div style=&quot;line-height: 24px;&quot;&gt;- Số lượng: int&lt;/div&gt;&lt;div style=&quot;line-height: 24px;&quot;&gt;- Giá mua: int&lt;br&gt;- Giá bán: int&lt;/div&gt;&lt;div style=&quot;line-height: 24px;&quot;&gt;- Ngày sản xuất: date&lt;/div&gt;&lt;div style=&quot;line-height: 24px;&quot;&gt;- Hạn sử dụng: date&lt;/div&gt;&lt;div style=&quot;line-height: 24px;&quot;&gt;- Nhà cung cấp: String&lt;/div&gt;&lt;div style=&quot;line-height: 24px;&quot;&gt;- Ghi chú: string&lt;/div&gt;&lt;/div&gt;&lt;/div&gt;" style="text;strokeColor=none;fillColor=none;align=left;verticalAlign=middle;spacingLeft=4;spacingRight=4;overflow=hidden;rotatable=0;points=[[0,0.5],[1,0.5]];portConstraint=eastwest;whiteSpace=wrap;html=1;spacingTop=2;horizontal=1;fontSize=12;" vertex="1" parent="dvYaSBP2tjCflmMUl2TN-58">
          <mxGeometry y="40" width="200" height="260" as="geometry" />
        </mxCell>
        <mxCell id="dvYaSBP2tjCflmMUl2TN-60" value="" style="line;strokeWidth=1;fillColor=none;align=left;verticalAlign=middle;spacingTop=-1;spacingLeft=3;spacingRight=3;rotatable=0;labelPosition=right;points=[];portConstraint=eastwest;strokeColor=inherit;fontSize=12;" vertex="1" parent="dvYaSBP2tjCflmMUl2TN-58">
          <mxGeometry y="300" width="200" height="8" as="geometry" />
        </mxCell>
        <mxCell id="dvYaSBP2tjCflmMUl2TN-61" value="+ Submit()" style="text;strokeColor=none;fillColor=none;align=left;verticalAlign=top;spacingLeft=4;spacingRight=4;overflow=hidden;rotatable=0;points=[[0,0.5],[1,0.5]];portConstraint=eastwest;whiteSpace=wrap;html=1;fontSize=12;" vertex="1" parent="dvYaSBP2tjCflmMUl2TN-58">
          <mxGeometry y="308" width="200" height="32" as="geometry" />
        </mxCell>
        <mxCell id="dvYaSBP2tjCflmMUl2TN-62" value="" style="endArrow=classic;html=1;rounded=0;exitX=0.5;exitY=0;exitDx=0;exitDy=0;entryX=0.453;entryY=1;entryDx=0;entryDy=0;entryPerimeter=0;" edge="1" parent="1" source="dvYaSBP2tjCflmMUl2TN-50" target="dvYaSBP2tjCflmMUl2TN-49">
          <mxGeometry width="50" height="50" relative="1" as="geometry">
            <mxPoint x="2689" y="2417" as="sourcePoint" />
            <mxPoint x="3220" y="2623" as="targetPoint" />
          </mxGeometry>
        </mxCell>
        <mxCell id="dvYaSBP2tjCflmMUl2TN-63" value="" style="endArrow=classic;html=1;rounded=0;exitX=0.5;exitY=0;exitDx=0;exitDy=0;entryX=0.467;entryY=0.994;entryDx=0;entryDy=0;entryPerimeter=0;" edge="1" parent="1" source="dvYaSBP2tjCflmMUl2TN-52" target="dvYaSBP2tjCflmMUl2TN-49">
          <mxGeometry width="50" height="50" relative="1" as="geometry">
            <mxPoint x="2257" y="2126" as="sourcePoint" />
            <mxPoint x="2690" y="2213" as="targetPoint" />
          </mxGeometry>
        </mxCell>
        <mxCell id="dvYaSBP2tjCflmMUl2TN-64" value="" style="endArrow=classic;html=1;rounded=0;exitX=0.5;exitY=0;exitDx=0;exitDy=0;" edge="1" parent="1" source="dvYaSBP2tjCflmMUl2TN-54">
          <mxGeometry width="50" height="50" relative="1" as="geometry">
            <mxPoint x="2395" y="1984" as="sourcePoint" />
            <mxPoint x="2420" y="1610" as="targetPoint" />
          </mxGeometry>
        </mxCell>
        <mxCell id="dvYaSBP2tjCflmMUl2TN-65" value="&lt;b&gt;&amp;lt;&amp;lt;Boundary&amp;gt;&amp;gt;&lt;/b&gt;&lt;div&gt;&lt;b&gt;Form xác nhận xóa hàng hóa&lt;/b&gt;&lt;/div&gt;" style="swimlane;fontStyle=0;childLayout=stackLayout;horizontal=1;startSize=40;fillColor=none;horizontalStack=0;resizeParent=1;resizeParentMax=0;resizeLast=0;collapsible=1;marginBottom=0;whiteSpace=wrap;html=1;" vertex="1" parent="1">
          <mxGeometry x="2660" y="1760" width="220" height="70" as="geometry">
            <mxRectangle x="-250" y="100" width="140" height="40" as="alternateBounds" />
          </mxGeometry>
        </mxCell>
        <mxCell id="dvYaSBP2tjCflmMUl2TN-66" value="&lt;div&gt;+ Submit()&lt;/div&gt;" style="text;strokeColor=none;fillColor=none;align=left;verticalAlign=top;spacingLeft=4;spacingRight=4;overflow=hidden;rotatable=0;points=[[0,0.5],[1,0.5]];portConstraint=eastwest;whiteSpace=wrap;html=1;" vertex="1" parent="dvYaSBP2tjCflmMUl2TN-65">
          <mxGeometry y="40" width="220" height="30" as="geometry" />
        </mxCell>
        <mxCell id="dvYaSBP2tjCflmMUl2TN-67" value="" style="endArrow=classic;html=1;rounded=0;exitX=0.5;exitY=0;exitDx=0;exitDy=0;" edge="1" parent="1" source="dvYaSBP2tjCflmMUl2TN-58">
          <mxGeometry width="50" height="50" relative="1" as="geometry">
            <mxPoint x="2728" y="1982" as="sourcePoint" />
            <mxPoint x="2420" y="1610" as="targetPoint" />
          </mxGeometry>
        </mxCell>
        <mxCell id="dvYaSBP2tjCflmMUl2TN-68" value="" style="endArrow=classic;html=1;rounded=0;exitX=0.5;exitY=0;exitDx=0;exitDy=0;" edge="1" parent="1" source="dvYaSBP2tjCflmMUl2TN-65">
          <mxGeometry width="50" height="50" relative="1" as="geometry">
            <mxPoint x="3067" y="1986" as="sourcePoint" />
            <mxPoint x="2420" y="1610" as="targetPoint" />
          </mxGeometry>
        </mxCell>
        <mxCell id="dvYaSBP2tjCflmMUl2TN-69" value="" style="endArrow=classic;html=1;rounded=0;exitX=0.5;exitY=0;exitDx=0;exitDy=0;entryX=0.506;entryY=1.004;entryDx=0;entryDy=0;entryPerimeter=0;" edge="1" parent="1" source="dvYaSBP2tjCflmMUl2TN-48" target="Pjqkww6uHoSa5I9ibUBh-4">
          <mxGeometry width="50" height="50" relative="1" as="geometry">
            <mxPoint x="2390" y="1735" as="sourcePoint" />
            <mxPoint x="2120" y="1100" as="targetPoint" />
          </mxGeometry>
        </mxCell>
        <mxCell id="dvYaSBP2tjCflmMUl2TN-70" value="&lt;b&gt;&amp;lt;&amp;lt;Control&amp;gt;&amp;gt;&lt;/b&gt;&lt;div&gt;&lt;b&gt;Quản lý thưởng phạt&lt;/b&gt;&lt;/div&gt;" style="swimlane;fontStyle=0;childLayout=stackLayout;horizontal=1;startSize=40;fillColor=none;horizontalStack=0;resizeParent=1;resizeParentMax=0;resizeLast=0;collapsible=1;marginBottom=0;whiteSpace=wrap;html=1;" vertex="1" parent="1">
          <mxGeometry x="140" y="1455" width="220" height="160" as="geometry">
            <mxRectangle x="-250" y="100" width="140" height="40" as="alternateBounds" />
          </mxGeometry>
        </mxCell>
        <mxCell id="dvYaSBP2tjCflmMUl2TN-71" value="&lt;div style=&quot;text-align: justify; line-height: 24px;&quot;&gt;&lt;div style=&quot;line-height: 24px;&quot;&gt;&lt;div style=&quot;line-height: 24px;&quot;&gt;&lt;div style=&quot;line-height: 24px;&quot;&gt;&lt;span style=&quot;background-color: initial;&quot;&gt;+ Lấy danh sách&amp;nbsp;&lt;/span&gt;&lt;span style=&quot;text-align: left; background-color: initial;&quot;&gt;thưởng, phạt&lt;/span&gt;&lt;span style=&quot;background-color: initial;&quot;&gt;()&lt;/span&gt;&lt;/div&gt;&lt;div style=&quot;line-height: 24px;&quot;&gt;+ Thêm mới&amp;nbsp;&lt;span style=&quot;text-align: left; background-color: initial;&quot;&gt;thưởng, phạt&lt;/span&gt;&lt;/div&gt;&lt;div style=&quot;line-height: 24px;&quot;&gt;&lt;span style=&quot;background-color: initial;&quot;&gt;+ Cập nhật thông tin&amp;nbsp;&lt;/span&gt;&lt;span style=&quot;background-color: initial; text-align: left;&quot;&gt;thưởng, phạt&lt;/span&gt;&lt;br&gt;&lt;/div&gt;&lt;div style=&quot;line-height: 24px;&quot;&gt;+ Xóa thông tin&amp;nbsp;&lt;span style=&quot;text-align: left;&quot;&gt;thưởng, phạt&lt;/span&gt;&lt;/div&gt;&lt;/div&gt;&lt;/div&gt;&lt;/div&gt;" style="text;strokeColor=none;fillColor=none;align=left;verticalAlign=top;spacingLeft=4;spacingRight=4;overflow=hidden;rotatable=0;points=[[0,0.5],[1,0.5]];portConstraint=eastwest;whiteSpace=wrap;html=1;" vertex="1" parent="dvYaSBP2tjCflmMUl2TN-70">
          <mxGeometry y="40" width="220" height="120" as="geometry" />
        </mxCell>
        <mxCell id="dvYaSBP2tjCflmMUl2TN-72" value="&lt;b&gt;&amp;lt;&amp;lt;Boundary&amp;gt;&amp;gt;&lt;/b&gt;&lt;div&gt;&lt;b&gt;Quản lý thưởng, phạt&lt;/b&gt;&lt;br&gt;&lt;/div&gt;" style="swimlane;fontStyle=0;childLayout=stackLayout;horizontal=1;startSize=40;fillColor=none;horizontalStack=0;resizeParent=1;resizeParentMax=0;resizeLast=0;collapsible=1;marginBottom=0;whiteSpace=wrap;html=1;" vertex="1" parent="1">
          <mxGeometry x="-250" y="1760" width="280" height="70" as="geometry">
            <mxRectangle x="-250" y="100" width="140" height="40" as="alternateBounds" />
          </mxGeometry>
        </mxCell>
        <mxCell id="dvYaSBP2tjCflmMUl2TN-73" value="- Danh sách thưởng, phạt: List&amp;lt;Thưởng phạt&amp;gt;" style="text;strokeColor=none;fillColor=none;align=left;verticalAlign=top;spacingLeft=4;spacingRight=4;overflow=hidden;rotatable=0;points=[[0,0.5],[1,0.5]];portConstraint=eastwest;whiteSpace=wrap;html=1;" vertex="1" parent="dvYaSBP2tjCflmMUl2TN-72">
          <mxGeometry y="40" width="280" height="30" as="geometry" />
        </mxCell>
        <mxCell id="dvYaSBP2tjCflmMUl2TN-76" value="&amp;lt;&amp;lt;Boundary&amp;gt;&amp;gt;&lt;div style=&quot;font-size: 12px;&quot;&gt;Form thêm mới thưởng, phạt&lt;/div&gt;" style="swimlane;fontStyle=1;align=center;verticalAlign=middle;childLayout=stackLayout;horizontal=1;startSize=40;horizontalStack=0;resizeParent=1;resizeParentMax=0;resizeLast=0;collapsible=1;marginBottom=0;whiteSpace=wrap;html=1;fontSize=12;" vertex="1" parent="1">
          <mxGeometry x="150" y="1900" width="210" height="200" as="geometry" />
        </mxCell>
        <mxCell id="dvYaSBP2tjCflmMUl2TN-77" value="- Tên đăng nhập: string&lt;div style=&quot;line-height: 24px;&quot;&gt;- Thời gian: DateTime&lt;/div&gt;&lt;div style=&quot;line-height: 24px;&quot;&gt;- Tiền thưởng, phạt: int&lt;/div&gt;&lt;div style=&quot;line-height: 24px;&quot;&gt;- Lý do: string&lt;/div&gt;&lt;div style=&quot;line-height: 24px;&quot;&gt;- Trạng thái: string&lt;/div&gt;&lt;div style=&quot;line-height: 24px;&quot;&gt;&lt;br&gt;&lt;/div&gt;" style="text;strokeColor=none;fillColor=none;align=left;verticalAlign=middle;spacingLeft=4;spacingRight=4;overflow=hidden;rotatable=0;points=[[0,0.5],[1,0.5]];portConstraint=eastwest;whiteSpace=wrap;html=1;spacingTop=2;horizontal=1;fontSize=12;" vertex="1" parent="dvYaSBP2tjCflmMUl2TN-76">
          <mxGeometry y="40" width="210" height="120" as="geometry" />
        </mxCell>
        <mxCell id="dvYaSBP2tjCflmMUl2TN-78" value="" style="line;strokeWidth=1;fillColor=none;align=left;verticalAlign=middle;spacingTop=-1;spacingLeft=3;spacingRight=3;rotatable=0;labelPosition=right;points=[];portConstraint=eastwest;strokeColor=inherit;fontSize=12;" vertex="1" parent="dvYaSBP2tjCflmMUl2TN-76">
          <mxGeometry y="160" width="210" height="8" as="geometry" />
        </mxCell>
        <mxCell id="dvYaSBP2tjCflmMUl2TN-79" value="+ Submit()" style="text;strokeColor=none;fillColor=none;align=left;verticalAlign=top;spacingLeft=4;spacingRight=4;overflow=hidden;rotatable=0;points=[[0,0.5],[1,0.5]];portConstraint=eastwest;whiteSpace=wrap;html=1;fontSize=12;" vertex="1" parent="dvYaSBP2tjCflmMUl2TN-76">
          <mxGeometry y="168" width="210" height="32" as="geometry" />
        </mxCell>
        <mxCell id="dvYaSBP2tjCflmMUl2TN-80" value="&amp;lt;&amp;lt;Boundary&amp;gt;&amp;gt;&lt;div style=&quot;font-size: 12px;&quot;&gt;Form chỉnh sửa&amp;nbsp;&lt;span style=&quot;background-color: initial;&quot;&gt;thưởng, phạt&lt;/span&gt;&lt;/div&gt;" style="swimlane;fontStyle=1;align=center;verticalAlign=middle;childLayout=stackLayout;horizontal=1;startSize=40;horizontalStack=0;resizeParent=1;resizeParentMax=0;resizeLast=0;collapsible=1;marginBottom=0;whiteSpace=wrap;html=1;fontSize=12;" vertex="1" parent="1">
          <mxGeometry x="420" y="1900" width="200" height="200" as="geometry" />
        </mxCell>
        <mxCell id="dvYaSBP2tjCflmMUl2TN-81" value="- Tên đăng nhập: string&lt;div style=&quot;line-height: 24px;&quot;&gt;- Thời gian: DateTime&lt;/div&gt;&lt;div style=&quot;line-height: 24px;&quot;&gt;- Tiền thưởng, phạt: int&lt;/div&gt;&lt;div style=&quot;line-height: 24px;&quot;&gt;- Lý do: string&lt;/div&gt;&lt;div style=&quot;line-height: 24px;&quot;&gt;- Trạng thái: string&lt;/div&gt;&lt;div style=&quot;line-height: 24px;&quot;&gt;&lt;br&gt;&lt;/div&gt;" style="text;strokeColor=none;fillColor=none;align=left;verticalAlign=bottom;spacingLeft=4;spacingRight=4;overflow=hidden;rotatable=0;points=[[0,0.5],[1,0.5]];portConstraint=eastwest;whiteSpace=wrap;html=1;spacingTop=2;horizontal=1;fontSize=12;" vertex="1" parent="dvYaSBP2tjCflmMUl2TN-80">
          <mxGeometry y="40" width="200" height="120" as="geometry" />
        </mxCell>
        <mxCell id="dvYaSBP2tjCflmMUl2TN-82" value="" style="line;strokeWidth=1;fillColor=none;align=left;verticalAlign=middle;spacingTop=-1;spacingLeft=3;spacingRight=3;rotatable=0;labelPosition=right;points=[];portConstraint=eastwest;strokeColor=inherit;fontSize=12;" vertex="1" parent="dvYaSBP2tjCflmMUl2TN-80">
          <mxGeometry y="160" width="200" height="8" as="geometry" />
        </mxCell>
        <mxCell id="dvYaSBP2tjCflmMUl2TN-83" value="+ Submit()" style="text;strokeColor=none;fillColor=none;align=left;verticalAlign=top;spacingLeft=4;spacingRight=4;overflow=hidden;rotatable=0;points=[[0,0.5],[1,0.5]];portConstraint=eastwest;whiteSpace=wrap;html=1;fontSize=12;" vertex="1" parent="dvYaSBP2tjCflmMUl2TN-80">
          <mxGeometry y="168" width="200" height="32" as="geometry" />
        </mxCell>
        <mxCell id="dvYaSBP2tjCflmMUl2TN-84" value="" style="endArrow=classic;html=1;rounded=0;exitX=0.5;exitY=0;exitDx=0;exitDy=0;entryX=0.453;entryY=1;entryDx=0;entryDy=0;entryPerimeter=0;" edge="1" parent="1" source="dvYaSBP2tjCflmMUl2TN-72" target="dvYaSBP2tjCflmMUl2TN-71">
          <mxGeometry width="50" height="50" relative="1" as="geometry">
            <mxPoint x="509" y="2417" as="sourcePoint" />
            <mxPoint x="1040" y="2623" as="targetPoint" />
          </mxGeometry>
        </mxCell>
        <mxCell id="dvYaSBP2tjCflmMUl2TN-86" value="" style="endArrow=classic;html=1;rounded=0;exitX=0.5;exitY=0;exitDx=0;exitDy=0;" edge="1" parent="1" source="dvYaSBP2tjCflmMUl2TN-76">
          <mxGeometry width="50" height="50" relative="1" as="geometry">
            <mxPoint x="215" y="1984" as="sourcePoint" />
            <mxPoint x="240" y="1610" as="targetPoint" />
          </mxGeometry>
        </mxCell>
        <mxCell id="dvYaSBP2tjCflmMUl2TN-87" value="&lt;b&gt;&amp;lt;&amp;lt;Boundary&amp;gt;&amp;gt;&lt;/b&gt;&lt;div&gt;&lt;b&gt;Form xác nhận xóa &lt;/b&gt;&lt;span style=&quot;font-weight: 700; background-color: initial;&quot;&gt;thưởng, phạt&lt;/span&gt;&lt;/div&gt;" style="swimlane;fontStyle=0;childLayout=stackLayout;horizontal=1;startSize=40;fillColor=none;horizontalStack=0;resizeParent=1;resizeParentMax=0;resizeLast=0;collapsible=1;marginBottom=0;whiteSpace=wrap;html=1;" vertex="1" parent="1">
          <mxGeometry x="480" y="1760" width="220" height="70" as="geometry">
            <mxRectangle x="-250" y="100" width="140" height="40" as="alternateBounds" />
          </mxGeometry>
        </mxCell>
        <mxCell id="dvYaSBP2tjCflmMUl2TN-88" value="&lt;div&gt;+ Submit()&lt;/div&gt;" style="text;strokeColor=none;fillColor=none;align=left;verticalAlign=top;spacingLeft=4;spacingRight=4;overflow=hidden;rotatable=0;points=[[0,0.5],[1,0.5]];portConstraint=eastwest;whiteSpace=wrap;html=1;" vertex="1" parent="dvYaSBP2tjCflmMUl2TN-87">
          <mxGeometry y="40" width="220" height="30" as="geometry" />
        </mxCell>
        <mxCell id="dvYaSBP2tjCflmMUl2TN-89" value="" style="endArrow=classic;html=1;rounded=0;exitX=0.5;exitY=0;exitDx=0;exitDy=0;" edge="1" parent="1" source="dvYaSBP2tjCflmMUl2TN-80">
          <mxGeometry width="50" height="50" relative="1" as="geometry">
            <mxPoint x="548" y="1982" as="sourcePoint" />
            <mxPoint x="240" y="1610" as="targetPoint" />
          </mxGeometry>
        </mxCell>
        <mxCell id="dvYaSBP2tjCflmMUl2TN-90" value="" style="endArrow=classic;html=1;rounded=0;exitX=0.5;exitY=0;exitDx=0;exitDy=0;" edge="1" parent="1" source="dvYaSBP2tjCflmMUl2TN-87">
          <mxGeometry width="50" height="50" relative="1" as="geometry">
            <mxPoint x="887" y="1986" as="sourcePoint" />
            <mxPoint x="240" y="1610" as="targetPoint" />
          </mxGeometry>
        </mxCell>
        <mxCell id="dvYaSBP2tjCflmMUl2TN-91" value="" style="endArrow=classic;html=1;rounded=0;exitX=0.5;exitY=0;exitDx=0;exitDy=0;entryX=0.489;entryY=0.992;entryDx=0;entryDy=0;entryPerimeter=0;" edge="1" parent="1" source="dvYaSBP2tjCflmMUl2TN-70" target="p5YieNyIpPeS9HpQ7IXg-4">
          <mxGeometry width="50" height="50" relative="1" as="geometry">
            <mxPoint x="600" y="1770" as="sourcePoint" />
            <mxPoint x="250" y="1620" as="targetPoint" />
          </mxGeometry>
        </mxCell>
        <mxCell id="dvYaSBP2tjCflmMUl2TN-93" value="&lt;b&gt;&amp;lt;&amp;lt;Control&amp;gt;&amp;gt;&lt;/b&gt;&lt;div&gt;&lt;b&gt;Quản lý bảng chấm công&lt;/b&gt;&lt;/div&gt;" style="swimlane;fontStyle=0;childLayout=stackLayout;horizontal=1;startSize=40;fillColor=none;horizontalStack=0;resizeParent=1;resizeParentMax=0;resizeLast=0;collapsible=1;marginBottom=0;whiteSpace=wrap;html=1;" vertex="1" parent="1">
          <mxGeometry x="-590" y="1190" width="270" height="70" as="geometry">
            <mxRectangle x="-250" y="100" width="140" height="40" as="alternateBounds" />
          </mxGeometry>
        </mxCell>
        <mxCell id="dvYaSBP2tjCflmMUl2TN-94" value="&lt;div style=&quot;text-align: justify; line-height: 24px;&quot;&gt;&lt;div style=&quot;line-height: 24px;&quot;&gt;&lt;div style=&quot;line-height: 24px;&quot;&gt;&lt;div style=&quot;line-height: 24px;&quot;&gt;&lt;span style=&quot;text-align: left;&quot;&gt;+ Lưu lại bảng chấm công(Bảng chấm công)&lt;/span&gt;&lt;br&gt;&lt;/div&gt;&lt;/div&gt;&lt;/div&gt;&lt;/div&gt;" style="text;strokeColor=none;fillColor=none;align=left;verticalAlign=middle;spacingLeft=4;spacingRight=4;overflow=hidden;rotatable=0;points=[[0,0.5],[1,0.5]];portConstraint=eastwest;whiteSpace=wrap;html=1;" vertex="1" parent="dvYaSBP2tjCflmMUl2TN-93">
          <mxGeometry y="40" width="270" height="30" as="geometry" />
        </mxCell>
        <mxCell id="dvYaSBP2tjCflmMUl2TN-95" value="" style="endArrow=classic;html=1;rounded=0;exitX=0.5;exitY=0;exitDx=0;exitDy=0;entryX=0.528;entryY=1.016;entryDx=0;entryDy=0;entryPerimeter=0;" edge="1" parent="1" source="dvYaSBP2tjCflmMUl2TN-93" target="Pjqkww6uHoSa5I9ibUBh-12">
          <mxGeometry width="50" height="50" relative="1" as="geometry">
            <mxPoint x="265" y="1400" as="sourcePoint" />
            <mxPoint x="452" y="1109" as="targetPoint" />
          </mxGeometry>
        </mxCell>
        <mxCell id="dvYaSBP2tjCflmMUl2TN-96" value="&lt;b&gt;&amp;lt;&amp;lt;Boundary&amp;gt;&amp;gt;&lt;/b&gt;&lt;div&gt;&lt;b&gt;Form check in&lt;/b&gt;&lt;/div&gt;" style="swimlane;fontStyle=0;childLayout=stackLayout;horizontal=1;startSize=40;fillColor=none;horizontalStack=0;resizeParent=1;resizeParentMax=0;resizeLast=0;collapsible=1;marginBottom=0;whiteSpace=wrap;html=1;" vertex="1" parent="1">
          <mxGeometry x="-690" y="1350" width="160" height="70" as="geometry">
            <mxRectangle x="-250" y="100" width="140" height="40" as="alternateBounds" />
          </mxGeometry>
        </mxCell>
        <mxCell id="dvYaSBP2tjCflmMUl2TN-97" value="&lt;div&gt;+ Submit()&lt;/div&gt;" style="text;strokeColor=none;fillColor=none;align=left;verticalAlign=top;spacingLeft=4;spacingRight=4;overflow=hidden;rotatable=0;points=[[0,0.5],[1,0.5]];portConstraint=eastwest;whiteSpace=wrap;html=1;" vertex="1" parent="dvYaSBP2tjCflmMUl2TN-96">
          <mxGeometry y="40" width="160" height="30" as="geometry" />
        </mxCell>
        <mxCell id="dvYaSBP2tjCflmMUl2TN-98" value="&lt;b&gt;&amp;lt;&amp;lt;Boundary&amp;gt;&amp;gt;&lt;/b&gt;&lt;div&gt;&lt;b&gt;Form check out&amp;nbsp;&lt;/b&gt;&lt;/div&gt;" style="swimlane;fontStyle=0;childLayout=stackLayout;horizontal=1;startSize=40;fillColor=none;horizontalStack=0;resizeParent=1;resizeParentMax=0;resizeLast=0;collapsible=1;marginBottom=0;whiteSpace=wrap;html=1;" vertex="1" parent="1">
          <mxGeometry x="-420" y="1350" width="160" height="70" as="geometry">
            <mxRectangle x="-250" y="100" width="140" height="40" as="alternateBounds" />
          </mxGeometry>
        </mxCell>
        <mxCell id="dvYaSBP2tjCflmMUl2TN-99" value="&lt;div&gt;+ Submit()&lt;/div&gt;" style="text;strokeColor=none;fillColor=none;align=left;verticalAlign=top;spacingLeft=4;spacingRight=4;overflow=hidden;rotatable=0;points=[[0,0.5],[1,0.5]];portConstraint=eastwest;whiteSpace=wrap;html=1;" vertex="1" parent="dvYaSBP2tjCflmMUl2TN-98">
          <mxGeometry y="40" width="160" height="30" as="geometry" />
        </mxCell>
        <mxCell id="dvYaSBP2tjCflmMUl2TN-100" value="" style="endArrow=classic;html=1;rounded=0;exitX=0.5;exitY=0;exitDx=0;exitDy=0;entryX=0.482;entryY=1.027;entryDx=0;entryDy=0;entryPerimeter=0;" edge="1" parent="1" source="dvYaSBP2tjCflmMUl2TN-98" target="dvYaSBP2tjCflmMUl2TN-94">
          <mxGeometry width="50" height="50" relative="1" as="geometry">
            <mxPoint x="-445" y="1200" as="sourcePoint" />
            <mxPoint x="-438" y="991" as="targetPoint" />
          </mxGeometry>
        </mxCell>
        <mxCell id="dvYaSBP2tjCflmMUl2TN-101" value="" style="endArrow=classic;html=1;rounded=0;exitX=0.5;exitY=0;exitDx=0;exitDy=0;entryX=0.502;entryY=1.007;entryDx=0;entryDy=0;entryPerimeter=0;" edge="1" parent="1" source="dvYaSBP2tjCflmMUl2TN-96" target="dvYaSBP2tjCflmMUl2TN-94">
          <mxGeometry width="50" height="50" relative="1" as="geometry">
            <mxPoint x="-330" y="1360" as="sourcePoint" />
            <mxPoint x="-450" y="1271" as="targetPoint" />
          </mxGeometry>
        </mxCell>
        <mxCell id="dvYaSBP2tjCflmMUl2TN-110" value="&lt;font style=&quot;font-size: 40px;&quot;&gt;*&lt;/font&gt;" style="text;html=1;align=center;verticalAlign=middle;whiteSpace=wrap;rounded=0;" vertex="1" parent="1">
          <mxGeometry x="1150" y="73" width="70" height="40" as="geometry" />
        </mxCell>
        <mxCell id="dvYaSBP2tjCflmMUl2TN-116" value="" style="endArrow=diamondThin;html=1;rounded=0;endFill=1;endSize=20;exitX=0.494;exitY=1;exitDx=0;exitDy=0;exitPerimeter=0;" edge="1" parent="1" source="aBuUrAB-tPdE4JArL_gd-17">
          <mxGeometry width="50" height="50" relative="1" as="geometry">
            <mxPoint x="2040" y="460" as="sourcePoint" />
            <mxPoint x="2053" y="799" as="targetPoint" />
          </mxGeometry>
        </mxCell>
        <mxCell id="dvYaSBP2tjCflmMUl2TN-119" value="&lt;font style=&quot;font-size: 40px;&quot;&gt;*&lt;/font&gt;" style="text;html=1;align=center;verticalAlign=middle;whiteSpace=wrap;rounded=0;" vertex="1" parent="1">
          <mxGeometry x="1830" y="73" width="70" height="40" as="geometry" />
        </mxCell>
        <mxCell id="dvYaSBP2tjCflmMUl2TN-120" value="" style="endArrow=none;html=1;rounded=0;entryX=0.432;entryY=1.002;entryDx=0;entryDy=0;entryPerimeter=0;" edge="1" parent="1" source="Pjqkww6uHoSa5I9ibUBh-5" target="aBuUrAB-tPdE4JArL_gd-33">
          <mxGeometry width="50" height="50" relative="1" as="geometry">
            <mxPoint x="3740" y="520" as="sourcePoint" />
            <mxPoint x="3805" y="400" as="targetPoint" />
          </mxGeometry>
        </mxCell>
        <mxCell id="dvYaSBP2tjCflmMUl2TN-122" value="&lt;font style=&quot;font-size: 40px;&quot;&gt;*&lt;/font&gt;" style="text;html=1;align=center;verticalAlign=middle;whiteSpace=wrap;rounded=0;" vertex="1" parent="1">
          <mxGeometry x="2780" y="760" width="70" height="40" as="geometry" />
        </mxCell>
        <mxCell id="dvYaSBP2tjCflmMUl2TN-123" value="" style="endArrow=none;html=1;rounded=0;entryX=0.001;entryY=0.094;entryDx=0;entryDy=0;entryPerimeter=0;" edge="1" parent="1" target="Pjqkww6uHoSa5I9ibUBh-5">
          <mxGeometry width="50" height="50" relative="1" as="geometry">
            <mxPoint x="2210" y="820" as="sourcePoint" />
            <mxPoint x="2430" y="830" as="targetPoint" />
          </mxGeometry>
        </mxCell>
        <mxCell id="dvYaSBP2tjCflmMUl2TN-124" value="&lt;font style=&quot;font-size: 40px;&quot;&gt;*&lt;/font&gt;" style="text;html=1;align=center;verticalAlign=middle;whiteSpace=wrap;rounded=0;" vertex="1" parent="1">
          <mxGeometry x="2665" y="780" width="70" height="40" as="geometry" />
        </mxCell>
        <mxCell id="dvYaSBP2tjCflmMUl2TN-125" value="&lt;font style=&quot;font-size: 20px;&quot;&gt;1&lt;/font&gt;" style="text;html=1;align=center;verticalAlign=middle;whiteSpace=wrap;rounded=0;" vertex="1" parent="1">
          <mxGeometry x="2820" y="390" width="70" height="40" as="geometry" />
        </mxCell>
        <mxCell id="dvYaSBP2tjCflmMUl2TN-126" value="" style="endArrow=none;html=1;rounded=0;entryX=-0.003;entryY=0.057;entryDx=0;entryDy=0;entryPerimeter=0;exitX=1.003;exitY=0.063;exitDx=0;exitDy=0;exitPerimeter=0;" edge="1" parent="1" source="aBuUrAB-tPdE4JArL_gd-22" target="Pjqkww6uHoSa5I9ibUBh-1">
          <mxGeometry width="50" height="50" relative="1" as="geometry">
            <mxPoint x="1290" y="1040" as="sourcePoint" />
            <mxPoint x="1867" y="822.94" as="targetPoint" />
          </mxGeometry>
        </mxCell>
        <mxCell id="dvYaSBP2tjCflmMUl2TN-128" value="&lt;font style=&quot;font-size: 40px;&quot;&gt;*&lt;/font&gt;" style="text;html=1;align=center;verticalAlign=middle;whiteSpace=wrap;rounded=0;" vertex="1" parent="1">
          <mxGeometry x="1260" y="780" width="70" height="40" as="geometry" />
        </mxCell>
        <mxCell id="dvYaSBP2tjCflmMUl2TN-129" value="&lt;font style=&quot;font-size: 40px;&quot;&gt;*&lt;/font&gt;" style="text;html=1;align=center;verticalAlign=middle;whiteSpace=wrap;rounded=0;" vertex="1" parent="1">
          <mxGeometry x="1800" y="780" width="70" height="40" as="geometry" />
        </mxCell>
        <mxCell id="dvYaSBP2tjCflmMUl2TN-133" value="" style="endArrow=none;html=1;rounded=0;entryX=1.004;entryY=0.094;entryDx=0;entryDy=0;entryPerimeter=0;" edge="1" parent="1" target="aBuUrAB-tPdE4JArL_gd-18">
          <mxGeometry width="50" height="50" relative="1" as="geometry">
            <mxPoint x="1900" y="110" as="sourcePoint" />
            <mxPoint x="1170" y="99" as="targetPoint" />
          </mxGeometry>
        </mxCell>
        <mxCell id="dvYaSBP2tjCflmMUl2TN-136" value="&lt;font style=&quot;font-size: 40px;&quot;&gt;*&lt;/font&gt;" style="text;html=1;align=center;verticalAlign=middle;whiteSpace=wrap;rounded=0;" vertex="1" parent="1">
          <mxGeometry x="1980" y="760" width="70" height="40" as="geometry" />
        </mxCell>
        <mxCell id="dvYaSBP2tjCflmMUl2TN-137" value="&lt;font style=&quot;font-size: 40px;&quot;&gt;*&lt;/font&gt;" style="text;html=1;align=center;verticalAlign=middle;whiteSpace=wrap;rounded=0;" vertex="1" parent="1">
          <mxGeometry x="1995" y="511" width="70" height="40" as="geometry" />
        </mxCell>
        <mxCell id="dvYaSBP2tjCflmMUl2TN-150" value="&lt;b&gt;&amp;lt;&amp;lt;Boundary&amp;gt;&amp;gt;&lt;/b&gt;&lt;div&gt;&lt;b&gt;Thông tin chi tiết&amp;nbsp;&lt;/b&gt;&lt;b style=&quot;background-color: initial;&quot;&gt;khách hàng&lt;/b&gt;&lt;/div&gt;" style="swimlane;fontStyle=0;childLayout=stackLayout;horizontal=1;startSize=40;fillColor=none;horizontalStack=0;resizeParent=1;resizeParentMax=0;resizeLast=0;collapsible=1;marginBottom=0;whiteSpace=wrap;html=1;" vertex="1" parent="1">
          <mxGeometry x="2735" y="-702" width="200" height="140" as="geometry">
            <mxRectangle x="-250" y="100" width="140" height="40" as="alternateBounds" />
          </mxGeometry>
        </mxCell>
        <mxCell id="dvYaSBP2tjCflmMUl2TN-151" value="- Mã khách hàng: string&lt;div style=&quot;line-height: 24px;&quot;&gt;- Họ và tên: string&lt;/div&gt;&lt;div style=&quot;line-height: 24px;&quot;&gt;- Số điện thoại: string&lt;/div&gt;&lt;div style=&quot;line-height: 24px;&quot;&gt;- Ghi chú: string&lt;/div&gt;" style="text;strokeColor=none;fillColor=none;align=left;verticalAlign=top;spacingLeft=4;spacingRight=4;overflow=hidden;rotatable=0;points=[[0,0.5],[1,0.5]];portConstraint=eastwest;whiteSpace=wrap;html=1;" vertex="1" parent="dvYaSBP2tjCflmMUl2TN-150">
          <mxGeometry y="40" width="200" height="100" as="geometry" />
        </mxCell>
        <mxCell id="dvYaSBP2tjCflmMUl2TN-152" value="&amp;lt;&amp;lt;Boundary&amp;gt;&amp;gt;&lt;div style=&quot;font-size: 12px;&quot;&gt;Form thêm mới&amp;nbsp;&lt;b style=&quot;background-color: initial;&quot;&gt;khách hàng&lt;/b&gt;&lt;/div&gt;" style="swimlane;fontStyle=1;align=center;verticalAlign=top;childLayout=stackLayout;horizontal=1;startSize=40;horizontalStack=0;resizeParent=1;resizeParentMax=0;resizeLast=0;collapsible=1;marginBottom=0;whiteSpace=wrap;html=1;fontSize=12;" vertex="1" parent="1">
          <mxGeometry x="3030" y="-750" width="210" height="180" as="geometry" />
        </mxCell>
        <mxCell id="dvYaSBP2tjCflmMUl2TN-153" value="- Mã khách hàng: string&lt;div style=&quot;line-height: 24px;&quot;&gt;- Họ và tên: string&lt;/div&gt;&lt;div style=&quot;line-height: 24px;&quot;&gt;- Số điện thoại: string&lt;/div&gt;&lt;div style=&quot;line-height: 24px;&quot;&gt;- Ghi chú: string&lt;/div&gt;" style="text;strokeColor=none;fillColor=none;align=left;verticalAlign=middle;spacingLeft=4;spacingRight=4;overflow=hidden;rotatable=0;points=[[0,0.5],[1,0.5]];portConstraint=eastwest;whiteSpace=wrap;html=1;spacingTop=2;horizontal=1;fontSize=12;" vertex="1" parent="dvYaSBP2tjCflmMUl2TN-152">
          <mxGeometry y="40" width="210" height="100" as="geometry" />
        </mxCell>
        <mxCell id="dvYaSBP2tjCflmMUl2TN-154" value="" style="line;strokeWidth=1;fillColor=none;align=left;verticalAlign=middle;spacingTop=-1;spacingLeft=3;spacingRight=3;rotatable=0;labelPosition=right;points=[];portConstraint=eastwest;strokeColor=inherit;fontSize=12;" vertex="1" parent="dvYaSBP2tjCflmMUl2TN-152">
          <mxGeometry y="140" width="210" height="8" as="geometry" />
        </mxCell>
        <mxCell id="dvYaSBP2tjCflmMUl2TN-155" value="+ Submit()" style="text;strokeColor=none;fillColor=none;align=left;verticalAlign=top;spacingLeft=4;spacingRight=4;overflow=hidden;rotatable=0;points=[[0,0.5],[1,0.5]];portConstraint=eastwest;whiteSpace=wrap;html=1;fontSize=12;" vertex="1" parent="dvYaSBP2tjCflmMUl2TN-152">
          <mxGeometry y="148" width="210" height="32" as="geometry" />
        </mxCell>
        <mxCell id="dvYaSBP2tjCflmMUl2TN-156" value="&amp;lt;&amp;lt;Boundary&amp;gt;&amp;gt;&lt;div style=&quot;font-size: 12px;&quot;&gt;Form chỉnh sửa&amp;nbsp;&lt;b style=&quot;background-color: initial;&quot;&gt;khách hàng&lt;/b&gt;&lt;/div&gt;" style="swimlane;fontStyle=1;align=center;verticalAlign=top;childLayout=stackLayout;horizontal=1;startSize=40;horizontalStack=0;resizeParent=1;resizeParentMax=0;resizeLast=0;collapsible=1;marginBottom=0;whiteSpace=wrap;html=1;fontSize=12;" vertex="1" parent="1">
          <mxGeometry x="3320" y="-750" width="200" height="180" as="geometry" />
        </mxCell>
        <mxCell id="dvYaSBP2tjCflmMUl2TN-157" value="- Mã khách hàng: string&lt;div style=&quot;line-height: 24px;&quot;&gt;- Họ và tên: string&lt;/div&gt;&lt;div style=&quot;line-height: 24px;&quot;&gt;- Số điện thoại: string&lt;/div&gt;&lt;div style=&quot;line-height: 24px;&quot;&gt;- Ghi chú: string&lt;/div&gt;" style="text;strokeColor=none;fillColor=none;align=left;verticalAlign=middle;spacingLeft=4;spacingRight=4;overflow=hidden;rotatable=0;points=[[0,0.5],[1,0.5]];portConstraint=eastwest;whiteSpace=wrap;html=1;spacingTop=2;horizontal=1;fontSize=12;" vertex="1" parent="dvYaSBP2tjCflmMUl2TN-156">
          <mxGeometry y="40" width="200" height="100" as="geometry" />
        </mxCell>
        <mxCell id="dvYaSBP2tjCflmMUl2TN-158" value="" style="line;strokeWidth=1;fillColor=none;align=left;verticalAlign=middle;spacingTop=-1;spacingLeft=3;spacingRight=3;rotatable=0;labelPosition=right;points=[];portConstraint=eastwest;strokeColor=inherit;fontSize=12;" vertex="1" parent="dvYaSBP2tjCflmMUl2TN-156">
          <mxGeometry y="140" width="200" height="8" as="geometry" />
        </mxCell>
        <mxCell id="dvYaSBP2tjCflmMUl2TN-159" value="+ Submit()" style="text;strokeColor=none;fillColor=none;align=left;verticalAlign=top;spacingLeft=4;spacingRight=4;overflow=hidden;rotatable=0;points=[[0,0.5],[1,0.5]];portConstraint=eastwest;whiteSpace=wrap;html=1;fontSize=12;" vertex="1" parent="dvYaSBP2tjCflmMUl2TN-156">
          <mxGeometry y="148" width="200" height="32" as="geometry" />
        </mxCell>
        <mxCell id="dvYaSBP2tjCflmMUl2TN-163" value="&lt;b&gt;&amp;lt;&amp;lt;Boundary&amp;gt;&amp;gt;&lt;/b&gt;&lt;div&gt;&lt;b&gt;Form xác nhận xóa&amp;nbsp;&lt;/b&gt;&lt;b style=&quot;background-color: initial;&quot;&gt;khách hàng&lt;/b&gt;&lt;/div&gt;" style="swimlane;fontStyle=0;childLayout=stackLayout;horizontal=1;startSize=40;fillColor=none;horizontalStack=0;resizeParent=1;resizeParentMax=0;resizeLast=0;collapsible=1;marginBottom=0;whiteSpace=wrap;html=1;" vertex="1" parent="1">
          <mxGeometry x="3390" y="-487" width="220" height="70" as="geometry">
            <mxRectangle x="-250" y="100" width="140" height="40" as="alternateBounds" />
          </mxGeometry>
        </mxCell>
        <mxCell id="dvYaSBP2tjCflmMUl2TN-164" value="&lt;div&gt;+ Submit()&lt;/div&gt;" style="text;strokeColor=none;fillColor=none;align=left;verticalAlign=top;spacingLeft=4;spacingRight=4;overflow=hidden;rotatable=0;points=[[0,0.5],[1,0.5]];portConstraint=eastwest;whiteSpace=wrap;html=1;" vertex="1" parent="dvYaSBP2tjCflmMUl2TN-163">
          <mxGeometry y="40" width="220" height="30" as="geometry" />
        </mxCell>
        <mxCell id="dvYaSBP2tjCflmMUl2TN-172" value="&lt;font style=&quot;font-size: 40px;&quot;&gt;*&lt;/font&gt;" style="text;html=1;align=center;verticalAlign=middle;whiteSpace=wrap;rounded=0;" vertex="1" parent="1">
          <mxGeometry x="2210" y="780" width="70" height="40" as="geometry" />
        </mxCell>
        <mxCell id="dvYaSBP2tjCflmMUl2TN-175" value="&lt;b&gt;&amp;lt;&amp;lt;Boundary&amp;gt;&amp;gt;&lt;/b&gt;&lt;div&gt;&lt;b&gt;Quản lý&amp;nbsp;&lt;/b&gt;&lt;b style=&quot;background-color: initial;&quot;&gt;khách hàng&lt;/b&gt;&lt;br&gt;&lt;/div&gt;" style="swimlane;fontStyle=0;childLayout=stackLayout;horizontal=1;startSize=40;fillColor=none;horizontalStack=0;resizeParent=1;resizeParentMax=0;resizeLast=0;collapsible=1;marginBottom=0;whiteSpace=wrap;html=1;" vertex="1" parent="1">
          <mxGeometry x="2640" y="-510" width="250" height="70" as="geometry">
            <mxRectangle x="-250" y="100" width="140" height="40" as="alternateBounds" />
          </mxGeometry>
        </mxCell>
        <mxCell id="dvYaSBP2tjCflmMUl2TN-176" value="- Danh sách khách hàng: List&amp;lt;Khách hàng&amp;gt;" style="text;strokeColor=none;fillColor=none;align=left;verticalAlign=top;spacingLeft=4;spacingRight=4;overflow=hidden;rotatable=0;points=[[0,0.5],[1,0.5]];portConstraint=eastwest;whiteSpace=wrap;html=1;" vertex="1" parent="dvYaSBP2tjCflmMUl2TN-175">
          <mxGeometry y="40" width="250" height="30" as="geometry" />
        </mxCell>
        <mxCell id="dvYaSBP2tjCflmMUl2TN-177" value="&lt;b&gt;&amp;lt;&amp;lt;Control&amp;gt;&amp;gt;&lt;/b&gt;&lt;div&gt;&lt;b&gt;Quản lý nhân sự&lt;/b&gt;&lt;/div&gt;" style="swimlane;fontStyle=0;childLayout=stackLayout;horizontal=1;startSize=40;fillColor=none;horizontalStack=0;resizeParent=1;resizeParentMax=0;resizeLast=0;collapsible=1;marginBottom=0;whiteSpace=wrap;html=1;" vertex="1" parent="1">
          <mxGeometry x="-1030" y="680" width="350" height="80" as="geometry">
            <mxRectangle x="-250" y="100" width="140" height="40" as="alternateBounds" />
          </mxGeometry>
        </mxCell>
        <mxCell id="dvYaSBP2tjCflmMUl2TN-178" value="&lt;div style=&quot;text-align: justify; line-height: 24px;&quot;&gt;&lt;div style=&quot;line-height: 24px;&quot;&gt;&lt;div style=&quot;line-height: 24px;&quot;&gt;&lt;div style=&quot;line-height: 24px;&quot;&gt;&lt;span style=&quot;text-align: left;&quot;&gt;+ Tổng hợp dữ liệu nhân sự(Tên đăng nhập, khoảng thời gian)&lt;/span&gt;&lt;br&gt;&lt;/div&gt;&lt;/div&gt;&lt;/div&gt;&lt;/div&gt;" style="text;strokeColor=none;fillColor=none;align=left;verticalAlign=middle;spacingLeft=4;spacingRight=4;overflow=hidden;rotatable=0;points=[[0,0.5],[1,0.5]];portConstraint=eastwest;whiteSpace=wrap;html=1;" vertex="1" parent="dvYaSBP2tjCflmMUl2TN-177">
          <mxGeometry y="40" width="350" height="40" as="geometry" />
        </mxCell>
        <mxCell id="dvYaSBP2tjCflmMUl2TN-179" value="&lt;b&gt;&amp;lt;&amp;lt;Boundary&amp;gt;&amp;gt;&lt;/b&gt;&lt;div&gt;&lt;b&gt;Báo cáo nhân sự&lt;/b&gt;&lt;/div&gt;" style="swimlane;fontStyle=0;childLayout=stackLayout;horizontal=1;startSize=40;fillColor=none;horizontalStack=0;resizeParent=1;resizeParentMax=0;resizeLast=0;collapsible=1;marginBottom=0;whiteSpace=wrap;html=1;" vertex="1" parent="1">
          <mxGeometry x="-1440" y="650" width="210" height="140" as="geometry">
            <mxRectangle x="-250" y="100" width="140" height="40" as="alternateBounds" />
          </mxGeometry>
        </mxCell>
        <mxCell id="dvYaSBP2tjCflmMUl2TN-180" value="- Khoảng thời gian: DateTime&lt;div style=&quot;line-height: 200%;&quot;&gt;- Tên đăng nhập: string&lt;/div&gt;&lt;div style=&quot;line-height: 200%;&quot;&gt;- Tổng thời gian làm việc: DateTime&lt;/div&gt;&lt;div style=&quot;line-height: 200%;&quot;&gt;- Tổng thưởng, phạt : int&lt;/div&gt;" style="text;strokeColor=none;fillColor=none;align=left;verticalAlign=top;spacingLeft=4;spacingRight=4;overflow=hidden;rotatable=0;points=[[0,0.5],[1,0.5]];portConstraint=eastwest;whiteSpace=wrap;html=1;" vertex="1" parent="dvYaSBP2tjCflmMUl2TN-179">
          <mxGeometry y="40" width="210" height="100" as="geometry" />
        </mxCell>
        <mxCell id="dvYaSBP2tjCflmMUl2TN-183" value="" style="endArrow=classic;html=1;rounded=0;entryX=0.426;entryY=1;entryDx=0;entryDy=0;entryPerimeter=0;exitX=1;exitY=0.25;exitDx=0;exitDy=0;" edge="1" parent="1" source="dvYaSBP2tjCflmMUl2TN-177" target="aBuUrAB-tPdE4JArL_gd-9">
          <mxGeometry width="50" height="50" relative="1" as="geometry">
            <mxPoint x="-440" y="570" as="sourcePoint" />
            <mxPoint x="-440" y="570" as="targetPoint" />
            <Array as="points">
              <mxPoint x="190" y="700" />
            </Array>
          </mxGeometry>
        </mxCell>
        <mxCell id="dvYaSBP2tjCflmMUl2TN-184" value="" style="endArrow=classic;html=1;rounded=0;exitX=1;exitY=0.5;exitDx=0;exitDy=0;entryX=0.5;entryY=0;entryDx=0;entryDy=0;" edge="1" parent="1" source="dvYaSBP2tjCflmMUl2TN-178" target="Pjqkww6uHoSa5I9ibUBh-9">
          <mxGeometry width="50" height="50" relative="1" as="geometry">
            <mxPoint x="-120" y="910" as="sourcePoint" />
            <mxPoint x="-360" y="710" as="targetPoint" />
            <Array as="points">
              <mxPoint x="-245" y="740" />
            </Array>
          </mxGeometry>
        </mxCell>
        <mxCell id="dvYaSBP2tjCflmMUl2TN-185" value="" style="endArrow=classic;html=1;rounded=0;entryX=0.5;entryY=0;entryDx=0;entryDy=0;exitX=1.003;exitY=-0.001;exitDx=0;exitDy=0;exitPerimeter=0;" edge="1" parent="1" source="dvYaSBP2tjCflmMUl2TN-178" target="p5YieNyIpPeS9HpQ7IXg-1">
          <mxGeometry width="50" height="50" relative="1" as="geometry">
            <mxPoint x="-40" y="730" as="sourcePoint" />
            <mxPoint x="160" y="860" as="targetPoint" />
            <Array as="points">
              <mxPoint x="445" y="720" />
            </Array>
          </mxGeometry>
        </mxCell>
        <mxCell id="dvYaSBP2tjCflmMUl2TN-186" value="" style="endArrow=classic;html=1;rounded=0;exitX=0.997;exitY=0.375;exitDx=0;exitDy=0;exitPerimeter=0;entryX=-0.003;entryY=0.18;entryDx=0;entryDy=0;entryPerimeter=0;" edge="1" parent="1" source="dvYaSBP2tjCflmMUl2TN-180" target="dvYaSBP2tjCflmMUl2TN-178">
          <mxGeometry width="50" height="50" relative="1" as="geometry">
            <mxPoint x="-760" y="1000" as="sourcePoint" />
            <mxPoint x="-1030" y="730" as="targetPoint" />
          </mxGeometry>
        </mxCell>
        <mxCell id="dvYaSBP2tjCflmMUl2TN-187" value="&lt;b&gt;&amp;lt;&amp;lt;Control&amp;gt;&amp;gt;&lt;/b&gt;&lt;div&gt;&lt;b&gt;Báo cáo số liệu kinh doanh và dự báo&lt;/b&gt;&lt;/div&gt;" style="swimlane;fontStyle=0;childLayout=stackLayout;horizontal=1;startSize=40;fillColor=none;horizontalStack=0;resizeParent=1;resizeParentMax=0;resizeLast=0;collapsible=1;marginBottom=0;whiteSpace=wrap;html=1;" vertex="1" parent="1">
          <mxGeometry x="3510" y="561" width="320" height="130" as="geometry">
            <mxRectangle x="-250" y="100" width="140" height="40" as="alternateBounds" />
          </mxGeometry>
        </mxCell>
        <mxCell id="dvYaSBP2tjCflmMUl2TN-188" value="&lt;div style=&quot;text-align: justify; line-height: 24px;&quot;&gt;&lt;div style=&quot;line-height: 24px;&quot;&gt;&lt;div style=&quot;line-height: 24px;&quot;&gt;&lt;div style=&quot;line-height: 24px;&quot;&gt;&lt;div style=&quot;line-height: 24px;&quot;&gt;&lt;div style=&quot;line-height: 24px;&quot;&gt;+ Tổng hợp số liệu(Khoảng thời gian, loại báo cáo)&lt;br&gt;&lt;/div&gt;&lt;/div&gt;&lt;/div&gt;&lt;/div&gt;&lt;/div&gt;&lt;/div&gt;" style="text;strokeColor=none;fillColor=none;align=left;verticalAlign=top;spacingLeft=4;spacingRight=4;overflow=hidden;rotatable=0;points=[[0,0.5],[1,0.5]];portConstraint=eastwest;whiteSpace=wrap;html=1;" vertex="1" parent="dvYaSBP2tjCflmMUl2TN-187">
          <mxGeometry y="40" width="320" height="90" as="geometry" />
        </mxCell>
        <mxCell id="dvYaSBP2tjCflmMUl2TN-189" value="&lt;b&gt;&amp;lt;&amp;lt;Boundary&amp;gt;&amp;gt;&lt;/b&gt;&lt;div&gt;&lt;b&gt;Báo cáo nhập hàng&lt;/b&gt;&lt;/div&gt;" style="swimlane;fontStyle=0;childLayout=stackLayout;horizontal=1;startSize=40;fillColor=none;horizontalStack=0;resizeParent=1;resizeParentMax=0;resizeLast=0;collapsible=1;marginBottom=0;whiteSpace=wrap;html=1;" vertex="1" parent="1">
          <mxGeometry x="4160" y="730" width="200" height="90" as="geometry">
            <mxRectangle x="-250" y="100" width="140" height="40" as="alternateBounds" />
          </mxGeometry>
        </mxCell>
        <mxCell id="dvYaSBP2tjCflmMUl2TN-190" value="- Khoảng thời gian&lt;div&gt;- Thông tin báo cáo nhập hàng&lt;/div&gt;" style="text;strokeColor=none;fillColor=none;align=left;verticalAlign=top;spacingLeft=4;spacingRight=4;overflow=hidden;rotatable=0;points=[[0,0.5],[1,0.5]];portConstraint=eastwest;whiteSpace=wrap;html=1;" vertex="1" parent="dvYaSBP2tjCflmMUl2TN-189">
          <mxGeometry y="40" width="200" height="50" as="geometry" />
        </mxCell>
        <mxCell id="dvYaSBP2tjCflmMUl2TN-193" value="&lt;b&gt;&amp;lt;&amp;lt;Boundary&amp;gt;&amp;gt;&lt;/b&gt;&lt;div&gt;&lt;b&gt;Báo cáo bán hàng&lt;/b&gt;&lt;/div&gt;" style="swimlane;fontStyle=0;childLayout=stackLayout;horizontal=1;startSize=40;fillColor=none;horizontalStack=0;resizeParent=1;resizeParentMax=0;resizeLast=0;collapsible=1;marginBottom=0;whiteSpace=wrap;html=1;" vertex="1" parent="1">
          <mxGeometry x="4160" y="450" width="200" height="90" as="geometry">
            <mxRectangle x="-250" y="100" width="140" height="40" as="alternateBounds" />
          </mxGeometry>
        </mxCell>
        <mxCell id="dvYaSBP2tjCflmMUl2TN-194" value="- Khoảng thời gian&lt;div&gt;- Thông tin báo cáo bán hàng&lt;/div&gt;" style="text;strokeColor=none;fillColor=none;align=left;verticalAlign=top;spacingLeft=4;spacingRight=4;overflow=hidden;rotatable=0;points=[[0,0.5],[1,0.5]];portConstraint=eastwest;whiteSpace=wrap;html=1;" vertex="1" parent="dvYaSBP2tjCflmMUl2TN-193">
          <mxGeometry y="40" width="200" height="50" as="geometry" />
        </mxCell>
        <mxCell id="dvYaSBP2tjCflmMUl2TN-201" value="" style="endArrow=classic;html=1;rounded=0;entryX=0.682;entryY=-0.003;entryDx=0;entryDy=0;entryPerimeter=0;" edge="1" parent="1" target="Pjqkww6uHoSa5I9ibUBh-5">
          <mxGeometry width="50" height="50" relative="1" as="geometry">
            <mxPoint x="3510" y="670" as="sourcePoint" />
            <mxPoint x="4170" y="820" as="targetPoint" />
            <Array as="points">
              <mxPoint x="2890" y="670" />
            </Array>
          </mxGeometry>
        </mxCell>
        <mxCell id="dvYaSBP2tjCflmMUl2TN-202" value="" style="endArrow=classic;html=1;rounded=0;entryX=0.711;entryY=0.003;entryDx=0;entryDy=0;exitX=0;exitY=0.5;exitDx=0;exitDy=0;entryPerimeter=0;" edge="1" parent="1" source="dvYaSBP2tjCflmMUl2TN-188" target="Pjqkww6uHoSa5I9ibUBh-1">
          <mxGeometry width="50" height="50" relative="1" as="geometry">
            <mxPoint x="4860" y="650" as="sourcePoint" />
            <mxPoint x="4500" y="520" as="targetPoint" />
            <Array as="points">
              <mxPoint x="3010" y="647" />
              <mxPoint x="2120" y="647" />
            </Array>
          </mxGeometry>
        </mxCell>
        <mxCell id="dvYaSBP2tjCflmMUl2TN-204" value="" style="endArrow=classic;html=1;rounded=0;entryX=0.5;entryY=0;entryDx=0;entryDy=0;exitX=0.008;exitY=0.107;exitDx=0;exitDy=0;exitPerimeter=0;" edge="1" parent="1" source="dvYaSBP2tjCflmMUl2TN-188" target="aBuUrAB-tPdE4JArL_gd-22">
          <mxGeometry width="50" height="50" relative="1" as="geometry">
            <mxPoint x="4860" y="610" as="sourcePoint" />
            <mxPoint x="1560" y="650" as="targetPoint" />
            <Array as="points">
              <mxPoint x="1115" y="611" />
            </Array>
          </mxGeometry>
        </mxCell>
        <mxCell id="dvYaSBP2tjCflmMUl2TN-207" value="" style="endArrow=classic;html=1;rounded=0;entryX=1;entryY=0.5;entryDx=0;entryDy=0;exitX=0;exitY=0.25;exitDx=0;exitDy=0;" edge="1" parent="1" source="dvYaSBP2tjCflmMUl2TN-189" target="dvYaSBP2tjCflmMUl2TN-188">
          <mxGeometry width="50" height="50" relative="1" as="geometry">
            <mxPoint x="3840" y="761" as="sourcePoint" />
            <mxPoint x="3890" y="711" as="targetPoint" />
          </mxGeometry>
        </mxCell>
        <mxCell id="dvYaSBP2tjCflmMUl2TN-208" value="" style="endArrow=classic;html=1;rounded=0;exitX=-0.008;exitY=-0.026;exitDx=0;exitDy=0;exitPerimeter=0;" edge="1" parent="1" source="dvYaSBP2tjCflmMUl2TN-194">
          <mxGeometry width="50" height="50" relative="1" as="geometry">
            <mxPoint x="3990" y="950" as="sourcePoint" />
            <mxPoint x="3830" y="641" as="targetPoint" />
          </mxGeometry>
        </mxCell>
        <mxCell id="qDGn3ydKWOrVumUoSzPF-1" value="&amp;lt;&amp;lt;Entity&amp;gt;&amp;gt;&lt;div style=&quot;font-size: 12px;&quot;&gt;Bảng lịch làm&lt;/div&gt;" style="swimlane;fontStyle=1;align=center;verticalAlign=top;childLayout=stackLayout;horizontal=1;startSize=40;horizontalStack=0;resizeParent=1;resizeParentMax=0;resizeLast=0;collapsible=1;marginBottom=0;whiteSpace=wrap;html=1;fontSize=12;" vertex="1" parent="1">
          <mxGeometry x="-660" y="220" width="270" height="210" as="geometry" />
        </mxCell>
        <mxCell id="qDGn3ydKWOrVumUoSzPF-2" value="&lt;div style=&quot;line-height: 200%;&quot;&gt;- Tên đăng nhập: string&lt;/div&gt;- Họ và tên: string&lt;br&gt;&lt;div style=&quot;line-height: 200%;&quot;&gt;- Thời gian bắt đầu ca: DateTime&lt;/div&gt;&lt;div style=&quot;line-height: 200%;&quot;&gt;- Thời gian kết thúc ca: DateTime&lt;/div&gt;&lt;div style=&quot;line-height: 200%;&quot;&gt;&lt;br&gt;&lt;/div&gt;" style="text;strokeColor=none;fillColor=none;align=left;verticalAlign=middle;spacingLeft=4;spacingRight=4;overflow=hidden;rotatable=0;points=[[0,0.5],[1,0.5]];portConstraint=eastwest;whiteSpace=wrap;html=1;spacingTop=2;horizontal=1;fontSize=12;" vertex="1" parent="qDGn3ydKWOrVumUoSzPF-1">
          <mxGeometry y="40" width="270" height="90" as="geometry" />
        </mxCell>
        <mxCell id="qDGn3ydKWOrVumUoSzPF-3" value="" style="line;strokeWidth=1;fillColor=none;align=left;verticalAlign=middle;spacingTop=-1;spacingLeft=3;spacingRight=3;rotatable=0;labelPosition=right;points=[];portConstraint=eastwest;strokeColor=inherit;fontSize=12;" vertex="1" parent="qDGn3ydKWOrVumUoSzPF-1">
          <mxGeometry y="130" width="270" height="8" as="geometry" />
        </mxCell>
        <mxCell id="qDGn3ydKWOrVumUoSzPF-4" value="+ Lấy danh sách lịch làm()&lt;div style=&quot;line-height: 200%; font-size: 12px;&quot;&gt;&lt;/div&gt;&lt;div style=&quot;line-height: 200%;&quot;&gt;+ Tạo lịch làm()&lt;/div&gt;&lt;div style=&quot;line-height: 200%;&quot;&gt;+ Phân công()&lt;/div&gt;&lt;div style=&quot;line-height: 200%;&quot;&gt;&lt;br&gt;&lt;/div&gt;" style="text;strokeColor=none;fillColor=none;align=left;verticalAlign=top;spacingLeft=4;spacingRight=4;overflow=hidden;rotatable=0;points=[[0,0.5],[1,0.5]];portConstraint=eastwest;whiteSpace=wrap;html=1;fontSize=12;" vertex="1" parent="qDGn3ydKWOrVumUoSzPF-1">
          <mxGeometry y="138" width="270" height="72" as="geometry" />
        </mxCell>
        <mxCell id="qDGn3ydKWOrVumUoSzPF-5" value="&lt;b&gt;&amp;lt;&amp;lt;Control&amp;gt;&amp;gt;&lt;/b&gt;&lt;div&gt;&lt;b&gt;Quản lý lịch làm&lt;/b&gt;&lt;/div&gt;" style="swimlane;fontStyle=0;childLayout=stackLayout;horizontal=1;startSize=40;fillColor=none;horizontalStack=0;resizeParent=1;resizeParentMax=0;resizeLast=0;collapsible=1;marginBottom=0;whiteSpace=wrap;html=1;" vertex="1" parent="1">
          <mxGeometry x="-970" y="20" width="220" height="110" as="geometry">
            <mxRectangle x="-250" y="100" width="140" height="40" as="alternateBounds" />
          </mxGeometry>
        </mxCell>
        <mxCell id="qDGn3ydKWOrVumUoSzPF-6" value="&lt;div&gt;+ Lấy danh sách lịch làm()&lt;div style=&quot;line-height: 24px;&quot;&gt;&lt;/div&gt;&lt;div style=&quot;line-height: 24px;&quot;&gt;+ Tạo lịch làm()&lt;/div&gt;&lt;div style=&quot;line-height: 24px;&quot;&gt;+ Phân công()&lt;/div&gt;&lt;div style=&quot;line-height: 24px;&quot;&gt;&lt;br&gt;&lt;/div&gt;&lt;/div&gt;" style="text;strokeColor=none;fillColor=none;align=left;verticalAlign=top;spacingLeft=4;spacingRight=4;overflow=hidden;rotatable=0;points=[[0,0.5],[1,0.5]];portConstraint=eastwest;whiteSpace=wrap;html=1;" vertex="1" parent="qDGn3ydKWOrVumUoSzPF-5">
          <mxGeometry y="40" width="220" height="70" as="geometry" />
        </mxCell>
        <mxCell id="qDGn3ydKWOrVumUoSzPF-9" value="&lt;b&gt;&amp;lt;&amp;lt;Boundary&amp;gt;&amp;gt;&lt;/b&gt;&lt;div&gt;&lt;b&gt;Danh sách lịch làm&lt;/b&gt;&lt;/div&gt;" style="swimlane;fontStyle=0;childLayout=stackLayout;horizontal=1;startSize=40;fillColor=none;horizontalStack=0;resizeParent=1;resizeParentMax=0;resizeLast=0;collapsible=1;marginBottom=0;whiteSpace=wrap;html=1;" vertex="1" parent="1">
          <mxGeometry x="-1530" y="-120" width="270" height="140" as="geometry">
            <mxRectangle x="-250" y="100" width="140" height="40" as="alternateBounds" />
          </mxGeometry>
        </mxCell>
        <mxCell id="qDGn3ydKWOrVumUoSzPF-10" value="&lt;div style=&quot;line-height: 24px;&quot;&gt;- Tên đăng nhập: string&lt;/div&gt;- Họ và tên: string&lt;br&gt;&lt;div style=&quot;line-height: 24px;&quot;&gt;- Thời gian bắt đầu ca: DateTime&lt;/div&gt;&lt;div style=&quot;line-height: 24px;&quot;&gt;- Thời gian kết thúc ca: DateTime&lt;/div&gt;&lt;div style=&quot;line-height: 24px;&quot;&gt;&lt;br&gt;&lt;/div&gt;" style="text;strokeColor=none;fillColor=none;align=left;verticalAlign=top;spacingLeft=4;spacingRight=4;overflow=hidden;rotatable=0;points=[[0,0.5],[1,0.5]];portConstraint=eastwest;whiteSpace=wrap;html=1;" vertex="1" parent="qDGn3ydKWOrVumUoSzPF-9">
          <mxGeometry y="40" width="270" height="100" as="geometry" />
        </mxCell>
        <mxCell id="qDGn3ydKWOrVumUoSzPF-11" value="&lt;b&gt;&amp;lt;&amp;lt;Boundary&amp;gt;&amp;gt;&lt;/b&gt;&lt;div&gt;&lt;b&gt;Phân công&lt;/b&gt;&lt;/div&gt;" style="swimlane;fontStyle=0;childLayout=stackLayout;horizontal=1;startSize=40;fillColor=none;horizontalStack=0;resizeParent=1;resizeParentMax=0;resizeLast=0;collapsible=1;marginBottom=0;whiteSpace=wrap;html=1;" vertex="1" parent="1">
          <mxGeometry x="-920" y="-280" width="270" height="140" as="geometry">
            <mxRectangle x="-250" y="100" width="140" height="40" as="alternateBounds" />
          </mxGeometry>
        </mxCell>
        <mxCell id="qDGn3ydKWOrVumUoSzPF-12" value="&lt;div style=&quot;line-height: 24px;&quot;&gt;- Tên đăng nhập: string&lt;/div&gt;- Họ và tên: string&lt;br&gt;&lt;div style=&quot;line-height: 24px;&quot;&gt;- Thời gian bắt đầu ca: DateTime&lt;/div&gt;&lt;div style=&quot;line-height: 24px;&quot;&gt;- Thời gian kết thúc ca: DateTime&lt;/div&gt;&lt;div style=&quot;line-height: 24px;&quot;&gt;&lt;br&gt;&lt;/div&gt;" style="text;strokeColor=none;fillColor=none;align=left;verticalAlign=top;spacingLeft=4;spacingRight=4;overflow=hidden;rotatable=0;points=[[0,0.5],[1,0.5]];portConstraint=eastwest;whiteSpace=wrap;html=1;" vertex="1" parent="qDGn3ydKWOrVumUoSzPF-11">
          <mxGeometry y="40" width="270" height="100" as="geometry" />
        </mxCell>
        <mxCell id="qDGn3ydKWOrVumUoSzPF-13" value="&amp;lt;&amp;lt;Boundary&amp;gt;&amp;gt;&lt;div style=&quot;font-size: 12px;&quot;&gt;Form thêm mới lịch làm&lt;/div&gt;" style="swimlane;fontStyle=1;align=center;verticalAlign=top;childLayout=stackLayout;horizontal=1;startSize=40;horizontalStack=0;resizeParent=1;resizeParentMax=0;resizeLast=0;collapsible=1;marginBottom=0;whiteSpace=wrap;html=1;fontSize=12;" vertex="1" parent="1">
          <mxGeometry x="-1310" y="-440" width="240" height="180" as="geometry" />
        </mxCell>
        <mxCell id="qDGn3ydKWOrVumUoSzPF-14" value="&lt;div style=&quot;line-height: 24px;&quot;&gt;- Tên đăng nhập: string&lt;/div&gt;- Họ và tên: string&lt;br&gt;&lt;div style=&quot;line-height: 24px;&quot;&gt;- Thời gian bắt đầu ca: DateTime&lt;/div&gt;&lt;div style=&quot;line-height: 24px;&quot;&gt;- Thời gian kết thúc ca: DateTime&lt;/div&gt;&lt;div style=&quot;line-height: 24px;&quot;&gt;&lt;br&gt;&lt;/div&gt;" style="text;strokeColor=none;fillColor=none;align=left;verticalAlign=middle;spacingLeft=4;spacingRight=4;overflow=hidden;rotatable=0;points=[[0,0.5],[1,0.5]];portConstraint=eastwest;whiteSpace=wrap;html=1;spacingTop=2;horizontal=1;fontSize=12;" vertex="1" parent="qDGn3ydKWOrVumUoSzPF-13">
          <mxGeometry y="40" width="240" height="100" as="geometry" />
        </mxCell>
        <mxCell id="qDGn3ydKWOrVumUoSzPF-15" value="" style="line;strokeWidth=1;fillColor=none;align=left;verticalAlign=middle;spacingTop=-1;spacingLeft=3;spacingRight=3;rotatable=0;labelPosition=right;points=[];portConstraint=eastwest;strokeColor=inherit;fontSize=12;" vertex="1" parent="qDGn3ydKWOrVumUoSzPF-13">
          <mxGeometry y="140" width="240" height="8" as="geometry" />
        </mxCell>
        <mxCell id="qDGn3ydKWOrVumUoSzPF-16" value="+ Submit()" style="text;strokeColor=none;fillColor=none;align=left;verticalAlign=top;spacingLeft=4;spacingRight=4;overflow=hidden;rotatable=0;points=[[0,0.5],[1,0.5]];portConstraint=eastwest;whiteSpace=wrap;html=1;fontSize=12;" vertex="1" parent="qDGn3ydKWOrVumUoSzPF-13">
          <mxGeometry y="148" width="240" height="32" as="geometry" />
        </mxCell>
        <mxCell id="qDGn3ydKWOrVumUoSzPF-17" value="" style="endArrow=classic;html=1;rounded=0;exitX=0.999;exitY=0.266;exitDx=0;exitDy=0;entryX=0.5;entryY=0;entryDx=0;entryDy=0;exitPerimeter=0;" edge="1" parent="1" source="qDGn3ydKWOrVumUoSzPF-6" target="qDGn3ydKWOrVumUoSzPF-1">
          <mxGeometry width="50" height="50" relative="1" as="geometry">
            <mxPoint x="-583" y="-397" as="sourcePoint" />
            <mxPoint x="-145" y="-310" as="targetPoint" />
          </mxGeometry>
        </mxCell>
        <mxCell id="qDGn3ydKWOrVumUoSzPF-18" value="" style="endArrow=classic;html=1;rounded=0;exitX=0.472;exitY=1.021;exitDx=0;exitDy=0;entryX=0.5;entryY=0;entryDx=0;entryDy=0;exitPerimeter=0;" edge="1" parent="1" source="qDGn3ydKWOrVumUoSzPF-16" target="qDGn3ydKWOrVumUoSzPF-5">
          <mxGeometry width="50" height="50" relative="1" as="geometry">
            <mxPoint x="-740" y="89" as="sourcePoint" />
            <mxPoint x="-465" y="180" as="targetPoint" />
          </mxGeometry>
        </mxCell>
        <mxCell id="qDGn3ydKWOrVumUoSzPF-19" value="" style="endArrow=classic;html=1;rounded=0;exitX=1.007;exitY=0.353;exitDx=0;exitDy=0;exitPerimeter=0;" edge="1" parent="1" source="qDGn3ydKWOrVumUoSzPF-10">
          <mxGeometry width="50" height="50" relative="1" as="geometry">
            <mxPoint x="-1187" y="-249" as="sourcePoint" />
            <mxPoint x="-860" y="20" as="targetPoint" />
          </mxGeometry>
        </mxCell>
        <mxCell id="qDGn3ydKWOrVumUoSzPF-20" value="" style="endArrow=classic;html=1;rounded=0;exitX=0.536;exitY=1.02;exitDx=0;exitDy=0;exitPerimeter=0;" edge="1" parent="1" source="qDGn3ydKWOrVumUoSzPF-12">
          <mxGeometry width="50" height="50" relative="1" as="geometry">
            <mxPoint x="-1248" y="-35" as="sourcePoint" />
            <mxPoint x="-860" y="20" as="targetPoint" />
          </mxGeometry>
        </mxCell>
        <mxCell id="qDGn3ydKWOrVumUoSzPF-21" value="" style="endArrow=classic;html=1;rounded=0;entryX=0.548;entryY=1.004;entryDx=0;entryDy=0;entryPerimeter=0;" edge="1" parent="1" target="qDGn3ydKWOrVumUoSzPF-4">
          <mxGeometry width="50" height="50" relative="1" as="geometry">
            <mxPoint x="-460" y="1190" as="sourcePoint" />
            <mxPoint x="-525" y="420" as="targetPoint" />
          </mxGeometry>
        </mxCell>
        <mxCell id="HqZdQJdRzB1OHePECXw2-1" value="&amp;lt;&amp;lt;Boundary&amp;gt;&amp;gt;&lt;div style=&quot;font-size: 12px;&quot;&gt;Quản lý hóa đơn hóa đơn&lt;/div&gt;" style="swimlane;fontStyle=1;align=center;verticalAlign=middle;childLayout=stackLayout;horizontal=1;startSize=40;horizontalStack=0;resizeParent=1;resizeParentMax=0;resizeLast=0;collapsible=1;marginBottom=0;whiteSpace=wrap;html=1;fontSize=12;" vertex="1" parent="1">
          <mxGeometry x="3560" y="1410" width="260" height="70" as="geometry" />
        </mxCell>
        <mxCell id="HqZdQJdRzB1OHePECXw2-2" value="- Danh sách hóa đơn: List&amp;lt;Hóa đơn&amp;gt;" style="text;strokeColor=none;fillColor=none;align=left;verticalAlign=middle;spacingLeft=4;spacingRight=4;overflow=hidden;rotatable=0;points=[[0,0.5],[1,0.5]];portConstraint=eastwest;whiteSpace=wrap;html=1;spacingTop=2;horizontal=1;fontSize=12;" vertex="1" parent="HqZdQJdRzB1OHePECXw2-1">
          <mxGeometry y="40" width="260" height="30" as="geometry" />
        </mxCell>
        <mxCell id="HqZdQJdRzB1OHePECXw2-5" value="&amp;lt;&amp;lt;Boundary&amp;gt;&amp;gt;&lt;div style=&quot;font-size: 12px;&quot;&gt;Thông tin chi tiết hóa đơn&lt;/div&gt;" style="swimlane;fontStyle=1;align=center;verticalAlign=middle;childLayout=stackLayout;horizontal=1;startSize=40;horizontalStack=0;resizeParent=1;resizeParentMax=0;resizeLast=0;collapsible=1;marginBottom=0;whiteSpace=wrap;html=1;fontSize=12;" vertex="1" parent="1">
          <mxGeometry x="3090" y="1425" width="260" height="210" as="geometry" />
        </mxCell>
        <mxCell id="HqZdQJdRzB1OHePECXw2-6" value="- Mã hóa đơn: string&lt;div style=&quot;line-height: 24px;&quot;&gt;- Mã khách hàng: string&lt;/div&gt;&lt;div style=&quot;line-height: 24px;&quot;&gt;- Danh sách sản phẩm: List&amp;lt;Mã hàng hóa, Mã lô hàng, giá bán, số lượng, đơn vị&amp;gt;&lt;/div&gt;&lt;div style=&quot;line-height: 24px;&quot;&gt;- Thời gian xuất hóa đơn: datetime&lt;/div&gt;&lt;div style=&quot;line-height: 24px;&quot;&gt;- Tổng tiền: int&lt;/div&gt;&lt;div style=&quot;line-height: 24px;&quot;&gt;- Địa chỉ cửa hàng: string&lt;/div&gt;" style="text;strokeColor=none;fillColor=none;align=left;verticalAlign=middle;spacingLeft=4;spacingRight=4;overflow=hidden;rotatable=0;points=[[0,0.5],[1,0.5]];portConstraint=eastwest;whiteSpace=wrap;html=1;spacingTop=2;horizontal=1;fontSize=12;" vertex="1" parent="HqZdQJdRzB1OHePECXw2-5">
          <mxGeometry y="40" width="260" height="170" as="geometry" />
        </mxCell>
        <mxCell id="HqZdQJdRzB1OHePECXw2-9" value="" style="endArrow=classic;html=1;rounded=0;exitX=0.5;exitY=0;exitDx=0;exitDy=0;entryX=0.449;entryY=1.034;entryDx=0;entryDy=0;entryPerimeter=0;" edge="1" parent="1" source="HqZdQJdRzB1OHePECXw2-5" target="dvYaSBP2tjCflmMUl2TN-24">
          <mxGeometry width="50" height="50" relative="1" as="geometry">
            <mxPoint x="2985" y="1410" as="sourcePoint" />
            <mxPoint x="3150" y="1311" as="targetPoint" />
          </mxGeometry>
        </mxCell>
        <mxCell id="HqZdQJdRzB1OHePECXw2-10" value="" style="endArrow=classic;html=1;rounded=0;exitX=0;exitY=0.5;exitDx=0;exitDy=0;entryX=0.439;entryY=1.034;entryDx=0;entryDy=0;entryPerimeter=0;" edge="1" parent="1" source="HqZdQJdRzB1OHePECXw2-1" target="dvYaSBP2tjCflmMUl2TN-24">
          <mxGeometry width="50" height="50" relative="1" as="geometry">
            <mxPoint x="3430" y="1450" as="sourcePoint" />
            <mxPoint x="3147" y="1315" as="targetPoint" />
          </mxGeometry>
        </mxCell>
        <mxCell id="aUsoZm5-7SY3PvmXQsFH-1" value="" style="endArrow=classic;html=1;rounded=0;exitX=0.647;exitY=0.005;exitDx=0;exitDy=0;entryX=0.851;entryY=1.036;entryDx=0;entryDy=0;entryPerimeter=0;exitPerimeter=0;" edge="1" parent="1" source="dvYaSBP2tjCflmMUl2TN-23" target="aBuUrAB-tPdE4JArL_gd-33">
          <mxGeometry width="50" height="50" relative="1" as="geometry">
            <mxPoint x="3160" y="1120" as="sourcePoint" />
            <mxPoint x="2223" y="1020" as="targetPoint" />
          </mxGeometry>
        </mxCell>
      </root>
    </mxGraphModel>
  </diagram>
</mxfile>
